<svg xmlns="http://www.w3.org/2000/svg" version="1.1" xmlns:xlink="http://www.w3.org/1999/xlink" xmlns:svgjs="http://svgjs.dev/svgjs" width="2560" height="1440" preserveAspectRatio="none" viewBox="0 0 2560 1440"><g mask="url(&quot;#SvgjsMask1015&quot;)" fill="none"><path d="M290.96 0C290.96 85.22 85.22 290.96 0 290.96C-60.26 290.96 -72.74 72.74 0 0C72.74 -72.74 290.96 -60.26 290.96 0" stroke="rgba(148, 148, 148, 0.58)" stroke-width="2"></path><path d="M720 1026C695.59 1026 674.04 1049.49 674.04 1080C674.04 1130.49 694.8 1188 720 1188C746.2 1188 776.84 1129.32 776.84 1080C776.84 1048.32 746.99 1026 720 1026" stroke="rgba(148, 148, 148, 0.58)" stroke-width="2"></path><path d="M167.67 0C167.67 49.11 49.11 167.67 0 167.67C-34.73 167.67 -41.92 41.92 0 0C41.92 -41.92 167.67 -34.73 167.67 0" stroke="rgba(148, 148, 148, 0.58)" stroke-width="2"></path><path d="M720 360C829.01 180 803.43 134.6 938.03 0C983.43 -45.4 1009.01 0 1080 0C1260 0 1260 0 1440 0C1620 0 1620 0 1800 0C1980 0 1980 0 2160 0C2340 0 2340 0 2520 0C2627.02 0 2701.6 -66.87 2734.05 0C2788.95 113.13 2756.85 198.97 2694.71 360C2649.82 476.34 2625.72 550.72 2520 554.75C2358.37 560.91 2338.07 470.56 2160 380.38C2145.8 373.19 2148.27 369.49 2135.45 360C1968.27 236.3 1985.28 163.95 1800 114C1637.55 70.2 1593.41 98.14 1440 172.5C1339.64 221.14 1292.46 259.93 1292.46 360C1292.46 490.05 1361.96 499.04 1440 632.73C1467.03 679.04 1502.61 673.6 1502.61 720C1502.61 782.69 1479.73 850.91 1440 850.91C1393.04 850.91 1398.12 768.01 1329.23 720C1218.12 642.56 1204.17 600 1080 600C959.55 600 956.92 654.72 840 720C776.92 755.22 770.62 750.02 720 801C591.9 930.02 605.91 944.92 482.55 1080C425.91 1142.02 429.24 1195.2 360 1195.2C257.2 1195.2 160.23 1174.65 138.46 1080C105.58 937.05 174.98 889.55 250.71 720C285.75 641.55 291.59 636.48 360 584C526.24 456.48 540 472 720 360C720 360 720 360 720 360" stroke="rgba(148, 148, 148, 0.58)" stroke-width="2"></path><path d="M2800 720C2837.54 683.82 2855.64 653.02 2880 653.02C2895.64 653.02 2880 686.51 2880 720C2880 900 2880 900 2880 1080C2880 1091.25 2885.69 1092.9 2880 1102.5C2779.11 1272.9 2798.43 1316.63 2666.84 1440C2618.43 1485.38 2593.42 1440 2520 1440C2434.15 1440 2360.95 1496.89 2348.31 1440C2320.95 1316.89 2374.2 1248.64 2440 1080C2460.04 1028.64 2480 1040 2520 1000C2660 860 2657.54 857.31 2800 720" stroke="rgba(148, 148, 148, 0.58)" stroke-width="2"></path><path d="M1013.68 1080C1013.68 1028.98 1039.48 979.2 1080 979.2C1132.64 979.2 1131.8 1043.54 1200 1080C1311.8 1139.76 1319.63 1171.64 1440 1171.64C1565.63 1171.64 1567.21 1128.78 1692 1080C1747.21 1058.42 1748.85 1030.91 1800 1030.91C1834.62 1030.91 1847.2 1044.38 1863.53 1080C1941 1248.93 2008.89 1319.41 1987.61 1440C1977.13 1499.41 1893.8 1440 1800 1440C1620 1440 1620 1440 1440 1440C1310.53 1440 1269.16 1501.29 1181.05 1440C1089.16 1376.08 1136.76 1311.66 1080 1189.57C1053.08 1131.66 1013.68 1134.16 1013.68 1080" stroke="rgba(148, 148, 148, 0.58)" stroke-width="2"></path><path d="M0 1280C17.86 1280 68.57 1382.61 68.57 1440C68.57 1462.61 10.29 1464 0 1440C-24 1384 -16.42 1280 0 1280" stroke="rgba(148, 148, 148, 0.58)" stroke-width="2"></path><path d="M44.38 0C44.38 13 13 44.38 0 44.38C-9.19 44.38 -11.1 11.1 0 0C11.1 -11.1 44.38 -9.19 44.38 0" stroke="rgba(148, 148, 148, 0.58)" stroke-width="2"></path><path d="M970 360C964.39 200.11 1011.95 172.93 1064.79 0C1066.95 -7.07 1072.39 0 1080 0C1188 0 1284.44 -64.11 1296 0C1316.9 115.89 1231.26 186.79 1144.92 360C1123.26 403.45 1117.22 433.33 1080 433.33C1029.76 433.33 971.99 416.78 970 360" stroke="rgba(148, 148, 148, 0.58)" stroke-width="2"></path><path d="M2424 360C2424 248.33 2484.55 98.18 2520 98.18C2553.72 98.18 2562.35 235.3 2562.35 360C2562.35 389.82 2545.75 407.21 2520 407.21C2476.57 407.21 2424 402.84 2424 360" stroke="rgba(148, 148, 148, 0.58)" stroke-width="2"></path><path d="M1338.95 1440C1338.95 1409.09 1373.85 1355.26 1440 1335.27C1604.38 1285.59 1651.86 1263.78 1800 1300.65C1862.28 1316.15 1860.85 1390.24 1860.85 1440C1860.85 1459.91 1830.43 1440 1800 1440C1620 1440 1620 1440 1440 1440C1389.47 1440 1338.95 1461.46 1338.95 1440" stroke="rgba(148, 148, 148, 0.58)" stroke-width="2"></path><path d="M2486.77 1440C2486.77 1404.79 2504.47 1346.09 2520 1346.09C2535.3 1346.09 2548.42 1403.59 2548.42 1440C2548.42 1450.55 2534.21 1440 2520 1440C2503.39 1440 2486.77 1451.75 2486.77 1440" stroke="rgba(148, 148, 148, 0.58)" stroke-width="2"></path></g><defs><mask id="SvgjsMask1015"><rect width="2560" height="1440" fill="#ffffff"></rect></mask></defs></svg>