<svg width="310" height="320" viewBox="0 0 310 320" fill="none" xmlns="http://www.w3.org/2000/svg">
<path d="M6.28625 228.605C6.28625 230.33 4.89034 231.729 3.16839 231.729C1.44645 231.729 0.0505371 230.33 0.0505371 228.605C0.0505371 226.879 1.44645 225.48 3.16839 225.48C4.89034 225.48 6.28625 226.879 6.28625 228.605Z" fill="black" fill-opacity="0.03"/>
<path d="M33.7234 228.605C33.7234 230.33 32.3275 231.729 30.6055 231.729C28.8836 231.729 27.4877 230.33 27.4877 228.605C27.4877 226.879 28.8836 225.48 30.6055 225.48C32.3275 225.48 33.7234 226.879 33.7234 228.605Z" fill="black" fill-opacity="0.03"/>
<path d="M61.1605 228.605C61.1605 230.33 59.7646 231.729 58.0427 231.729C56.3207 231.729 54.9248 230.33 54.9248 228.605C54.9248 226.879 56.3207 225.48 58.0427 225.48C59.7646 225.48 61.1605 226.879 61.1605 228.605Z" fill="black" fill-opacity="0.03"/>
<path d="M6.28625 207.356C6.28625 209.082 4.89034 210.481 3.16839 210.481C1.44645 210.481 0.0505371 209.082 0.0505371 207.356C0.0505371 205.631 1.44645 204.232 3.16839 204.232C4.89034 204.232 6.28625 205.631 6.28625 207.356Z" fill="black" fill-opacity="0.03"/>
<path d="M33.7234 207.356C33.7234 209.082 32.3275 210.481 30.6055 210.481C28.8836 210.481 27.4877 209.082 27.4877 207.356C27.4877 205.631 28.8836 204.232 30.6055 204.232C32.3275 204.232 33.7234 205.631 33.7234 207.356Z" fill="black" fill-opacity="0.03"/>
<path d="M61.1605 207.356C61.1605 209.082 59.7646 210.481 58.0427 210.481C56.3207 210.481 54.9248 209.082 54.9248 207.356C54.9248 205.631 56.3207 204.232 58.0427 204.232C59.7646 204.232 61.1605 205.631 61.1605 207.356Z" fill="black" fill-opacity="0.03"/>
<path d="M6.28625 249.853C6.28625 251.579 4.89034 252.978 3.16839 252.978C1.44645 252.978 0.0505371 251.579 0.0505371 249.853C0.0505371 248.127 1.44645 246.728 3.16839 246.728C4.89034 246.728 6.28625 248.127 6.28625 249.853Z" fill="black" fill-opacity="0.03"/>
<path d="M33.7234 249.853C33.7234 251.579 32.3275 252.978 30.6055 252.978C28.8836 252.978 27.4877 251.579 27.4877 249.853C27.4877 248.127 28.8836 246.728 30.6055 246.728C32.3275 246.728 33.7234 248.127 33.7234 249.853Z" fill="black" fill-opacity="0.03"/>
<path d="M61.1605 249.853C61.1605 251.579 59.7646 252.978 58.0427 252.978C56.3207 252.978 54.9248 251.579 54.9248 249.853C54.9248 248.127 56.3207 246.728 58.0427 246.728C59.7646 246.728 61.1605 248.127 61.1605 249.853Z" fill="black" fill-opacity="0.03"/>
<path d="M86.1034 228.605C86.1034 230.33 84.7075 231.729 82.9855 231.729C81.2636 231.729 79.8677 230.33 79.8677 228.605C79.8677 226.879 81.2636 225.48 82.9855 225.48C84.7075 225.48 86.1034 226.879 86.1034 228.605Z" fill="black" fill-opacity="0.03"/>
<path d="M113.541 228.605C113.541 230.33 112.145 231.729 110.423 231.729C108.701 231.729 107.305 230.33 107.305 228.605C107.305 226.879 108.701 225.48 110.423 225.48C112.145 225.48 113.541 226.879 113.541 228.605Z" fill="black" fill-opacity="0.03"/>
<path d="M140.978 228.605C140.978 230.33 139.582 231.729 137.86 231.729C136.138 231.729 134.742 230.33 134.742 228.605C134.742 226.879 136.138 225.48 137.86 225.48C139.582 225.48 140.978 226.879 140.978 228.605Z" fill="black" fill-opacity="0.03"/>
<path d="M86.1034 207.356C86.1034 209.082 84.7075 210.481 82.9855 210.481C81.2636 210.481 79.8677 209.082 79.8677 207.356C79.8677 205.631 81.2636 204.232 82.9855 204.232C84.7075 204.232 86.1034 205.631 86.1034 207.356Z" fill="black" fill-opacity="0.03"/>
<path d="M113.541 207.356C113.541 209.082 112.145 210.481 110.423 210.481C108.701 210.481 107.305 209.082 107.305 207.356C107.305 205.631 108.701 204.232 110.423 204.232C112.145 204.232 113.541 205.631 113.541 207.356Z" fill="black" fill-opacity="0.03"/>
<path d="M140.978 207.356C140.978 209.082 139.582 210.481 137.86 210.481C136.138 210.481 134.742 209.082 134.742 207.356C134.742 205.631 136.138 204.232 137.86 204.232C139.582 204.232 140.978 205.631 140.978 207.356Z" fill="black" fill-opacity="0.03"/>
<path d="M86.1034 249.853C86.1034 251.579 84.7075 252.978 82.9855 252.978C81.2636 252.978 79.8677 251.579 79.8677 249.853C79.8677 248.127 81.2636 246.728 82.9855 246.728C84.7075 246.728 86.1034 248.127 86.1034 249.853Z" fill="black" fill-opacity="0.03"/>
<path d="M113.541 249.853C113.541 251.579 112.145 252.978 110.423 252.978C108.701 252.978 107.305 251.579 107.305 249.853C107.305 248.127 108.701 246.728 110.423 246.728C112.145 246.728 113.541 248.127 113.541 249.853Z" fill="black" fill-opacity="0.03"/>
<path d="M140.978 249.853C140.978 251.579 139.582 252.978 137.86 252.978C136.138 252.978 134.742 251.579 134.742 249.853C134.742 248.127 136.138 246.728 137.86 246.728C139.582 246.728 140.978 248.127 140.978 249.853Z" fill="black" fill-opacity="0.03"/>
<path d="M6.28625 295.474C6.28625 297.2 4.89034 298.599 3.16839 298.599C1.44645 298.599 0.0505371 297.2 0.0505371 295.474C0.0505371 293.748 1.44645 292.349 3.16839 292.349C4.89034 292.349 6.28625 293.748 6.28625 295.474Z" fill="black" fill-opacity="0.03"/>
<path d="M33.7234 295.474C33.7234 297.2 32.3275 298.599 30.6055 298.599C28.8836 298.599 27.4877 297.2 27.4877 295.474C27.4877 293.748 28.8836 292.349 30.6055 292.349C32.3275 292.349 33.7234 293.748 33.7234 295.474Z" fill="black" fill-opacity="0.03"/>
<path d="M61.1605 295.474C61.1605 297.2 59.7646 298.599 58.0427 298.599C56.3207 298.599 54.9248 297.2 54.9248 295.474C54.9248 293.748 56.3207 292.349 58.0427 292.349C59.7646 292.349 61.1605 293.748 61.1605 295.474Z" fill="black" fill-opacity="0.03"/>
<path d="M6.28625 274.226C6.28625 275.951 4.89034 277.35 3.16839 277.35C1.44645 277.35 0.0505371 275.951 0.0505371 274.226C0.0505371 272.5 1.44645 271.101 3.16839 271.101C4.89034 271.101 6.28625 272.5 6.28625 274.226Z" fill="black" fill-opacity="0.03"/>
<path d="M33.7234 274.226C33.7234 275.951 32.3275 277.35 30.6055 277.35C28.8836 277.35 27.4877 275.951 27.4877 274.226C27.4877 272.5 28.8836 271.101 30.6055 271.101C32.3275 271.101 33.7234 272.5 33.7234 274.226Z" fill="black" fill-opacity="0.03"/>
<path d="M61.1605 274.226C61.1605 275.951 59.7646 277.35 58.0427 277.35C56.3207 277.35 54.9248 275.951 54.9248 274.226C54.9248 272.5 56.3207 271.101 58.0427 271.101C59.7646 271.101 61.1605 272.5 61.1605 274.226Z" fill="black" fill-opacity="0.03"/>
<path d="M6.28625 316.722C6.28625 318.448 4.89034 319.847 3.16839 319.847C1.44645 319.847 0.0505371 318.448 0.0505371 316.722C0.0505371 314.996 1.44645 313.597 3.16839 313.597C4.89034 313.597 6.28625 314.996 6.28625 316.722Z" fill="black" fill-opacity="0.03"/>
<path d="M33.7234 316.722C33.7234 318.448 32.3275 319.847 30.6055 319.847C28.8836 319.847 27.4877 318.448 27.4877 316.722C27.4877 314.996 28.8836 313.597 30.6055 313.597C32.3275 313.597 33.7234 314.996 33.7234 316.722Z" fill="black" fill-opacity="0.03"/>
<path d="M61.1605 316.722C61.1605 318.448 59.7646 319.847 58.0427 319.847C56.3207 319.847 54.9248 318.448 54.9248 316.722C54.9248 314.996 56.3207 313.597 58.0427 313.597C59.7646 313.597 61.1605 314.996 61.1605 316.722Z" fill="black" fill-opacity="0.03"/>
<path d="M86.1034 295.474C86.1034 297.2 84.7075 298.599 82.9855 298.599C81.2636 298.599 79.8677 297.2 79.8677 295.474C79.8677 293.748 81.2636 292.349 82.9855 292.349C84.7075 292.349 86.1034 293.748 86.1034 295.474Z" fill="black" fill-opacity="0.03"/>
<path d="M113.541 295.474C113.541 297.2 112.145 298.599 110.423 298.599C108.701 298.599 107.305 297.2 107.305 295.474C107.305 293.748 108.701 292.349 110.423 292.349C112.145 292.349 113.541 293.748 113.541 295.474Z" fill="black" fill-opacity="0.03"/>
<path d="M140.978 295.474C140.978 297.2 139.582 298.599 137.86 298.599C136.138 298.599 134.742 297.2 134.742 295.474C134.742 293.748 136.138 292.349 137.86 292.349C139.582 292.349 140.978 293.748 140.978 295.474Z" fill="black" fill-opacity="0.03"/>
<path d="M86.1034 274.226C86.1034 275.951 84.7075 277.35 82.9855 277.35C81.2636 277.35 79.8677 275.951 79.8677 274.226C79.8677 272.5 81.2636 271.101 82.9855 271.101C84.7075 271.101 86.1034 272.5 86.1034 274.226Z" fill="black" fill-opacity="0.03"/>
<path d="M113.541 274.226C113.541 275.951 112.145 277.35 110.423 277.35C108.701 277.35 107.305 275.951 107.305 274.226C107.305 272.5 108.701 271.101 110.423 271.101C112.145 271.101 113.541 272.5 113.541 274.226Z" fill="black" fill-opacity="0.03"/>
<path d="M140.978 274.226C140.978 275.951 139.582 277.35 137.86 277.35C136.138 277.35 134.742 275.951 134.742 274.226C134.742 272.5 136.138 271.101 137.86 271.101C139.582 271.101 140.978 272.5 140.978 274.226Z" fill="black" fill-opacity="0.03"/>
<path d="M86.1034 316.722C86.1034 318.448 84.7075 319.847 82.9855 319.847C81.2636 319.847 79.8677 318.448 79.8677 316.722C79.8677 314.996 81.2636 313.597 82.9855 313.597C84.7075 313.597 86.1034 314.996 86.1034 316.722Z" fill="black" fill-opacity="0.03"/>
<path d="M113.541 316.722C113.541 318.448 112.145 319.847 110.423 319.847C108.701 319.847 107.305 318.448 107.305 316.722C107.305 314.996 108.701 313.597 110.423 313.597C112.145 313.597 113.541 314.996 113.541 316.722Z" fill="black" fill-opacity="0.03"/>
<path d="M140.978 316.722C140.978 318.448 139.582 319.847 137.86 319.847C136.138 319.847 134.742 318.448 134.742 316.722C134.742 314.996 136.138 313.597 137.86 313.597C139.582 313.597 140.978 314.996 140.978 316.722Z" fill="black" fill-opacity="0.03"/>
<path d="M6.28625 91.7822C6.28625 93.5079 4.89034 94.9069 3.16839 94.9069C1.44645 94.9069 0.0505371 93.5079 0.0505371 91.7822C0.0505371 90.0565 1.44645 88.6575 3.16839 88.6575C4.89034 88.6575 6.28625 90.0565 6.28625 91.7822Z" fill="black" fill-opacity="0.03"/>
<path d="M33.7234 91.7822C33.7234 93.5079 32.3275 94.9069 30.6055 94.9069C28.8836 94.9069 27.4877 93.5079 27.4877 91.7822C27.4877 90.0565 28.8836 88.6575 30.6055 88.6575C32.3275 88.6575 33.7234 90.0565 33.7234 91.7822Z" fill="black" fill-opacity="0.03"/>
<path d="M61.1605 91.7822C61.1605 93.5079 59.7646 94.9069 58.0427 94.9069C56.3207 94.9069 54.9248 93.5079 54.9248 91.7822C54.9248 90.0565 56.3207 88.6575 58.0427 88.6575C59.7646 88.6575 61.1605 90.0565 61.1605 91.7822Z" fill="black" fill-opacity="0.03"/>
<path d="M6.28625 70.534C6.28625 72.2598 4.89034 73.6588 3.16839 73.6588C1.44645 73.6588 0.0505371 72.2598 0.0505371 70.534C0.0505371 68.8083 1.44645 67.4093 3.16839 67.4093C4.89034 67.4093 6.28625 68.8083 6.28625 70.534Z" fill="black" fill-opacity="0.03"/>
<path d="M33.7234 70.534C33.7234 72.2598 32.3275 73.6588 30.6055 73.6588C28.8836 73.6588 27.4877 72.2598 27.4877 70.534C27.4877 68.8083 28.8836 67.4093 30.6055 67.4093C32.3275 67.4093 33.7234 68.8083 33.7234 70.534Z" fill="black" fill-opacity="0.03"/>
<path d="M61.1605 70.534C61.1605 72.2598 59.7646 73.6588 58.0427 73.6588C56.3207 73.6588 54.9248 72.2598 54.9248 70.534C54.9248 68.8083 56.3207 67.4093 58.0427 67.4093C59.7646 67.4093 61.1605 68.8083 61.1605 70.534Z" fill="black" fill-opacity="0.03"/>
<path d="M6.28625 113.03C6.28625 114.756 4.89034 116.155 3.16839 116.155C1.44645 116.155 0.0505371 114.756 0.0505371 113.03C0.0505371 111.305 1.44645 109.906 3.16839 109.906C4.89034 109.906 6.28625 111.305 6.28625 113.03Z" fill="black" fill-opacity="0.03"/>
<path d="M33.7234 113.03C33.7234 114.756 32.3275 116.155 30.6055 116.155C28.8836 116.155 27.4877 114.756 27.4877 113.03C27.4877 111.305 28.8836 109.906 30.6055 109.906C32.3275 109.906 33.7234 111.305 33.7234 113.03Z" fill="black" fill-opacity="0.03"/>
<path d="M61.1605 113.03C61.1605 114.756 59.7646 116.155 58.0427 116.155C56.3207 116.155 54.9248 114.756 54.9248 113.03C54.9248 111.305 56.3207 109.906 58.0427 109.906C59.7646 109.906 61.1605 111.305 61.1605 113.03Z" fill="black" fill-opacity="0.03"/>
<path d="M86.1034 91.7822C86.1034 93.5079 84.7075 94.9069 82.9855 94.9069C81.2636 94.9069 79.8677 93.5079 79.8677 91.7822C79.8677 90.0565 81.2636 88.6575 82.9855 88.6575C84.7075 88.6575 86.1034 90.0565 86.1034 91.7822Z" fill="black" fill-opacity="0.03"/>
<path d="M113.541 91.7822C113.541 93.5079 112.145 94.9069 110.423 94.9069C108.701 94.9069 107.305 93.5079 107.305 91.7822C107.305 90.0565 108.701 88.6575 110.423 88.6575C112.145 88.6575 113.541 90.0565 113.541 91.7822Z" fill="black" fill-opacity="0.03"/>
<path d="M140.978 91.7822C140.978 93.5079 139.582 94.9069 137.86 94.9069C136.138 94.9069 134.742 93.5079 134.742 91.7822C134.742 90.0565 136.138 88.6575 137.86 88.6575C139.582 88.6575 140.978 90.0565 140.978 91.7822Z" fill="black" fill-opacity="0.03"/>
<path d="M86.1034 70.534C86.1034 72.2598 84.7075 73.6588 82.9855 73.6588C81.2636 73.6588 79.8677 72.2598 79.8677 70.534C79.8677 68.8083 81.2636 67.4093 82.9855 67.4093C84.7075 67.4093 86.1034 68.8083 86.1034 70.534Z" fill="black" fill-opacity="0.03"/>
<path d="M113.541 70.534C113.541 72.2598 112.145 73.6588 110.423 73.6588C108.701 73.6588 107.305 72.2598 107.305 70.534C107.305 68.8083 108.701 67.4093 110.423 67.4093C112.145 67.4093 113.541 68.8083 113.541 70.534Z" fill="black" fill-opacity="0.03"/>
<path d="M140.978 70.534C140.978 72.2598 139.582 73.6588 137.86 73.6588C136.138 73.6588 134.742 72.2598 134.742 70.534C134.742 68.8083 136.138 67.4093 137.86 67.4093C139.582 67.4093 140.978 68.8083 140.978 70.534Z" fill="black" fill-opacity="0.03"/>
<path d="M86.1034 113.03C86.1034 114.756 84.7075 116.155 82.9855 116.155C81.2636 116.155 79.8677 114.756 79.8677 113.03C79.8677 111.305 81.2636 109.906 82.9855 109.906C84.7075 109.906 86.1034 111.305 86.1034 113.03Z" fill="black" fill-opacity="0.03"/>
<path d="M113.541 113.03C113.541 114.756 112.145 116.155 110.423 116.155C108.701 116.155 107.305 114.756 107.305 113.03C107.305 111.305 108.701 109.906 110.423 109.906C112.145 109.906 113.541 111.305 113.541 113.03Z" fill="black" fill-opacity="0.03"/>
<path d="M140.978 113.03C140.978 114.756 139.582 116.155 137.86 116.155C136.138 116.155 134.742 114.756 134.742 113.03C134.742 111.305 136.138 109.906 137.86 109.906C139.582 109.906 140.978 111.305 140.978 113.03Z" fill="black" fill-opacity="0.03"/>
<path d="M6.28625 158.651C6.28625 160.377 4.89034 161.776 3.16839 161.776C1.44645 161.776 0.0505371 160.377 0.0505371 158.651C0.0505371 156.926 1.44645 155.527 3.16839 155.527C4.89034 155.527 6.28625 156.926 6.28625 158.651Z" fill="black" fill-opacity="0.03"/>
<path d="M33.7234 158.651C33.7234 160.377 32.3275 161.776 30.6055 161.776C28.8836 161.776 27.4877 160.377 27.4877 158.651C27.4877 156.926 28.8836 155.527 30.6055 155.527C32.3275 155.527 33.7234 156.926 33.7234 158.651Z" fill="black" fill-opacity="0.03"/>
<path d="M61.1605 158.651C61.1605 160.377 59.7646 161.776 58.0427 161.776C56.3207 161.776 54.9248 160.377 54.9248 158.651C54.9248 156.926 56.3207 155.527 58.0427 155.527C59.7646 155.527 61.1605 156.926 61.1605 158.651Z" fill="black" fill-opacity="0.03"/>
<path d="M6.28625 137.403C6.28625 139.129 4.89034 140.528 3.16839 140.528C1.44645 140.528 0.0505371 139.129 0.0505371 137.403C0.0505371 135.678 1.44645 134.279 3.16839 134.279C4.89034 134.279 6.28625 135.678 6.28625 137.403Z" fill="black" fill-opacity="0.03"/>
<path d="M33.7234 137.403C33.7234 139.129 32.3275 140.528 30.6055 140.528C28.8836 140.528 27.4877 139.129 27.4877 137.403C27.4877 135.678 28.8836 134.279 30.6055 134.279C32.3275 134.279 33.7234 135.678 33.7234 137.403Z" fill="black" fill-opacity="0.03"/>
<path d="M61.1605 137.403C61.1605 139.129 59.7646 140.528 58.0427 140.528C56.3207 140.528 54.9248 139.129 54.9248 137.403C54.9248 135.678 56.3207 134.279 58.0427 134.279C59.7646 134.279 61.1605 135.678 61.1605 137.403Z" fill="black" fill-opacity="0.03"/>
<path d="M6.28625 179.9C6.28625 181.625 4.89034 183.024 3.16839 183.024C1.44645 183.024 0.0505371 181.625 0.0505371 179.9C0.0505371 178.174 1.44645 176.775 3.16839 176.775C4.89034 176.775 6.28625 178.174 6.28625 179.9Z" fill="black" fill-opacity="0.03"/>
<path d="M33.7234 179.9C33.7234 181.625 32.3275 183.024 30.6055 183.024C28.8836 183.024 27.4877 181.625 27.4877 179.9C27.4877 178.174 28.8836 176.775 30.6055 176.775C32.3275 176.775 33.7234 178.174 33.7234 179.9Z" fill="black" fill-opacity="0.03"/>
<path d="M61.1605 179.9C61.1605 181.625 59.7646 183.024 58.0427 183.024C56.3207 183.024 54.9248 181.625 54.9248 179.9C54.9248 178.174 56.3207 176.775 58.0427 176.775C59.7646 176.775 61.1605 178.174 61.1605 179.9Z" fill="black" fill-opacity="0.03"/>
<path d="M86.1034 158.651C86.1034 160.377 84.7075 161.776 82.9855 161.776C81.2636 161.776 79.8677 160.377 79.8677 158.651C79.8677 156.926 81.2636 155.527 82.9855 155.527C84.7075 155.527 86.1034 156.926 86.1034 158.651Z" fill="black" fill-opacity="0.03"/>
<path d="M113.541 158.651C113.541 160.377 112.145 161.776 110.423 161.776C108.701 161.776 107.305 160.377 107.305 158.651C107.305 156.926 108.701 155.527 110.423 155.527C112.145 155.527 113.541 156.926 113.541 158.651Z" fill="black" fill-opacity="0.03"/>
<path d="M140.978 158.651C140.978 160.377 139.582 161.776 137.86 161.776C136.138 161.776 134.742 160.377 134.742 158.651C134.742 156.926 136.138 155.527 137.86 155.527C139.582 155.527 140.978 156.926 140.978 158.651Z" fill="black" fill-opacity="0.03"/>
<path d="M86.1034 137.403C86.1034 139.129 84.7075 140.528 82.9855 140.528C81.2636 140.528 79.8677 139.129 79.8677 137.403C79.8677 135.678 81.2636 134.279 82.9855 134.279C84.7075 134.279 86.1034 135.678 86.1034 137.403Z" fill="black" fill-opacity="0.03"/>
<path d="M113.541 137.403C113.541 139.129 112.145 140.528 110.423 140.528C108.701 140.528 107.305 139.129 107.305 137.403C107.305 135.678 108.701 134.279 110.423 134.279C112.145 134.279 113.541 135.678 113.541 137.403Z" fill="black" fill-opacity="0.03"/>
<path d="M140.978 137.403C140.978 139.129 139.582 140.528 137.86 140.528C136.138 140.528 134.742 139.129 134.742 137.403C134.742 135.678 136.138 134.279 137.86 134.279C139.582 134.279 140.978 135.678 140.978 137.403Z" fill="black" fill-opacity="0.03"/>
<path d="M86.1034 179.9C86.1034 181.625 84.7075 183.024 82.9855 183.024C81.2636 183.024 79.8677 181.625 79.8677 179.9C79.8677 178.174 81.2636 176.775 82.9855 176.775C84.7075 176.775 86.1034 178.174 86.1034 179.9Z" fill="black" fill-opacity="0.03"/>
<path d="M113.541 179.9C113.541 181.625 112.145 183.024 110.423 183.024C108.701 183.024 107.305 181.625 107.305 179.9C107.305 178.174 108.701 176.775 110.423 176.775C112.145 176.775 113.541 178.174 113.541 179.9Z" fill="black" fill-opacity="0.03"/>
<path d="M140.978 179.9C140.978 181.625 139.582 183.024 137.86 183.024C136.138 183.024 134.742 181.625 134.742 179.9C134.742 178.174 136.138 176.775 137.86 176.775C139.582 176.775 140.978 178.174 140.978 179.9Z" fill="black" fill-opacity="0.03"/>
<path d="M6.28625 24.7392C6.28625 26.465 4.89034 27.8639 3.16839 27.8639C1.44645 27.8639 0.0505371 26.465 0.0505371 24.7392C0.0505371 23.0135 1.44645 21.6145 3.16839 21.6145C4.89034 21.6145 6.28625 23.0135 6.28625 24.7392Z" fill="black" fill-opacity="0.03"/>
<path d="M33.7234 24.7392C33.7234 26.465 32.3275 27.8639 30.6055 27.8639C28.8836 27.8639 27.4877 26.465 27.4877 24.7392C27.4877 23.0135 28.8836 21.6145 30.6055 21.6145C32.3275 21.6145 33.7234 23.0135 33.7234 24.7392Z" fill="black" fill-opacity="0.03"/>
<path d="M61.1605 24.7392C61.1605 26.465 59.7646 27.8639 58.0427 27.8639C56.3207 27.8639 54.9248 26.465 54.9248 24.7392C54.9248 23.0135 56.3207 21.6145 58.0427 21.6145C59.7646 21.6145 61.1605 23.0135 61.1605 24.7392Z" fill="black" fill-opacity="0.03"/>
<path d="M6.28625 3.49106C6.28625 5.2168 4.89034 6.61579 3.16839 6.61579C1.44645 6.61579 0.0505371 5.2168 0.0505371 3.49106C0.0505371 1.76532 1.44645 0.366333 3.16839 0.366333C4.89034 0.366333 6.28625 1.76532 6.28625 3.49106Z" fill="black" fill-opacity="0.03"/>
<path d="M33.7234 3.49106C33.7234 5.2168 32.3275 6.61579 30.6055 6.61579C28.8836 6.61579 27.4877 5.2168 27.4877 3.49106C27.4877 1.76532 28.8836 0.366333 30.6055 0.366333C32.3275 0.366333 33.7234 1.76532 33.7234 3.49106Z" fill="black" fill-opacity="0.03"/>
<path d="M61.1605 3.49106C61.1605 5.2168 59.7646 6.61579 58.0427 6.61579C56.3207 6.61579 54.9248 5.2168 54.9248 3.49106C54.9248 1.76532 56.3207 0.366333 58.0427 0.366333C59.7646 0.366333 61.1605 1.76532 61.1605 3.49106Z" fill="black" fill-opacity="0.03"/>
<path d="M6.28625 45.9874C6.28625 47.7131 4.89034 49.1121 3.16839 49.1121C1.44645 49.1121 0.0505371 47.7131 0.0505371 45.9874C0.0505371 44.2616 1.44645 42.8626 3.16839 42.8626C4.89034 42.8626 6.28625 44.2616 6.28625 45.9874Z" fill="black" fill-opacity="0.03"/>
<path d="M33.7234 45.9874C33.7234 47.7131 32.3275 49.1121 30.6055 49.1121C28.8836 49.1121 27.4877 47.7131 27.4877 45.9874C27.4877 44.2616 28.8836 42.8626 30.6055 42.8626C32.3275 42.8626 33.7234 44.2616 33.7234 45.9874Z" fill="black" fill-opacity="0.03"/>
<path d="M61.1605 45.9874C61.1605 47.7131 59.7646 49.1121 58.0427 49.1121C56.3207 49.1121 54.9248 47.7131 54.9248 45.9874C54.9248 44.2616 56.3207 42.8626 58.0427 42.8626C59.7646 42.8626 61.1605 44.2616 61.1605 45.9874Z" fill="black" fill-opacity="0.03"/>
<path d="M86.1034 24.7392C86.1034 26.465 84.7075 27.8639 82.9855 27.8639C81.2636 27.8639 79.8677 26.465 79.8677 24.7392C79.8677 23.0135 81.2636 21.6145 82.9855 21.6145C84.7075 21.6145 86.1034 23.0135 86.1034 24.7392Z" fill="black" fill-opacity="0.03"/>
<path d="M113.541 24.7392C113.541 26.465 112.145 27.8639 110.423 27.8639C108.701 27.8639 107.305 26.465 107.305 24.7392C107.305 23.0135 108.701 21.6145 110.423 21.6145C112.145 21.6145 113.541 23.0135 113.541 24.7392Z" fill="black" fill-opacity="0.03"/>
<path d="M140.978 24.7392C140.978 26.465 139.582 27.8639 137.86 27.8639C136.138 27.8639 134.742 26.465 134.742 24.7392C134.742 23.0135 136.138 21.6145 137.86 21.6145C139.582 21.6145 140.978 23.0135 140.978 24.7392Z" fill="black" fill-opacity="0.03"/>
<path d="M86.1034 3.49106C86.1034 5.2168 84.7075 6.61579 82.9855 6.61579C81.2636 6.61579 79.8677 5.2168 79.8677 3.49106C79.8677 1.76532 81.2636 0.366333 82.9855 0.366333C84.7075 0.366333 86.1034 1.76532 86.1034 3.49106Z" fill="black" fill-opacity="0.03"/>
<path d="M113.541 3.49106C113.541 5.2168 112.145 6.61579 110.423 6.61579C108.701 6.61579 107.305 5.2168 107.305 3.49106C107.305 1.76532 108.701 0.366333 110.423 0.366333C112.145 0.366333 113.541 1.76532 113.541 3.49106Z" fill="black" fill-opacity="0.03"/>
<path d="M140.978 3.49106C140.978 5.2168 139.582 6.61579 137.86 6.61579C136.138 6.61579 134.742 5.2168 134.742 3.49106C134.742 1.76532 136.138 0.366333 137.86 0.366333C139.582 0.366333 140.978 1.76532 140.978 3.49106Z" fill="black" fill-opacity="0.03"/>
<path d="M86.1034 45.9874C86.1034 47.7131 84.7075 49.1121 82.9855 49.1121C81.2636 49.1121 79.8677 47.7131 79.8677 45.9874C79.8677 44.2616 81.2636 42.8626 82.9855 42.8626C84.7075 42.8626 86.1034 44.2616 86.1034 45.9874Z" fill="black" fill-opacity="0.03"/>
<path d="M113.541 45.9874C113.541 47.7131 112.145 49.1121 110.423 49.1121C108.701 49.1121 107.305 47.7131 107.305 45.9874C107.305 44.2616 108.701 42.8626 110.423 42.8626C112.145 42.8626 113.541 44.2616 113.541 45.9874Z" fill="black" fill-opacity="0.03"/>
<path d="M140.978 45.9874C140.978 47.7131 139.582 49.1121 137.86 49.1121C136.138 49.1121 134.742 47.7131 134.742 45.9874C134.742 44.2616 136.138 42.8626 137.86 42.8626C139.582 42.8626 140.978 44.2616 140.978 45.9874Z" fill="black" fill-opacity="0.03"/>
<path d="M6.28625 91.6084C6.28625 93.3341 4.89034 94.7331 3.16839 94.7331C1.44645 94.7331 0.0505371 93.3341 0.0505371 91.6084C0.0505371 89.8827 1.44645 88.4837 3.16839 88.4837C4.89034 88.4837 6.28625 89.8827 6.28625 91.6084Z" fill="black" fill-opacity="0.03"/>
<path d="M33.7234 91.6084C33.7234 93.3341 32.3275 94.7331 30.6055 94.7331C28.8836 94.7331 27.4877 93.3341 27.4877 91.6084C27.4877 89.8827 28.8836 88.4837 30.6055 88.4837C32.3275 88.4837 33.7234 89.8827 33.7234 91.6084Z" fill="black" fill-opacity="0.03"/>
<path d="M61.1605 91.6084C61.1605 93.3341 59.7646 94.7331 58.0427 94.7331C56.3207 94.7331 54.9248 93.3341 54.9248 91.6084C54.9248 89.8827 56.3207 88.4837 58.0427 88.4837C59.7646 88.4837 61.1605 89.8827 61.1605 91.6084Z" fill="black" fill-opacity="0.03"/>
<path d="M6.28625 70.3603C6.28625 72.086 4.89034 73.485 3.16839 73.485C1.44645 73.485 0.0505371 72.086 0.0505371 70.3603C0.0505371 68.6345 1.44645 67.2355 3.16839 67.2355C4.89034 67.2355 6.28625 68.6345 6.28625 70.3603Z" fill="black" fill-opacity="0.03"/>
<path d="M33.7234 70.3603C33.7234 72.086 32.3275 73.485 30.6055 73.485C28.8836 73.485 27.4877 72.086 27.4877 70.3603C27.4877 68.6345 28.8836 67.2355 30.6055 67.2355C32.3275 67.2355 33.7234 68.6345 33.7234 70.3603Z" fill="black" fill-opacity="0.03"/>
<path d="M61.1605 70.3603C61.1605 72.086 59.7646 73.485 58.0427 73.485C56.3207 73.485 54.9248 72.086 54.9248 70.3603C54.9248 68.6345 56.3207 67.2355 58.0427 67.2355C59.7646 67.2355 61.1605 68.6345 61.1605 70.3603Z" fill="black" fill-opacity="0.03"/>
<path d="M6.28625 112.857C6.28625 114.582 4.89034 115.981 3.16839 115.981C1.44645 115.981 0.0505371 114.582 0.0505371 112.857C0.0505371 111.131 1.44645 109.732 3.16839 109.732C4.89034 109.732 6.28625 111.131 6.28625 112.857Z" fill="black" fill-opacity="0.03"/>
<path d="M33.7234 112.857C33.7234 114.582 32.3275 115.981 30.6055 115.981C28.8836 115.981 27.4877 114.582 27.4877 112.857C27.4877 111.131 28.8836 109.732 30.6055 109.732C32.3275 109.732 33.7234 111.131 33.7234 112.857Z" fill="black" fill-opacity="0.03"/>
<path d="M61.1605 112.857C61.1605 114.582 59.7646 115.981 58.0427 115.981C56.3207 115.981 54.9248 114.582 54.9248 112.857C54.9248 111.131 56.3207 109.732 58.0427 109.732C59.7646 109.732 61.1605 111.131 61.1605 112.857Z" fill="black" fill-opacity="0.03"/>
<path d="M86.1034 91.6084C86.1034 93.3341 84.7075 94.7331 82.9855 94.7331C81.2636 94.7331 79.8677 93.3341 79.8677 91.6084C79.8677 89.8827 81.2636 88.4837 82.9855 88.4837C84.7075 88.4837 86.1034 89.8827 86.1034 91.6084Z" fill="black" fill-opacity="0.03"/>
<path d="M113.541 91.6084C113.541 93.3341 112.145 94.7331 110.423 94.7331C108.701 94.7331 107.305 93.3341 107.305 91.6084C107.305 89.8827 108.701 88.4837 110.423 88.4837C112.145 88.4837 113.541 89.8827 113.541 91.6084Z" fill="black" fill-opacity="0.03"/>
<path d="M140.978 91.6084C140.978 93.3341 139.582 94.7331 137.86 94.7331C136.138 94.7331 134.742 93.3341 134.742 91.6084C134.742 89.8827 136.138 88.4837 137.86 88.4837C139.582 88.4837 140.978 89.8827 140.978 91.6084Z" fill="black" fill-opacity="0.03"/>
<path d="M86.1034 70.3603C86.1034 72.086 84.7075 73.485 82.9855 73.485C81.2636 73.485 79.8677 72.086 79.8677 70.3603C79.8677 68.6345 81.2636 67.2355 82.9855 67.2355C84.7075 67.2355 86.1034 68.6345 86.1034 70.3603Z" fill="black" fill-opacity="0.03"/>
<path d="M113.541 70.3603C113.541 72.086 112.145 73.485 110.423 73.485C108.701 73.485 107.305 72.086 107.305 70.3603C107.305 68.6345 108.701 67.2355 110.423 67.2355C112.145 67.2355 113.541 68.6345 113.541 70.3603Z" fill="black" fill-opacity="0.03"/>
<path d="M140.978 70.3603C140.978 72.086 139.582 73.485 137.86 73.485C136.138 73.485 134.742 72.086 134.742 70.3603C134.742 68.6345 136.138 67.2355 137.86 67.2355C139.582 67.2355 140.978 68.6345 140.978 70.3603Z" fill="black" fill-opacity="0.03"/>
<path d="M86.1034 112.857C86.1034 114.582 84.7075 115.981 82.9855 115.981C81.2636 115.981 79.8677 114.582 79.8677 112.857C79.8677 111.131 81.2636 109.732 82.9855 109.732C84.7075 109.732 86.1034 111.131 86.1034 112.857Z" fill="black" fill-opacity="0.03"/>
<path d="M113.541 112.857C113.541 114.582 112.145 115.981 110.423 115.981C108.701 115.981 107.305 114.582 107.305 112.857C107.305 111.131 108.701 109.732 110.423 109.732C112.145 109.732 113.541 111.131 113.541 112.857Z" fill="black" fill-opacity="0.03"/>
<path d="M140.978 112.857C140.978 114.582 139.582 115.981 137.86 115.981C136.138 115.981 134.742 114.582 134.742 112.857C134.742 111.131 136.138 109.732 137.86 109.732C139.582 109.732 140.978 111.131 140.978 112.857Z" fill="black" fill-opacity="0.03"/>
<path d="M174.578 24.7392C174.578 26.465 173.182 27.8639 171.46 27.8639C169.738 27.8639 168.342 26.465 168.342 24.7392C168.342 23.0135 169.738 21.6145 171.46 21.6145C173.182 21.6145 174.578 23.0135 174.578 24.7392Z" fill="black" fill-opacity="0.03"/>
<path d="M202.015 24.7392C202.015 26.465 200.619 27.8639 198.897 27.8639C197.175 27.8639 195.779 26.465 195.779 24.7392C195.779 23.0135 197.175 21.6145 198.897 21.6145C200.619 21.6145 202.015 23.0135 202.015 24.7392Z" fill="black" fill-opacity="0.03"/>
<path d="M229.452 24.7392C229.452 26.465 228.056 27.8639 226.334 27.8639C224.612 27.8639 223.216 26.465 223.216 24.7392C223.216 23.0135 224.612 21.6145 226.334 21.6145C228.056 21.6145 229.452 23.0135 229.452 24.7392Z" fill="black" fill-opacity="0.03"/>
<path d="M174.578 3.49106C174.578 5.2168 173.182 6.61579 171.46 6.61579C169.738 6.61579 168.342 5.2168 168.342 3.49106C168.342 1.76532 169.738 0.366333 171.46 0.366333C173.182 0.366333 174.578 1.76532 174.578 3.49106Z" fill="black" fill-opacity="0.03"/>
<path d="M202.015 3.49106C202.015 5.2168 200.619 6.61579 198.897 6.61579C197.175 6.61579 195.779 5.2168 195.779 3.49106C195.779 1.76532 197.175 0.366333 198.897 0.366333C200.619 0.366333 202.015 1.76532 202.015 3.49106Z" fill="black" fill-opacity="0.03"/>
<path d="M229.452 3.49106C229.452 5.2168 228.056 6.61579 226.334 6.61579C224.612 6.61579 223.216 5.2168 223.216 3.49106C223.216 1.76532 224.612 0.366333 226.334 0.366333C228.056 0.366333 229.452 1.76532 229.452 3.49106Z" fill="black" fill-opacity="0.03"/>
<path d="M174.578 45.9874C174.578 47.7131 173.182 49.1121 171.46 49.1121C169.738 49.1121 168.342 47.7131 168.342 45.9874C168.342 44.2616 169.738 42.8626 171.46 42.8626C173.182 42.8626 174.578 44.2616 174.578 45.9874Z" fill="black" fill-opacity="0.03"/>
<path d="M202.015 45.9874C202.015 47.7131 200.619 49.1121 198.897 49.1121C197.175 49.1121 195.779 47.7131 195.779 45.9874C195.779 44.2616 197.175 42.8626 198.897 42.8626C200.619 42.8626 202.015 44.2616 202.015 45.9874Z" fill="black" fill-opacity="0.03"/>
<path d="M229.452 45.9874C229.452 47.7131 228.056 49.1121 226.334 49.1121C224.612 49.1121 223.216 47.7131 223.216 45.9874C223.216 44.2616 224.612 42.8626 226.334 42.8626C228.056 42.8626 229.452 44.2616 229.452 45.9874Z" fill="black" fill-opacity="0.03"/>
<path d="M254.395 24.7392C254.395 26.465 252.999 27.8639 251.277 27.8639C249.555 27.8639 248.159 26.465 248.159 24.7392C248.159 23.0135 249.555 21.6145 251.277 21.6145C252.999 21.6145 254.395 23.0135 254.395 24.7392Z" fill="black" fill-opacity="0.03"/>
<path d="M281.832 24.7392C281.832 26.465 280.436 27.8639 278.714 27.8639C276.992 27.8639 275.596 26.465 275.596 24.7392C275.596 23.0135 276.992 21.6145 278.714 21.6145C280.436 21.6145 281.832 23.0135 281.832 24.7392Z" fill="black" fill-opacity="0.03"/>
<path d="M309.269 24.7392C309.269 26.465 307.873 27.8639 306.151 27.8639C304.429 27.8639 303.034 26.465 303.034 24.7392C303.034 23.0135 304.429 21.6145 306.151 21.6145C307.873 21.6145 309.269 23.0135 309.269 24.7392Z" fill="black" fill-opacity="0.03"/>
<path d="M254.395 3.49106C254.395 5.2168 252.999 6.61579 251.277 6.61579C249.555 6.61579 248.159 5.2168 248.159 3.49106C248.159 1.76532 249.555 0.366333 251.277 0.366333C252.999 0.366333 254.395 1.76532 254.395 3.49106Z" fill="black" fill-opacity="0.03"/>
<path d="M281.832 3.49106C281.832 5.2168 280.436 6.61579 278.714 6.61579C276.992 6.61579 275.596 5.2168 275.596 3.49106C275.596 1.76532 276.992 0.366333 278.714 0.366333C280.436 0.366333 281.832 1.76532 281.832 3.49106Z" fill="black" fill-opacity="0.03"/>
<path d="M309.269 3.49106C309.269 5.2168 307.873 6.61579 306.151 6.61579C304.429 6.61579 303.034 5.2168 303.034 3.49106C303.034 1.76532 304.429 0.366333 306.151 0.366333C307.873 0.366333 309.269 1.76532 309.269 3.49106Z" fill="black" fill-opacity="0.03"/>
<path d="M254.395 45.9874C254.395 47.7131 252.999 49.1121 251.277 49.1121C249.555 49.1121 248.159 47.7131 248.159 45.9874C248.159 44.2616 249.555 42.8626 251.277 42.8626C252.999 42.8626 254.395 44.2616 254.395 45.9874Z" fill="black" fill-opacity="0.03"/>
<path d="M281.832 45.9874C281.832 47.7131 280.436 49.1121 278.714 49.1121C276.992 49.1121 275.596 47.7131 275.596 45.9874C275.596 44.2616 276.992 42.8626 278.714 42.8626C280.436 42.8626 281.832 44.2616 281.832 45.9874Z" fill="black" fill-opacity="0.03"/>
<path d="M309.269 45.9874C309.269 47.7131 307.873 49.1121 306.151 49.1121C304.429 49.1121 303.034 47.7131 303.034 45.9874C303.034 44.2616 304.429 42.8626 306.151 42.8626C307.873 42.8626 309.269 44.2616 309.269 45.9874Z" fill="black" fill-opacity="0.03"/>
<path d="M174.578 91.6084C174.578 93.3341 173.182 94.7331 171.46 94.7331C169.738 94.7331 168.342 93.3341 168.342 91.6084C168.342 89.8827 169.738 88.4837 171.46 88.4837C173.182 88.4837 174.578 89.8827 174.578 91.6084Z" fill="black" fill-opacity="0.03"/>
<path d="M202.015 91.6084C202.015 93.3341 200.619 94.7331 198.897 94.7331C197.175 94.7331 195.779 93.3341 195.779 91.6084C195.779 89.8827 197.175 88.4837 198.897 88.4837C200.619 88.4837 202.015 89.8827 202.015 91.6084Z" fill="black" fill-opacity="0.03"/>
<path d="M229.452 91.6084C229.452 93.3341 228.056 94.7331 226.334 94.7331C224.612 94.7331 223.216 93.3341 223.216 91.6084C223.216 89.8827 224.612 88.4837 226.334 88.4837C228.056 88.4837 229.452 89.8827 229.452 91.6084Z" fill="black" fill-opacity="0.03"/>
<path d="M174.578 70.3603C174.578 72.086 173.182 73.485 171.46 73.485C169.738 73.485 168.342 72.086 168.342 70.3603C168.342 68.6345 169.738 67.2355 171.46 67.2355C173.182 67.2355 174.578 68.6345 174.578 70.3603Z" fill="black" fill-opacity="0.03"/>
<path d="M202.015 70.3603C202.015 72.086 200.619 73.485 198.897 73.485C197.175 73.485 195.779 72.086 195.779 70.3603C195.779 68.6345 197.175 67.2355 198.897 67.2355C200.619 67.2355 202.015 68.6345 202.015 70.3603Z" fill="black" fill-opacity="0.03"/>
<path d="M229.452 70.3603C229.452 72.086 228.056 73.485 226.334 73.485C224.612 73.485 223.216 72.086 223.216 70.3603C223.216 68.6345 224.612 67.2355 226.334 67.2355C228.056 67.2355 229.452 68.6345 229.452 70.3603Z" fill="black" fill-opacity="0.03"/>
<path d="M174.578 112.857C174.578 114.582 173.182 115.981 171.46 115.981C169.738 115.981 168.342 114.582 168.342 112.857C168.342 111.131 169.738 109.732 171.46 109.732C173.182 109.732 174.578 111.131 174.578 112.857Z" fill="black" fill-opacity="0.03"/>
<path d="M202.015 112.857C202.015 114.582 200.619 115.981 198.897 115.981C197.175 115.981 195.779 114.582 195.779 112.857C195.779 111.131 197.175 109.732 198.897 109.732C200.619 109.732 202.015 111.131 202.015 112.857Z" fill="black" fill-opacity="0.03"/>
<path d="M229.452 112.857C229.452 114.582 228.056 115.981 226.334 115.981C224.612 115.981 223.216 114.582 223.216 112.857C223.216 111.131 224.612 109.732 226.334 109.732C228.056 109.732 229.452 111.131 229.452 112.857Z" fill="black" fill-opacity="0.03"/>
<path d="M254.395 91.6084C254.395 93.3341 252.999 94.7331 251.277 94.7331C249.555 94.7331 248.159 93.3341 248.159 91.6084C248.159 89.8827 249.555 88.4837 251.277 88.4837C252.999 88.4837 254.395 89.8827 254.395 91.6084Z" fill="black" fill-opacity="0.03"/>
<path d="M281.832 91.6084C281.832 93.3341 280.436 94.7331 278.714 94.7331C276.992 94.7331 275.596 93.3341 275.596 91.6084C275.596 89.8827 276.992 88.4837 278.714 88.4837C280.436 88.4837 281.832 89.8827 281.832 91.6084Z" fill="black" fill-opacity="0.03"/>
<path d="M309.269 91.6084C309.269 93.3341 307.873 94.7331 306.151 94.7331C304.429 94.7331 303.034 93.3341 303.034 91.6084C303.034 89.8827 304.429 88.4837 306.151 88.4837C307.873 88.4837 309.269 89.8827 309.269 91.6084Z" fill="black" fill-opacity="0.03"/>
<path d="M254.395 70.3603C254.395 72.086 252.999 73.485 251.277 73.485C249.555 73.485 248.159 72.086 248.159 70.3603C248.159 68.6345 249.555 67.2355 251.277 67.2355C252.999 67.2355 254.395 68.6345 254.395 70.3603Z" fill="black" fill-opacity="0.03"/>
<path d="M281.832 70.3603C281.832 72.086 280.436 73.485 278.714 73.485C276.992 73.485 275.596 72.086 275.596 70.3603C275.596 68.6345 276.992 67.2355 278.714 67.2355C280.436 67.2355 281.832 68.6345 281.832 70.3603Z" fill="black" fill-opacity="0.03"/>
<path d="M309.269 70.3603C309.269 72.086 307.873 73.485 306.151 73.485C304.429 73.485 303.034 72.086 303.034 70.3603C303.034 68.6345 304.429 67.2355 306.151 67.2355C307.873 67.2355 309.269 68.6345 309.269 70.3603Z" fill="black" fill-opacity="0.03"/>
<path d="M254.395 112.857C254.395 114.582 252.999 115.981 251.277 115.981C249.555 115.981 248.159 114.582 248.159 112.857C248.159 111.131 249.555 109.732 251.277 109.732C252.999 109.732 254.395 111.131 254.395 112.857Z" fill="black" fill-opacity="0.03"/>
<path d="M281.832 112.857C281.832 114.582 280.436 115.981 278.714 115.981C276.992 115.981 275.596 114.582 275.596 112.857C275.596 111.131 276.992 109.732 278.714 109.732C280.436 109.732 281.832 111.131 281.832 112.857Z" fill="black" fill-opacity="0.03"/>
<path d="M309.269 112.857C309.269 114.582 307.873 115.981 306.151 115.981C304.429 115.981 303.034 114.582 303.034 112.857C303.034 111.131 304.429 109.732 306.151 109.732C307.873 109.732 309.269 111.131 309.269 112.857Z" fill="black" fill-opacity="0.03"/>
<path d="M174.578 91.7822C174.578 93.5079 173.182 94.9069 171.46 94.9069C169.738 94.9069 168.342 93.5079 168.342 91.7822C168.342 90.0565 169.738 88.6575 171.46 88.6575C173.182 88.6575 174.578 90.0565 174.578 91.7822Z" fill="black" fill-opacity="0.03"/>
<path d="M202.015 91.7822C202.015 93.5079 200.619 94.9069 198.897 94.9069C197.175 94.9069 195.779 93.5079 195.779 91.7822C195.779 90.0565 197.175 88.6575 198.897 88.6575C200.619 88.6575 202.015 90.0565 202.015 91.7822Z" fill="black" fill-opacity="0.03"/>
<path d="M229.452 91.7822C229.452 93.5079 228.056 94.9069 226.334 94.9069C224.612 94.9069 223.216 93.5079 223.216 91.7822C223.216 90.0565 224.612 88.6575 226.334 88.6575C228.056 88.6575 229.452 90.0565 229.452 91.7822Z" fill="black" fill-opacity="0.03"/>
<path d="M174.578 70.534C174.578 72.2598 173.182 73.6588 171.46 73.6588C169.738 73.6588 168.342 72.2598 168.342 70.534C168.342 68.8083 169.738 67.4093 171.46 67.4093C173.182 67.4093 174.578 68.8083 174.578 70.534Z" fill="black" fill-opacity="0.03"/>
<path d="M202.015 70.534C202.015 72.2598 200.619 73.6588 198.897 73.6588C197.175 73.6588 195.779 72.2598 195.779 70.534C195.779 68.8083 197.175 67.4093 198.897 67.4093C200.619 67.4093 202.015 68.8083 202.015 70.534Z" fill="black" fill-opacity="0.03"/>
<path d="M229.452 70.534C229.452 72.2598 228.056 73.6588 226.334 73.6588C224.612 73.6588 223.216 72.2598 223.216 70.534C223.216 68.8083 224.612 67.4093 226.334 67.4093C228.056 67.4093 229.452 68.8083 229.452 70.534Z" fill="black" fill-opacity="0.03"/>
<path d="M174.578 113.03C174.578 114.756 173.182 116.155 171.46 116.155C169.738 116.155 168.342 114.756 168.342 113.03C168.342 111.305 169.738 109.906 171.46 109.906C173.182 109.906 174.578 111.305 174.578 113.03Z" fill="black" fill-opacity="0.03"/>
<path d="M202.015 113.03C202.015 114.756 200.619 116.155 198.897 116.155C197.175 116.155 195.779 114.756 195.779 113.03C195.779 111.305 197.175 109.906 198.897 109.906C200.619 109.906 202.015 111.305 202.015 113.03Z" fill="black" fill-opacity="0.03"/>
<path d="M229.452 113.03C229.452 114.756 228.056 116.155 226.334 116.155C224.612 116.155 223.216 114.756 223.216 113.03C223.216 111.305 224.612 109.906 226.334 109.906C228.056 109.906 229.452 111.305 229.452 113.03Z" fill="black" fill-opacity="0.03"/>
<path d="M254.395 91.7822C254.395 93.5079 252.999 94.9069 251.277 94.9069C249.555 94.9069 248.159 93.5079 248.159 91.7822C248.159 90.0565 249.555 88.6575 251.277 88.6575C252.999 88.6575 254.395 90.0565 254.395 91.7822Z" fill="black" fill-opacity="0.03"/>
<path d="M281.832 91.7822C281.832 93.5079 280.436 94.9069 278.714 94.9069C276.992 94.9069 275.596 93.5079 275.596 91.7822C275.596 90.0565 276.992 88.6575 278.714 88.6575C280.436 88.6575 281.832 90.0565 281.832 91.7822Z" fill="black" fill-opacity="0.03"/>
<path d="M309.269 91.7822C309.269 93.5079 307.873 94.9069 306.151 94.9069C304.429 94.9069 303.034 93.5079 303.034 91.7822C303.034 90.0565 304.429 88.6575 306.151 88.6575C307.873 88.6575 309.269 90.0565 309.269 91.7822Z" fill="black" fill-opacity="0.03"/>
<path d="M254.395 70.534C254.395 72.2598 252.999 73.6588 251.277 73.6588C249.555 73.6588 248.159 72.2598 248.159 70.534C248.159 68.8083 249.555 67.4093 251.277 67.4093C252.999 67.4093 254.395 68.8083 254.395 70.534Z" fill="black" fill-opacity="0.03"/>
<path d="M281.832 70.534C281.832 72.2598 280.436 73.6588 278.714 73.6588C276.992 73.6588 275.596 72.2598 275.596 70.534C275.596 68.8083 276.992 67.4093 278.714 67.4093C280.436 67.4093 281.832 68.8083 281.832 70.534Z" fill="black" fill-opacity="0.03"/>
<path d="M309.269 70.534C309.269 72.2598 307.873 73.6588 306.151 73.6588C304.429 73.6588 303.034 72.2598 303.034 70.534C303.034 68.8083 304.429 67.4093 306.151 67.4093C307.873 67.4093 309.269 68.8083 309.269 70.534Z" fill="black" fill-opacity="0.03"/>
<path d="M254.395 113.03C254.395 114.756 252.999 116.155 251.277 116.155C249.555 116.155 248.159 114.756 248.159 113.03C248.159 111.305 249.555 109.906 251.277 109.906C252.999 109.906 254.395 111.305 254.395 113.03Z" fill="black" fill-opacity="0.03"/>
<path d="M281.832 113.03C281.832 114.756 280.436 116.155 278.714 116.155C276.992 116.155 275.596 114.756 275.596 113.03C275.596 111.305 276.992 109.906 278.714 109.906C280.436 109.906 281.832 111.305 281.832 113.03Z" fill="black" fill-opacity="0.03"/>
<path d="M309.269 113.03C309.269 114.756 307.873 116.155 306.151 116.155C304.429 116.155 303.034 114.756 303.034 113.03C303.034 111.305 304.429 109.906 306.151 109.906C307.873 109.906 309.269 111.305 309.269 113.03Z" fill="black" fill-opacity="0.03"/>
<path d="M174.578 158.651C174.578 160.377 173.182 161.776 171.46 161.776C169.738 161.776 168.342 160.377 168.342 158.651C168.342 156.926 169.738 155.527 171.46 155.527C173.182 155.527 174.578 156.926 174.578 158.651Z" fill="black" fill-opacity="0.03"/>
<path d="M202.015 158.651C202.015 160.377 200.619 161.776 198.897 161.776C197.175 161.776 195.779 160.377 195.779 158.651C195.779 156.926 197.175 155.527 198.897 155.527C200.619 155.527 202.015 156.926 202.015 158.651Z" fill="black" fill-opacity="0.03"/>
<path d="M229.452 158.651C229.452 160.377 228.056 161.776 226.334 161.776C224.612 161.776 223.216 160.377 223.216 158.651C223.216 156.926 224.612 155.527 226.334 155.527C228.056 155.527 229.452 156.926 229.452 158.651Z" fill="black" fill-opacity="0.03"/>
<path d="M174.578 137.403C174.578 139.129 173.182 140.528 171.46 140.528C169.738 140.528 168.342 139.129 168.342 137.403C168.342 135.678 169.738 134.279 171.46 134.279C173.182 134.279 174.578 135.678 174.578 137.403Z" fill="black" fill-opacity="0.03"/>
<path d="M202.015 137.403C202.015 139.129 200.619 140.528 198.897 140.528C197.175 140.528 195.779 139.129 195.779 137.403C195.779 135.678 197.175 134.279 198.897 134.279C200.619 134.279 202.015 135.678 202.015 137.403Z" fill="black" fill-opacity="0.03"/>
<path d="M229.452 137.403C229.452 139.129 228.056 140.528 226.334 140.528C224.612 140.528 223.216 139.129 223.216 137.403C223.216 135.678 224.612 134.279 226.334 134.279C228.056 134.279 229.452 135.678 229.452 137.403Z" fill="black" fill-opacity="0.03"/>
<path d="M174.578 179.9C174.578 181.625 173.182 183.024 171.46 183.024C169.738 183.024 168.342 181.625 168.342 179.9C168.342 178.174 169.738 176.775 171.46 176.775C173.182 176.775 174.578 178.174 174.578 179.9Z" fill="black" fill-opacity="0.03"/>
<path d="M202.015 179.9C202.015 181.625 200.619 183.024 198.897 183.024C197.175 183.024 195.779 181.625 195.779 179.9C195.779 178.174 197.175 176.775 198.897 176.775C200.619 176.775 202.015 178.174 202.015 179.9Z" fill="black" fill-opacity="0.03"/>
<path d="M229.452 179.9C229.452 181.625 228.056 183.024 226.334 183.024C224.612 183.024 223.216 181.625 223.216 179.9C223.216 178.174 224.612 176.775 226.334 176.775C228.056 176.775 229.452 178.174 229.452 179.9Z" fill="black" fill-opacity="0.03"/>
<path d="M254.395 158.651C254.395 160.377 252.999 161.776 251.277 161.776C249.555 161.776 248.159 160.377 248.159 158.651C248.159 156.926 249.555 155.527 251.277 155.527C252.999 155.527 254.395 156.926 254.395 158.651Z" fill="black" fill-opacity="0.03"/>
<path d="M281.832 158.651C281.832 160.377 280.436 161.776 278.714 161.776C276.992 161.776 275.596 160.377 275.596 158.651C275.596 156.926 276.992 155.527 278.714 155.527C280.436 155.527 281.832 156.926 281.832 158.651Z" fill="black" fill-opacity="0.03"/>
<path d="M309.269 158.651C309.269 160.377 307.873 161.776 306.151 161.776C304.429 161.776 303.034 160.377 303.034 158.651C303.034 156.926 304.429 155.527 306.151 155.527C307.873 155.527 309.269 156.926 309.269 158.651Z" fill="black" fill-opacity="0.03"/>
<path d="M254.395 137.403C254.395 139.129 252.999 140.528 251.277 140.528C249.555 140.528 248.159 139.129 248.159 137.403C248.159 135.678 249.555 134.279 251.277 134.279C252.999 134.279 254.395 135.678 254.395 137.403Z" fill="black" fill-opacity="0.03"/>
<path d="M281.832 137.403C281.832 139.129 280.436 140.528 278.714 140.528C276.992 140.528 275.596 139.129 275.596 137.403C275.596 135.678 276.992 134.279 278.714 134.279C280.436 134.279 281.832 135.678 281.832 137.403Z" fill="black" fill-opacity="0.03"/>
<path d="M309.269 137.403C309.269 139.129 307.873 140.528 306.151 140.528C304.429 140.528 303.034 139.129 303.034 137.403C303.034 135.678 304.429 134.279 306.151 134.279C307.873 134.279 309.269 135.678 309.269 137.403Z" fill="black" fill-opacity="0.03"/>
<path d="M254.395 179.9C254.395 181.625 252.999 183.024 251.277 183.024C249.555 183.024 248.159 181.625 248.159 179.9C248.159 178.174 249.555 176.775 251.277 176.775C252.999 176.775 254.395 178.174 254.395 179.9Z" fill="black" fill-opacity="0.03"/>
<path d="M281.832 179.9C281.832 181.625 280.436 183.024 278.714 183.024C276.992 183.024 275.596 181.625 275.596 179.9C275.596 178.174 276.992 176.775 278.714 176.775C280.436 176.775 281.832 178.174 281.832 179.9Z" fill="black" fill-opacity="0.03"/>
<path d="M309.269 179.9C309.269 181.625 307.873 183.024 306.151 183.024C304.429 183.024 303.034 181.625 303.034 179.9C303.034 178.174 304.429 176.775 306.151 176.775C307.873 176.775 309.269 178.174 309.269 179.9Z" fill="black" fill-opacity="0.03"/>
<path d="M174.578 227.236C174.578 228.962 173.182 230.361 171.46 230.361C169.738 230.361 168.342 228.962 168.342 227.236C168.342 225.511 169.738 224.112 171.46 224.112C173.182 224.112 174.578 225.511 174.578 227.236Z" fill="black" fill-opacity="0.03"/>
<path d="M202.015 227.236C202.015 228.962 200.619 230.361 198.897 230.361C197.175 230.361 195.779 228.962 195.779 227.236C195.779 225.511 197.175 224.112 198.897 224.112C200.619 224.112 202.015 225.511 202.015 227.236Z" fill="black" fill-opacity="0.03"/>
<path d="M229.452 227.236C229.452 228.962 228.056 230.361 226.334 230.361C224.612 230.361 223.216 228.962 223.216 227.236C223.216 225.511 224.612 224.112 226.334 224.112C228.056 224.112 229.452 225.511 229.452 227.236Z" fill="black" fill-opacity="0.03"/>
<path d="M174.578 205.988C174.578 207.714 173.182 209.113 171.46 209.113C169.738 209.113 168.342 207.714 168.342 205.988C168.342 204.263 169.738 202.864 171.46 202.864C173.182 202.864 174.578 204.263 174.578 205.988Z" fill="black" fill-opacity="0.03"/>
<path d="M202.015 205.988C202.015 207.714 200.619 209.113 198.897 209.113C197.175 209.113 195.779 207.714 195.779 205.988C195.779 204.263 197.175 202.864 198.897 202.864C200.619 202.864 202.015 204.263 202.015 205.988Z" fill="black" fill-opacity="0.03"/>
<path d="M229.452 205.988C229.452 207.714 228.056 209.113 226.334 209.113C224.612 209.113 223.216 207.714 223.216 205.988C223.216 204.263 224.612 202.864 226.334 202.864C228.056 202.864 229.452 204.263 229.452 205.988Z" fill="black" fill-opacity="0.03"/>
<path d="M174.578 248.485C174.578 250.21 173.182 251.609 171.46 251.609C169.738 251.609 168.342 250.21 168.342 248.485C168.342 246.759 169.738 245.36 171.46 245.36C173.182 245.36 174.578 246.759 174.578 248.485Z" fill="black" fill-opacity="0.03"/>
<path d="M202.015 248.485C202.015 250.21 200.619 251.609 198.897 251.609C197.175 251.609 195.779 250.21 195.779 248.485C195.779 246.759 197.175 245.36 198.897 245.36C200.619 245.36 202.015 246.759 202.015 248.485Z" fill="black" fill-opacity="0.03"/>
<path d="M229.452 248.485C229.452 250.21 228.056 251.609 226.334 251.609C224.612 251.609 223.216 250.21 223.216 248.485C223.216 246.759 224.612 245.36 226.334 245.36C228.056 245.36 229.452 246.759 229.452 248.485Z" fill="black" fill-opacity="0.03"/>
<path d="M254.395 227.236C254.395 228.962 252.999 230.361 251.277 230.361C249.555 230.361 248.159 228.962 248.159 227.236C248.159 225.511 249.555 224.112 251.277 224.112C252.999 224.112 254.395 225.511 254.395 227.236Z" fill="black" fill-opacity="0.03"/>
<path d="M281.832 227.236C281.832 228.962 280.436 230.361 278.714 230.361C276.992 230.361 275.596 228.962 275.596 227.236C275.596 225.511 276.992 224.112 278.714 224.112C280.436 224.112 281.832 225.511 281.832 227.236Z" fill="black" fill-opacity="0.03"/>
<path d="M309.269 227.236C309.269 228.962 307.873 230.361 306.151 230.361C304.429 230.361 303.034 228.962 303.034 227.236C303.034 225.511 304.429 224.112 306.151 224.112C307.873 224.112 309.269 225.511 309.269 227.236Z" fill="black" fill-opacity="0.03"/>
<path d="M254.395 205.988C254.395 207.714 252.999 209.113 251.277 209.113C249.555 209.113 248.159 207.714 248.159 205.988C248.159 204.263 249.555 202.864 251.277 202.864C252.999 202.864 254.395 204.263 254.395 205.988Z" fill="black" fill-opacity="0.03"/>
<path d="M281.832 205.988C281.832 207.714 280.436 209.113 278.714 209.113C276.992 209.113 275.596 207.714 275.596 205.988C275.596 204.263 276.992 202.864 278.714 202.864C280.436 202.864 281.832 204.263 281.832 205.988Z" fill="black" fill-opacity="0.03"/>
<path d="M309.269 205.988C309.269 207.714 307.873 209.113 306.151 209.113C304.429 209.113 303.034 207.714 303.034 205.988C303.034 204.263 304.429 202.864 306.151 202.864C307.873 202.864 309.269 204.263 309.269 205.988Z" fill="black" fill-opacity="0.03"/>
<path d="M254.395 248.485C254.395 250.21 252.999 251.609 251.277 251.609C249.555 251.609 248.159 250.21 248.159 248.485C248.159 246.759 249.555 245.36 251.277 245.36C252.999 245.36 254.395 246.759 254.395 248.485Z" fill="black" fill-opacity="0.03"/>
<path d="M281.832 248.485C281.832 250.21 280.436 251.609 278.714 251.609C276.992 251.609 275.596 250.21 275.596 248.485C275.596 246.759 276.992 245.36 278.714 245.36C280.436 245.36 281.832 246.759 281.832 248.485Z" fill="black" fill-opacity="0.03"/>
<path d="M309.269 248.485C309.269 250.21 307.873 251.609 306.151 251.609C304.429 251.609 303.034 250.21 303.034 248.485C303.034 246.759 304.429 245.36 306.151 245.36C307.873 245.36 309.269 246.759 309.269 248.485Z" fill="black" fill-opacity="0.03"/>
<path d="M174.578 294.106C174.578 295.831 173.182 297.23 171.46 297.23C169.738 297.23 168.342 295.831 168.342 294.106C168.342 292.38 169.738 290.981 171.46 290.981C173.182 290.981 174.578 292.38 174.578 294.106Z" fill="black" fill-opacity="0.03"/>
<path d="M202.015 294.106C202.015 295.831 200.619 297.23 198.897 297.23C197.175 297.23 195.779 295.831 195.779 294.106C195.779 292.38 197.175 290.981 198.897 290.981C200.619 290.981 202.015 292.38 202.015 294.106Z" fill="black" fill-opacity="0.03"/>
<path d="M229.452 294.106C229.452 295.831 228.056 297.23 226.334 297.23C224.612 297.23 223.216 295.831 223.216 294.106C223.216 292.38 224.612 290.981 226.334 290.981C228.056 290.981 229.452 292.38 229.452 294.106Z" fill="black" fill-opacity="0.03"/>
<path d="M174.578 272.857C174.578 274.583 173.182 275.982 171.46 275.982C169.738 275.982 168.342 274.583 168.342 272.857C168.342 271.132 169.738 269.733 171.46 269.733C173.182 269.733 174.578 271.132 174.578 272.857Z" fill="black" fill-opacity="0.03"/>
<path d="M202.015 272.857C202.015 274.583 200.619 275.982 198.897 275.982C197.175 275.982 195.779 274.583 195.779 272.857C195.779 271.132 197.175 269.733 198.897 269.733C200.619 269.733 202.015 271.132 202.015 272.857Z" fill="black" fill-opacity="0.03"/>
<path d="M229.452 272.857C229.452 274.583 228.056 275.982 226.334 275.982C224.612 275.982 223.216 274.583 223.216 272.857C223.216 271.132 224.612 269.733 226.334 269.733C228.056 269.733 229.452 271.132 229.452 272.857Z" fill="black" fill-opacity="0.03"/>
<path d="M174.578 315.354C174.578 317.079 173.182 318.478 171.46 318.478C169.738 318.478 168.342 317.079 168.342 315.354C168.342 313.628 169.738 312.229 171.46 312.229C173.182 312.229 174.578 313.628 174.578 315.354Z" fill="black" fill-opacity="0.03"/>
<path d="M202.015 315.354C202.015 317.079 200.619 318.478 198.897 318.478C197.175 318.478 195.779 317.079 195.779 315.354C195.779 313.628 197.175 312.229 198.897 312.229C200.619 312.229 202.015 313.628 202.015 315.354Z" fill="black" fill-opacity="0.03"/>
<path d="M229.452 315.354C229.452 317.079 228.056 318.478 226.334 318.478C224.612 318.478 223.216 317.079 223.216 315.354C223.216 313.628 224.612 312.229 226.334 312.229C228.056 312.229 229.452 313.628 229.452 315.354Z" fill="black" fill-opacity="0.03"/>
<path d="M254.395 294.106C254.395 295.831 252.999 297.23 251.277 297.23C249.555 297.23 248.159 295.831 248.159 294.106C248.159 292.38 249.555 290.981 251.277 290.981C252.999 290.981 254.395 292.38 254.395 294.106Z" fill="black" fill-opacity="0.03"/>
<path d="M281.832 294.106C281.832 295.831 280.436 297.23 278.714 297.23C276.992 297.23 275.596 295.831 275.596 294.106C275.596 292.38 276.992 290.981 278.714 290.981C280.436 290.981 281.832 292.38 281.832 294.106Z" fill="black" fill-opacity="0.03"/>
<path d="M309.269 294.106C309.269 295.831 307.873 297.23 306.151 297.23C304.429 297.23 303.034 295.831 303.034 294.106C303.034 292.38 304.429 290.981 306.151 290.981C307.873 290.981 309.269 292.38 309.269 294.106Z" fill="black" fill-opacity="0.03"/>
<path d="M254.395 272.857C254.395 274.583 252.999 275.982 251.277 275.982C249.555 275.982 248.159 274.583 248.159 272.857C248.159 271.132 249.555 269.733 251.277 269.733C252.999 269.733 254.395 271.132 254.395 272.857Z" fill="black" fill-opacity="0.03"/>
<path d="M281.832 272.857C281.832 274.583 280.436 275.982 278.714 275.982C276.992 275.982 275.596 274.583 275.596 272.857C275.596 271.132 276.992 269.733 278.714 269.733C280.436 269.733 281.832 271.132 281.832 272.857Z" fill="black" fill-opacity="0.03"/>
<path d="M309.269 272.857C309.269 274.583 307.873 275.982 306.151 275.982C304.429 275.982 303.034 274.583 303.034 272.857C303.034 271.132 304.429 269.733 306.151 269.733C307.873 269.733 309.269 271.132 309.269 272.857Z" fill="black" fill-opacity="0.03"/>
<path d="M254.395 315.354C254.395 317.079 252.999 318.478 251.277 318.478C249.555 318.478 248.159 317.079 248.159 315.354C248.159 313.628 249.555 312.229 251.277 312.229C252.999 312.229 254.395 313.628 254.395 315.354Z" fill="black" fill-opacity="0.03"/>
<path d="M281.832 315.354C281.832 317.079 280.436 318.478 278.714 318.478C276.992 318.478 275.596 317.079 275.596 315.354C275.596 313.628 276.992 312.229 278.714 312.229C280.436 312.229 281.832 313.628 281.832 315.354Z" fill="black" fill-opacity="0.03"/>
<path d="M309.269 315.354C309.269 317.079 307.873 318.478 306.151 318.478C304.429 318.478 303.034 317.079 303.034 315.354C303.034 313.628 304.429 312.229 306.151 312.229C307.873 312.229 309.269 313.628 309.269 315.354Z" fill="black" fill-opacity="0.03"/>
</svg>
