<svg width="126" height="140" viewBox="0 0 126 140" fill="none" xmlns="http://www.w3.org/2000/svg">
<mask id="path-1-inside-1_38_187" fill="white">
<path d="M6.84672 103.776L64.0348 4.95973L69.1688 7.91444L11.9857 106.735L6.84672 103.776Z"/>
<path d="M5.6681 95.883H120.044V101.797H5.6681V95.883Z"/>
<path d="M7.93545 99.2014L10.897 94.0793L68.105 127.034L65.1385 132.157L7.93545 99.2014ZM57.6323 13.3106L60.5988 8.19347L117.807 41.1487L114.84 46.2708L57.6323 13.3106Z"/>
<path d="M7.95043 41.1337L65.1535 8.17852L68.12 13.3007L10.912 46.2559L7.95043 41.1337Z"/>
<path d="M56.5985 7.91942L61.7325 4.95973L118.916 103.78L113.787 106.735L56.5985 7.91942ZM10.2078 37.2074H16.1358V103.118H10.2078V37.2074Z"/>
<path d="M109.621 37.2074H115.55V103.118H109.621V37.2074Z"/>
<path d="M61.5477 125.181L111.299 96.5208L113.891 100.995L64.1347 129.655L61.5477 125.181Z"/>
<path d="M123.405 105.041C122.173 107.177 120.333 108.901 118.119 109.994C115.904 111.086 113.414 111.499 110.965 111.179C108.515 110.86 106.215 109.822 104.357 108.198C102.499 106.574 101.165 104.436 100.525 102.055C99.8848 99.6745 99.967 97.1579 100.761 94.8238C101.555 92.4898 103.026 90.4432 104.986 88.9433C106.947 87.4433 109.309 86.5573 111.774 86.3975C114.24 86.2376 116.697 86.8111 118.836 88.0453C121.698 89.6971 123.786 92.4142 124.643 95.6005C125.5 98.7867 125.055 102.182 123.405 105.041ZM23.9217 47.7407C22.6894 49.8771 20.8496 51.6006 18.635 52.6933C16.4205 53.7859 13.9308 54.1985 11.4811 53.8788C9.03138 53.5592 6.73182 52.5216 4.87344 50.8974C3.01506 49.2732 1.68142 47.1355 1.04133 44.7548C0.401229 42.3741 0.48345 39.8575 1.27758 37.5234C2.07171 35.1894 3.54205 33.1428 5.5025 31.6429C7.46294 30.1429 9.82535 29.2569 12.2907 29.0971C14.7561 28.9372 17.2135 29.5107 19.3521 30.7449C22.2142 32.3967 24.3027 35.1138 25.1594 38.3001C26.0161 41.4863 25.571 44.8815 23.9217 47.7407ZM2.34699 105.041C1.10992 102.907 0.535121 100.456 0.695334 97.996C0.855548 95.5363 1.74358 93.1794 3.24702 91.2234C4.75046 89.2675 6.80172 87.8006 9.14117 87.0083C11.4806 86.216 14.0031 86.1339 16.3893 86.7725C18.7755 87.4112 20.9181 88.7417 22.5461 90.5958C24.174 92.4499 25.214 94.7442 25.5344 97.1882C25.8548 99.6323 25.4413 102.116 24.3461 104.326C23.2509 106.535 21.5233 108.371 19.382 109.6C16.5162 111.246 13.1132 111.69 9.91961 110.835C6.726 109.98 4.00263 107.897 2.34699 105.041ZM101.831 47.7407C100.593 45.6071 100.019 43.1553 100.179 40.6956C100.339 38.2359 101.227 35.879 102.731 33.923C104.234 31.9671 106.285 30.5002 108.625 29.7079C110.964 28.9156 113.487 28.8335 115.873 29.4722C118.259 30.1108 120.402 31.4413 122.03 33.2954C123.658 35.1495 124.698 37.4438 125.018 39.8878C125.338 42.3319 124.925 44.8158 123.83 47.0253C122.734 49.2347 121.007 51.0704 118.866 52.2998C116 53.9453 112.597 54.3894 109.403 53.5347C106.21 52.68 103.486 50.5962 101.831 47.7407ZM62.8761 139.92C60.4068 139.92 57.9928 139.189 55.9396 137.82C53.8864 136.452 52.2861 134.506 51.3412 132.23C50.3962 129.954 50.1489 127.449 50.6307 125.033C51.1124 122.616 52.3015 120.397 54.0476 118.655C55.7938 116.913 58.0184 115.726 60.4404 115.246C62.8623 114.765 65.3727 115.012 67.6541 115.955C69.9355 116.897 71.8855 118.494 73.2574 120.542C74.6293 122.591 75.3615 124.999 75.3615 127.463C75.3661 129.1 75.0463 130.722 74.4205 132.235C73.7947 133.749 72.8752 135.124 71.7149 136.281C70.5546 137.439 69.1764 138.356 67.6595 138.981C66.1427 139.605 64.517 139.924 62.8761 139.92ZM62.8761 25.274C60.4068 25.274 57.9928 24.5434 55.9396 23.1747C53.8864 21.8059 52.2861 19.8604 51.3412 17.5843C50.3962 15.3082 50.1489 12.8035 50.6307 10.3872C51.1124 7.97085 52.3015 5.7513 54.0476 4.00921C55.7938 2.26712 58.0184 1.08075 60.4404 0.600104C62.8623 0.119463 65.3727 0.366146 67.6541 1.30896C69.9355 2.25177 71.8855 3.84836 73.2574 5.89684C74.6293 7.94532 75.3615 10.3537 75.3615 12.8174C75.3661 14.4545 75.0463 16.0764 74.4205 17.5897C73.7947 19.1031 72.8752 20.4782 71.7149 21.6358C70.5546 22.7934 69.1764 23.7108 67.6595 24.3351C66.1427 24.9595 64.517 25.2786 62.8761 25.274Z"/>
</mask>
<path d="M6.84672 103.776L64.0348 4.95973L69.1688 7.91444L11.9857 106.735L6.84672 103.776Z" fill="white"/>
<path d="M5.6681 95.883H120.044V101.797H5.6681V95.883Z" fill="white"/>
<path d="M7.93545 99.2014L10.897 94.0793L68.105 127.034L65.1385 132.157L7.93545 99.2014ZM57.6323 13.3106L60.5988 8.19347L117.807 41.1487L114.84 46.2708L57.6323 13.3106Z" fill="white"/>
<path d="M7.95043 41.1337L65.1535 8.17852L68.12 13.3007L10.912 46.2559L7.95043 41.1337Z" fill="white"/>
<path d="M56.5985 7.91942L61.7325 4.95973L118.916 103.78L113.787 106.735L56.5985 7.91942ZM10.2078 37.2074H16.1358V103.118H10.2078V37.2074Z" fill="white"/>
<path d="M109.621 37.2074H115.55V103.118H109.621V37.2074Z" fill="white"/>
<path d="M61.5477 125.181L111.299 96.5208L113.891 100.995L64.1347 129.655L61.5477 125.181Z" fill="white"/>
<path d="M123.405 105.041C122.173 107.177 120.333 108.901 118.119 109.994C115.904 111.086 113.414 111.499 110.965 111.179C108.515 110.86 106.215 109.822 104.357 108.198C102.499 106.574 101.165 104.436 100.525 102.055C99.8848 99.6745 99.967 97.1579 100.761 94.8238C101.555 92.4898 103.026 90.4432 104.986 88.9433C106.947 87.4433 109.309 86.5573 111.774 86.3975C114.24 86.2376 116.697 86.8111 118.836 88.0453C121.698 89.6971 123.786 92.4142 124.643 95.6005C125.5 98.7867 125.055 102.182 123.405 105.041ZM23.9217 47.7407C22.6894 49.8771 20.8496 51.6006 18.635 52.6933C16.4205 53.7859 13.9308 54.1985 11.4811 53.8788C9.03138 53.5592 6.73182 52.5216 4.87344 50.8974C3.01506 49.2732 1.68142 47.1355 1.04133 44.7548C0.401229 42.3741 0.48345 39.8575 1.27758 37.5234C2.07171 35.1894 3.54205 33.1428 5.5025 31.6429C7.46294 30.1429 9.82535 29.2569 12.2907 29.0971C14.7561 28.9372 17.2135 29.5107 19.3521 30.7449C22.2142 32.3967 24.3027 35.1138 25.1594 38.3001C26.0161 41.4863 25.571 44.8815 23.9217 47.7407ZM2.34699 105.041C1.10992 102.907 0.535121 100.456 0.695334 97.996C0.855548 95.5363 1.74358 93.1794 3.24702 91.2234C4.75046 89.2675 6.80172 87.8006 9.14117 87.0083C11.4806 86.216 14.0031 86.1339 16.3893 86.7725C18.7755 87.4112 20.9181 88.7417 22.5461 90.5958C24.174 92.4499 25.214 94.7442 25.5344 97.1882C25.8548 99.6323 25.4413 102.116 24.3461 104.326C23.2509 106.535 21.5233 108.371 19.382 109.6C16.5162 111.246 13.1132 111.69 9.91961 110.835C6.726 109.98 4.00263 107.897 2.34699 105.041ZM101.831 47.7407C100.593 45.6071 100.019 43.1553 100.179 40.6956C100.339 38.2359 101.227 35.879 102.731 33.923C104.234 31.9671 106.285 30.5002 108.625 29.7079C110.964 28.9156 113.487 28.8335 115.873 29.4722C118.259 30.1108 120.402 31.4413 122.03 33.2954C123.658 35.1495 124.698 37.4438 125.018 39.8878C125.338 42.3319 124.925 44.8158 123.83 47.0253C122.734 49.2347 121.007 51.0704 118.866 52.2998C116 53.9453 112.597 54.3894 109.403 53.5347C106.21 52.68 103.486 50.5962 101.831 47.7407ZM62.8761 139.92C60.4068 139.92 57.9928 139.189 55.9396 137.82C53.8864 136.452 52.2861 134.506 51.3412 132.23C50.3962 129.954 50.1489 127.449 50.6307 125.033C51.1124 122.616 52.3015 120.397 54.0476 118.655C55.7938 116.913 58.0184 115.726 60.4404 115.246C62.8623 114.765 65.3727 115.012 67.6541 115.955C69.9355 116.897 71.8855 118.494 73.2574 120.542C74.6293 122.591 75.3615 124.999 75.3615 127.463C75.3661 129.1 75.0463 130.722 74.4205 132.235C73.7947 133.749 72.8752 135.124 71.7149 136.281C70.5546 137.439 69.1764 138.356 67.6595 138.981C66.1427 139.605 64.517 139.924 62.8761 139.92ZM62.8761 25.274C60.4068 25.274 57.9928 24.5434 55.9396 23.1747C53.8864 21.8059 52.2861 19.8604 51.3412 17.5843C50.3962 15.3082 50.1489 12.8035 50.6307 10.3872C51.1124 7.97085 52.3015 5.7513 54.0476 4.00921C55.7938 2.26712 58.0184 1.08075 60.4404 0.600104C62.8623 0.119463 65.3727 0.366146 67.6541 1.30896C69.9355 2.25177 71.8855 3.84836 73.2574 5.89684C74.6293 7.94532 75.3615 10.3537 75.3615 12.8174C75.3661 14.4545 75.0463 16.0764 74.4205 17.5897C73.7947 19.1031 72.8752 20.4782 71.7149 21.6358C70.5546 22.7934 69.1764 23.7108 67.6595 24.3351C66.1427 24.9595 64.517 25.2786 62.8761 25.274Z" fill="white"/>
<path d="M6.84672 103.776L64.0348 4.95973L69.1688 7.91444L11.9857 106.735L6.84672 103.776Z" stroke="white" stroke-width="4" mask="url(#path-1-inside-1_38_187)"/>
<path d="M5.6681 95.883H120.044V101.797H5.6681V95.883Z" stroke="white" stroke-width="4" mask="url(#path-1-inside-1_38_187)"/>
<path d="M7.93545 99.2014L10.897 94.0793L68.105 127.034L65.1385 132.157L7.93545 99.2014ZM57.6323 13.3106L60.5988 8.19347L117.807 41.1487L114.84 46.2708L57.6323 13.3106Z" stroke="white" stroke-width="4" mask="url(#path-1-inside-1_38_187)"/>
<path d="M7.95043 41.1337L65.1535 8.17852L68.12 13.3007L10.912 46.2559L7.95043 41.1337Z" stroke="white" stroke-width="4" mask="url(#path-1-inside-1_38_187)"/>
<path d="M56.5985 7.91942L61.7325 4.95973L118.916 103.78L113.787 106.735L56.5985 7.91942ZM10.2078 37.2074H16.1358V103.118H10.2078V37.2074Z" stroke="white" stroke-width="4" mask="url(#path-1-inside-1_38_187)"/>
<path d="M109.621 37.2074H115.55V103.118H109.621V37.2074Z" stroke="white" stroke-width="4" mask="url(#path-1-inside-1_38_187)"/>
<path d="M61.5477 125.181L111.299 96.5208L113.891 100.995L64.1347 129.655L61.5477 125.181Z" stroke="white" stroke-width="4" mask="url(#path-1-inside-1_38_187)"/>
<path d="M123.405 105.041C122.173 107.177 120.333 108.901 118.119 109.994C115.904 111.086 113.414 111.499 110.965 111.179C108.515 110.86 106.215 109.822 104.357 108.198C102.499 106.574 101.165 104.436 100.525 102.055C99.8848 99.6745 99.967 97.1579 100.761 94.8238C101.555 92.4898 103.026 90.4432 104.986 88.9433C106.947 87.4433 109.309 86.5573 111.774 86.3975C114.24 86.2376 116.697 86.8111 118.836 88.0453C121.698 89.6971 123.786 92.4142 124.643 95.6005C125.5 98.7867 125.055 102.182 123.405 105.041ZM23.9217 47.7407C22.6894 49.8771 20.8496 51.6006 18.635 52.6933C16.4205 53.7859 13.9308 54.1985 11.4811 53.8788C9.03138 53.5592 6.73182 52.5216 4.87344 50.8974C3.01506 49.2732 1.68142 47.1355 1.04133 44.7548C0.401229 42.3741 0.48345 39.8575 1.27758 37.5234C2.07171 35.1894 3.54205 33.1428 5.5025 31.6429C7.46294 30.1429 9.82535 29.2569 12.2907 29.0971C14.7561 28.9372 17.2135 29.5107 19.3521 30.7449C22.2142 32.3967 24.3027 35.1138 25.1594 38.3001C26.0161 41.4863 25.571 44.8815 23.9217 47.7407ZM2.34699 105.041C1.10992 102.907 0.535121 100.456 0.695334 97.996C0.855548 95.5363 1.74358 93.1794 3.24702 91.2234C4.75046 89.2675 6.80172 87.8006 9.14117 87.0083C11.4806 86.216 14.0031 86.1339 16.3893 86.7725C18.7755 87.4112 20.9181 88.7417 22.5461 90.5958C24.174 92.4499 25.214 94.7442 25.5344 97.1882C25.8548 99.6323 25.4413 102.116 24.3461 104.326C23.2509 106.535 21.5233 108.371 19.382 109.6C16.5162 111.246 13.1132 111.69 9.91961 110.835C6.726 109.98 4.00263 107.897 2.34699 105.041ZM101.831 47.7407C100.593 45.6071 100.019 43.1553 100.179 40.6956C100.339 38.2359 101.227 35.879 102.731 33.923C104.234 31.9671 106.285 30.5002 108.625 29.7079C110.964 28.9156 113.487 28.8335 115.873 29.4722C118.259 30.1108 120.402 31.4413 122.03 33.2954C123.658 35.1495 124.698 37.4438 125.018 39.8878C125.338 42.3319 124.925 44.8158 123.83 47.0253C122.734 49.2347 121.007 51.0704 118.866 52.2998C116 53.9453 112.597 54.3894 109.403 53.5347C106.21 52.68 103.486 50.5962 101.831 47.7407ZM62.8761 139.92C60.4068 139.92 57.9928 139.189 55.9396 137.82C53.8864 136.452 52.2861 134.506 51.3412 132.23C50.3962 129.954 50.1489 127.449 50.6307 125.033C51.1124 122.616 52.3015 120.397 54.0476 118.655C55.7938 116.913 58.0184 115.726 60.4404 115.246C62.8623 114.765 65.3727 115.012 67.6541 115.955C69.9355 116.897 71.8855 118.494 73.2574 120.542C74.6293 122.591 75.3615 124.999 75.3615 127.463C75.3661 129.1 75.0463 130.722 74.4205 132.235C73.7947 133.749 72.8752 135.124 71.7149 136.281C70.5546 137.439 69.1764 138.356 67.6595 138.981C66.1427 139.605 64.517 139.924 62.8761 139.92ZM62.8761 25.274C60.4068 25.274 57.9928 24.5434 55.9396 23.1747C53.8864 21.8059 52.2861 19.8604 51.3412 17.5843C50.3962 15.3082 50.1489 12.8035 50.6307 10.3872C51.1124 7.97085 52.3015 5.7513 54.0476 4.00921C55.7938 2.26712 58.0184 1.08075 60.4404 0.600104C62.8623 0.119463 65.3727 0.366146 67.6541 1.30896C69.9355 2.25177 71.8855 3.84836 73.2574 5.89684C74.6293 7.94532 75.3615 10.3537 75.3615 12.8174C75.3661 14.4545 75.0463 16.0764 74.4205 17.5897C73.7947 19.1031 72.8752 20.4782 71.7149 21.6358C70.5546 22.7934 69.1764 23.7108 67.6595 24.3351C66.1427 24.9595 64.517 25.2786 62.8761 25.274Z" stroke="white" stroke-width="4" mask="url(#path-1-inside-1_38_187)"/>
</svg>
