<svg width="677" height="672" viewBox="0 0 677 672" fill="none" xmlns="http://www.w3.org/2000/svg">
<path d="M505 526C505 528.761 502.761 531 500 531C497.238 531 495 528.761 495 526C495 523.239 497.238 521 500 521C502.761 521 505 523.239 505 526Z" fill="#D9D9D9"/>
<path d="M549 526C549 528.761 546.761 531 544 531C541.238 531 539 528.761 539 526C539 523.239 541.238 521 544 521C546.761 521 549 523.239 549 526Z" fill="#D9D9D9"/>
<path d="M593 526C593 528.761 590.761 531 588 531C585.238 531 583 528.761 583 526C583 523.239 585.238 521 588 521C590.761 521 593 523.239 593 526Z" fill="#D9D9D9"/>
<path d="M505 492C505 494.761 502.761 497 500 497C497.238 497 495 494.761 495 492C495 489.238 497.238 487 500 487C502.761 487 505 489.238 505 492Z" fill="#D9D9D9"/>
<path d="M549 492C549 494.761 546.761 497 544 497C541.238 497 539 494.761 539 492C539 489.238 541.238 487 544 487C546.761 487 549 489.238 549 492Z" fill="#D9D9D9"/>
<path d="M593 492C593 494.761 590.761 497 588 497C585.238 497 583 494.761 583 492C583 489.238 585.238 487 588 487C590.761 487 593 489.238 593 492Z" fill="#D9D9D9"/>
<path d="M505 560C505 562.761 502.761 565 500 565C497.238 565 495 562.761 495 560C495 557.239 497.238 555 500 555C502.761 555 505 557.239 505 560Z" fill="#D9D9D9"/>
<path d="M549 560C549 562.761 546.761 565 544 565C541.238 565 539 562.761 539 560C539 557.239 541.238 555 544 555C546.761 555 549 557.239 549 560Z" fill="#D9D9D9"/>
<path d="M593 560C593 562.761 590.761 565 588 565C585.238 565 583 562.761 583 560C583 557.239 585.238 555 588 555C590.761 555 593 557.239 593 560Z" fill="#D9D9D9"/>
<path d="M633 526C633 528.761 630.761 531 628 531C625.238 531 623 528.761 623 526C623 523.239 625.238 521 628 521C630.761 521 633 523.239 633 526Z" fill="#D9D9D9"/>
<path d="M677 526C677 528.761 674.761 531 672 531C669.238 531 667 528.761 667 526C667 523.239 669.238 521 672 521C674.761 521 677 523.239 677 526Z" fill="#D9D9D9"/>
<path d="M633 492C633 494.761 630.761 497 628 497C625.238 497 623 494.761 623 492C623 489.238 625.238 487 628 487C630.761 487 633 489.238 633 492Z" fill="#D9D9D9"/>
<path d="M677 492C677 494.761 674.761 497 672 497C669.238 497 667 494.761 667 492C667 489.238 669.238 487 672 487C674.761 487 677 489.238 677 492Z" fill="#D9D9D9"/>
<path d="M633 560C633 562.761 630.761 565 628 565C625.238 565 623 562.761 623 560C623 557.239 625.238 555 628 555C630.761 555 633 557.239 633 560Z" fill="#D9D9D9"/>
<path d="M677 560C677 562.761 674.761 565 672 565C669.238 565 667 562.761 667 560C667 557.239 669.238 555 672 555C674.761 555 677 557.239 677 560Z" fill="#D9D9D9"/>
<path d="M593 599C593 601.761 590.761 604 588 604C585.238 604 583 601.761 583 599C583 596.239 585.238 594 588 594C590.761 594 593 596.239 593 599Z" fill="#D9D9D9"/>
<path d="M677 633C677 635.761 674.761 638 672 638C669.238 638 667 635.761 667 633C667 630.239 669.238 628 672 628C674.761 628 677 630.239 677 633Z" fill="#D9D9D9"/>
<path d="M633 599C633 601.761 630.761 604 628 604C625.238 604 623 601.761 623 599C623 596.239 625.238 594 628 594C630.761 594 633 596.239 633 599Z" fill="#D9D9D9"/>
<path d="M677 599C677 601.761 674.761 604 672 604C669.238 604 667 601.761 667 599C667 596.239 669.238 594 672 594C674.761 594 677 596.239 677 599Z" fill="#D9D9D9"/>
<path d="M677 667C677 669.761 674.761 672 672 672C669.238 672 667 669.761 667 667C667 664.239 669.238 662 672 662C674.761 662 677 664.239 677 667Z" fill="#D9D9D9"/>
<path d="M231 524C231 526.761 228.761 529 226 529C223.238 529 221 526.761 221 524C221 521.239 223.238 519 226 519C228.761 519 231 521.239 231 524Z" fill="#D9D9D9"/>
<path d="M275 524C275 526.761 272.761 529 270 529C267.238 529 265 526.761 265 524C265 521.239 267.238 519 270 519C272.761 519 275 521.239 275 524Z" fill="#D9D9D9"/>
<path d="M319 524C319 526.761 316.761 529 314 529C311.238 529 309 526.761 309 524C309 521.239 311.238 519 314 519C316.761 519 319 521.239 319 524Z" fill="#D9D9D9"/>
<path d="M231 490C231 492.761 228.761 495 226 495C223.238 495 221 492.761 221 490C221 487.238 223.238 485 226 485C228.761 485 231 487.238 231 490Z" fill="#D9D9D9"/>
<path d="M275 490C275 492.761 272.761 495 270 495C267.238 495 265 492.761 265 490C265 487.238 267.238 485 270 485C272.761 485 275 487.238 275 490Z" fill="#D9D9D9"/>
<path d="M319 490C319 492.761 316.761 495 314 495C311.238 495 309 492.761 309 490C309 487.238 311.238 485 314 485C316.761 485 319 487.238 319 490Z" fill="#D9D9D9"/>
<path d="M231 558C231 560.761 228.761 563 226 563C223.238 563 221 560.761 221 558C221 555.239 223.238 553 226 553C228.761 553 231 555.239 231 558Z" fill="#D9D9D9"/>
<path d="M275 558C275 560.761 272.761 563 270 563C267.238 563 265 560.761 265 558C265 555.239 267.238 553 270 553C272.761 553 275 555.239 275 558Z" fill="#D9D9D9"/>
<path d="M319 558C319 560.761 316.761 563 314 563C311.238 563 309 560.761 309 558C309 555.239 311.238 553 314 553C316.761 553 319 555.239 319 558Z" fill="#D9D9D9"/>
<path d="M359 524C359 526.761 356.761 529 354 529C351.238 529 349 526.761 349 524C349 521.239 351.238 519 354 519C356.761 519 359 521.239 359 524Z" fill="#D9D9D9"/>
<path d="M403 524C403 526.761 400.761 529 398 529C395.238 529 393 526.761 393 524C393 521.239 395.238 519 398 519C400.761 519 403 521.239 403 524Z" fill="#D9D9D9"/>
<path d="M447 524C447 526.761 444.761 529 442 529C439.238 529 437 526.761 437 524C437 521.239 439.238 519 442 519C444.761 519 447 521.239 447 524Z" fill="#D9D9D9"/>
<path d="M359 490C359 492.761 356.761 495 354 495C351.238 495 349 492.761 349 490C349 487.238 351.238 485 354 485C356.761 485 359 487.238 359 490Z" fill="#D9D9D9"/>
<path d="M403 490C403 492.761 400.761 495 398 495C395.238 495 393 492.761 393 490C393 487.238 395.238 485 398 485C400.761 485 403 487.238 403 490Z" fill="#D9D9D9"/>
<path d="M447 490C447 492.761 444.761 495 442 495C439.238 495 437 492.761 437 490C437 487.238 439.238 485 442 485C444.761 485 447 487.238 447 490Z" fill="#D9D9D9"/>
<path d="M359 558C359 560.761 356.761 563 354 563C351.238 563 349 560.761 349 558C349 555.239 351.238 553 354 553C356.761 553 359 555.239 359 558Z" fill="#D9D9D9"/>
<path d="M403 558C403 560.761 400.761 563 398 563C395.238 563 393 560.761 393 558C393 555.239 395.238 553 398 553C400.761 553 403 555.239 403 558Z" fill="#D9D9D9"/>
<path d="M447 558C447 560.761 444.761 563 442 563C439.238 563 437 560.761 437 558C437 555.239 439.238 553 442 553C444.761 553 447 555.239 447 558Z" fill="#D9D9D9"/>
<path d="M275 631C275 633.761 272.761 636 270 636C267.238 636 265 633.761 265 631C265 628.239 267.238 626 270 626C272.761 626 275 628.239 275 631Z" fill="#D9D9D9"/>
<path d="M319 631C319 633.761 316.761 636 314 636C311.238 636 309 633.761 309 631C309 628.239 311.238 626 314 626C316.761 626 319 628.239 319 631Z" fill="#D9D9D9"/>
<path d="M275 597C275 599.761 272.761 602 270 602C267.238 602 265 599.761 265 597C265 594.239 267.238 592 270 592C272.761 592 275 594.239 275 597Z" fill="#D9D9D9"/>
<path d="M319 597C319 599.761 316.761 602 314 602C311.238 602 309 599.761 309 597C309 594.239 311.238 592 314 592C316.761 592 319 594.239 319 597Z" fill="#D9D9D9"/>
<path d="M359 597C359 599.761 356.761 602 354 602C351.238 602 349 599.761 349 597C349 594.239 351.238 592 354 592C356.761 592 359 594.239 359 597Z" fill="#D9D9D9"/>
<path d="M189 309C189 311.761 186.761 314 184 314C181.238 314 179 311.761 179 309C179 306.238 181.238 304 184 304C186.761 304 189 306.238 189 309Z" fill="#D9D9D9"/>
<path d="M233 309C233 311.761 230.761 314 228 314C225.238 314 223 311.761 223 309C223 306.238 225.238 304 228 304C230.761 304 233 306.238 233 309Z" fill="#D9D9D9"/>
<path d="M277 309C277 311.761 274.761 314 272 314C269.238 314 267 311.761 267 309C267 306.238 269.238 304 272 304C274.761 304 277 306.238 277 309Z" fill="#D9D9D9"/>
<path d="M189 275C189 277.761 186.761 280 184 280C181.238 280 179 277.761 179 275C179 272.238 181.238 270 184 270C186.761 270 189 272.238 189 275Z" fill="#D9D9D9"/>
<path d="M233 275C233 277.761 230.761 280 228 280C225.238 280 223 277.761 223 275C223 272.238 225.238 270 228 270C230.761 270 233 272.238 233 275Z" fill="#D9D9D9"/>
<path d="M277 275C277 277.761 274.761 280 272 280C269.238 280 267 277.761 267 275C267 272.238 269.238 270 272 270C274.761 270 277 272.238 277 275Z" fill="#D9D9D9"/>
<path d="M233 343C233 345.761 230.761 348 228 348C225.238 348 223 345.761 223 343C223 340.238 225.238 338 228 338C230.761 338 233 340.238 233 343Z" fill="#D9D9D9"/>
<path d="M277 343C277 345.761 274.761 348 272 348C269.238 348 267 345.761 267 343C267 340.238 269.238 338 272 338C274.761 338 277 340.238 277 343Z" fill="#D9D9D9"/>
<path d="M317 309C317 311.761 314.761 314 312 314C309.238 314 307 311.761 307 309C307 306.238 309.238 304 312 304C314.761 304 317 306.238 317 309Z" fill="#D9D9D9"/>
<path d="M361 309C361 311.761 358.761 314 356 314C353.238 314 351 311.761 351 309C351 306.238 353.238 304 356 304C358.761 304 361 306.238 361 309Z" fill="#D9D9D9"/>
<path d="M405 309C405 311.761 402.761 314 400 314C397.238 314 395 311.761 395 309C395 306.238 397.238 304 400 304C402.761 304 405 306.238 405 309Z" fill="#D9D9D9"/>
<path d="M317 275C317 277.761 314.761 280 312 280C309.238 280 307 277.761 307 275C307 272.238 309.238 270 312 270C314.761 270 317 272.238 317 275Z" fill="#D9D9D9"/>
<path d="M361 275C361 277.761 358.761 280 356 280C353.238 280 351 277.761 351 275C351 272.238 353.238 270 356 270C358.761 270 361 272.238 361 275Z" fill="#D9D9D9"/>
<path d="M405 275C405 277.761 402.761 280 400 280C397.238 280 395 277.761 395 275C395 272.238 397.238 270 400 270C402.761 270 405 272.238 405 275Z" fill="#D9D9D9"/>
<path d="M317 343C317 345.761 314.761 348 312 348C309.238 348 307 345.761 307 343C307 340.238 309.238 338 312 338C314.761 338 317 340.238 317 343Z" fill="#D9D9D9"/>
<path d="M361 343C361 345.761 358.761 348 356 348C353.238 348 351 345.761 351 343C351 340.238 353.238 338 356 338C358.761 338 361 340.238 361 343Z" fill="#D9D9D9"/>
<path d="M405 343C405 345.761 402.761 348 400 348C397.238 348 395 345.761 395 343C395 340.238 397.238 338 400 338C402.761 338 405 340.238 405 343Z" fill="#D9D9D9"/>
<path d="M233 416C233 418.761 230.761 421 228 421C225.238 421 223 418.761 223 416C223 413.238 225.238 411 228 411C230.761 411 233 413.238 233 416Z" fill="#D9D9D9"/>
<path d="M277 416C277 418.761 274.761 421 272 421C269.238 421 267 418.761 267 416C267 413.238 269.238 411 272 411C274.761 411 277 413.238 277 416Z" fill="#D9D9D9"/>
<path d="M233 382C233 384.761 230.761 387 228 387C225.238 387 223 384.761 223 382C223 379.238 225.238 377 228 377C230.761 377 233 379.238 233 382Z" fill="#D9D9D9"/>
<path d="M277 382C277 384.761 274.761 387 272 387C269.238 387 267 384.761 267 382C267 379.238 269.238 377 272 377C274.761 377 277 379.238 277 382Z" fill="#D9D9D9"/>
<path d="M233 450C233 452.761 230.761 455 228 455C225.238 455 223 452.761 223 450C223 447.238 225.238 445 228 445C230.761 445 233 447.238 233 450Z" fill="#D9D9D9"/>
<path d="M277 450C277 452.761 274.761 455 272 455C269.238 455 267 452.761 267 450C267 447.238 269.238 445 272 445C274.761 445 277 447.238 277 450Z" fill="#D9D9D9"/>
<path d="M317 416C317 418.761 314.761 421 312 421C309.238 421 307 418.761 307 416C307 413.238 309.238 411 312 411C314.761 411 317 413.238 317 416Z" fill="#D9D9D9"/>
<path d="M361 416C361 418.761 358.761 421 356 421C353.238 421 351 418.761 351 416C351 413.238 353.238 411 356 411C358.761 411 361 413.238 361 416Z" fill="#D9D9D9"/>
<path d="M405 416C405 418.761 402.761 421 400 421C397.238 421 395 418.761 395 416C395 413.238 397.238 411 400 411C402.761 411 405 413.238 405 416Z" fill="#D9D9D9"/>
<path d="M317 382C317 384.761 314.761 387 312 387C309.238 387 307 384.761 307 382C307 379.238 309.238 377 312 377C314.761 377 317 379.238 317 382Z" fill="#D9D9D9"/>
<path d="M361 382C361 384.761 358.761 387 356 387C353.238 387 351 384.761 351 382C351 379.238 353.238 377 356 377C358.761 377 361 379.238 361 382Z" fill="#D9D9D9"/>
<path d="M405 382C405 384.761 402.761 387 400 387C397.238 387 395 384.761 395 382C395 379.238 397.238 377 400 377C402.761 377 405 379.238 405 382Z" fill="#D9D9D9"/>
<path d="M317 450C317 452.761 314.761 455 312 455C309.238 455 307 452.761 307 450C307 447.238 309.238 445 312 445C314.761 445 317 447.238 317 450Z" fill="#D9D9D9"/>
<path d="M361 450C361 452.761 358.761 455 356 455C353.238 455 351 452.761 351 450C351 447.238 353.238 445 356 445C358.761 445 361 447.238 361 450Z" fill="#D9D9D9"/>
<path d="M405 450C405 452.761 402.761 455 400 455C397.238 455 395 452.761 395 450C395 447.238 397.238 445 400 445C402.761 445 405 447.238 405 450Z" fill="#D9D9D9"/>
<path d="M346 94C346 96.7614 343.761 99 341 99C338.238 99 336 96.7614 336 94C336 91.2386 338.238 89 341 89C343.761 89 346 91.2386 346 94Z" fill="#D9D9D9"/>
<path d="M390 94C390 96.7614 387.761 99 385 99C382.238 99 380 96.7614 380 94C380 91.2386 382.238 89 385 89C387.761 89 390 91.2386 390 94Z" fill="#D9D9D9"/>
<path d="M302 128C302 130.761 299.761 133 297 133C294.238 133 292 130.761 292 128C292 125.238 294.238 123 297 123C299.761 123 302 125.238 302 128Z" fill="#D9D9D9"/>
<path d="M346 128C346 130.761 343.761 133 341 133C338.238 133 336 130.761 336 128C336 125.238 338.238 123 341 123C343.761 123 346 125.238 346 128Z" fill="#D9D9D9"/>
<path d="M390 128C390 130.761 387.761 133 385 133C382.238 133 380 130.761 380 128C380 125.238 382.238 123 385 123C387.761 123 390 125.238 390 128Z" fill="#D9D9D9"/>
<path d="M430 94C430 96.7614 427.761 99 425 99C422.238 99 420 96.7614 420 94C420 91.2386 422.238 89 425 89C427.761 89 430 91.2386 430 94Z" fill="#D9D9D9"/>
<path d="M474 94C474 96.7614 471.761 99 469 99C466.238 99 464 96.7614 464 94C464 91.2386 466.238 89 469 89C471.761 89 474 91.2386 474 94Z" fill="#D9D9D9"/>
<path d="M430 128C430 130.761 427.761 133 425 133C422.238 133 420 130.761 420 128C420 125.238 422.238 123 425 123C427.761 123 430 125.238 430 128Z" fill="#D9D9D9"/>
<path d="M474 128C474 130.761 471.761 133 469 133C466.238 133 464 130.761 464 128C464 125.238 466.238 123 469 123C471.761 123 474 125.238 474 128Z" fill="#D9D9D9"/>
<path d="M518 128C518 130.761 515.761 133 513 133C510.238 133 508 130.761 508 128C508 125.238 510.238 123 513 123C515.761 123 518 125.238 518 128Z" fill="#D9D9D9"/>
<path d="M302 201C302 203.761 299.761 206 297 206C294.238 206 292 203.761 292 201C292 198.238 294.238 196 297 196C299.761 196 302 198.238 302 201Z" fill="#D9D9D9"/>
<path d="M346 201C346 203.761 343.761 206 341 206C338.238 206 336 203.761 336 201C336 198.238 338.238 196 341 196C343.761 196 346 198.238 346 201Z" fill="#D9D9D9"/>
<path d="M390 201C390 203.761 387.761 206 385 206C382.238 206 380 203.761 380 201C380 198.238 382.238 196 385 196C387.761 196 390 198.238 390 201Z" fill="#D9D9D9"/>
<path d="M302 167C302 169.761 299.761 172 297 172C294.238 172 292 169.761 292 167C292 164.238 294.238 162 297 162C299.761 162 302 164.238 302 167Z" fill="#D9D9D9"/>
<path d="M346 167C346 169.761 343.761 172 341 172C338.238 172 336 169.761 336 167C336 164.238 338.238 162 341 162C343.761 162 346 164.238 346 167Z" fill="#D9D9D9"/>
<path d="M390 167C390 169.761 387.761 172 385 172C382.238 172 380 169.761 380 167C380 164.238 382.238 162 385 162C387.761 162 390 164.238 390 167Z" fill="#D9D9D9"/>
<path d="M302 235C302 237.761 299.761 240 297 240C294.238 240 292 237.761 292 235C292 232.238 294.238 230 297 230C299.761 230 302 232.238 302 235Z" fill="#D9D9D9"/>
<path d="M346 235C346 237.761 343.761 240 341 240C338.238 240 336 237.761 336 235C336 232.238 338.238 230 341 230C343.761 230 346 232.238 346 235Z" fill="#D9D9D9"/>
<path d="M390 235C390 237.761 387.761 240 385 240C382.238 240 380 237.761 380 235C380 232.238 382.238 230 385 230C387.761 230 390 232.238 390 235Z" fill="#D9D9D9"/>
<path d="M430 201C430 203.761 427.761 206 425 206C422.238 206 420 203.761 420 201C420 198.238 422.238 196 425 196C427.761 196 430 198.238 430 201Z" fill="#D9D9D9"/>
<path d="M474 201C474 203.761 471.761 206 469 206C466.238 206 464 203.761 464 201C464 198.238 466.238 196 469 196C471.761 196 474 198.238 474 201Z" fill="#D9D9D9"/>
<path d="M518 201C518 203.761 515.761 206 513 206C510.238 206 508 203.761 508 201C508 198.238 510.238 196 513 196C515.761 196 518 198.238 518 201Z" fill="#D9D9D9"/>
<path d="M430 167C430 169.761 427.761 172 425 172C422.238 172 420 169.761 420 167C420 164.238 422.238 162 425 162C427.761 162 430 164.238 430 167Z" fill="#D9D9D9"/>
<path d="M474 167C474 169.761 471.761 172 469 172C466.238 172 464 169.761 464 167C464 164.238 466.238 162 469 162C471.761 162 474 164.238 474 167Z" fill="#D9D9D9"/>
<path d="M518 167C518 169.761 515.761 172 513 172C510.238 172 508 169.761 508 167C508 164.238 510.238 162 513 162C515.761 162 518 164.238 518 167Z" fill="#D9D9D9"/>
<path d="M430 235C430 237.761 427.761 240 425 240C422.238 240 420 237.761 420 235C420 232.238 422.238 230 425 230C427.761 230 430 232.238 430 235Z" fill="#D9D9D9"/>
<path d="M474 235C474 237.761 471.761 240 469 240C466.238 240 464 237.761 464 235C464 232.238 466.238 230 469 230C471.761 230 474 232.238 474 235Z" fill="#D9D9D9"/>
<path d="M518 235C518 237.761 515.761 240 513 240C510.238 240 508 237.761 508 235C508 232.238 510.238 230 513 230C515.761 230 518 232.238 518 235Z" fill="#D9D9D9"/>
<path d="M460 309C460 311.761 457.761 314 455 314C452.238 314 450 311.761 450 309C450 306.238 452.238 304 455 304C457.761 304 460 306.238 460 309Z" fill="#D9D9D9"/>
<path d="M504 309C504 311.761 501.761 314 499 314C496.238 314 494 311.761 494 309C494 306.238 496.238 304 499 304C501.761 304 504 306.238 504 309Z" fill="#D9D9D9"/>
<path d="M548 309C548 311.761 545.761 314 543 314C540.238 314 538 311.761 538 309C538 306.238 540.238 304 543 304C545.761 304 548 306.238 548 309Z" fill="#D9D9D9"/>
<path d="M460 275C460 277.761 457.761 280 455 280C452.238 280 450 277.761 450 275C450 272.238 452.238 270 455 270C457.761 270 460 272.238 460 275Z" fill="#D9D9D9"/>
<path d="M504 275C504 277.761 501.761 280 499 280C496.238 280 494 277.761 494 275C494 272.238 496.238 270 499 270C501.761 270 504 272.238 504 275Z" fill="#D9D9D9"/>
<path d="M548 275C548 277.761 545.761 280 543 280C540.238 280 538 277.761 538 275C538 272.238 540.238 270 543 270C545.761 270 548 272.238 548 275Z" fill="#D9D9D9"/>
<path d="M460 343C460 345.761 457.761 348 455 348C452.238 348 450 345.761 450 343C450 340.238 452.238 338 455 338C457.761 338 460 340.238 460 343Z" fill="#D9D9D9"/>
<path d="M504 343C504 345.761 501.761 348 499 348C496.238 348 494 345.761 494 343C494 340.238 496.238 338 499 338C501.761 338 504 340.238 504 343Z" fill="#D9D9D9"/>
<path d="M548 343C548 345.761 545.761 348 543 348C540.238 348 538 345.761 538 343C538 340.238 540.238 338 543 338C545.761 338 548 340.238 548 343Z" fill="#D9D9D9"/>
<path d="M588 309C588 311.761 585.761 314 583 314C580.238 314 578 311.761 578 309C578 306.238 580.238 304 583 304C585.761 304 588 306.238 588 309Z" fill="#D9D9D9"/>
<path d="M632 309C632 311.761 629.761 314 627 314C624.238 314 622 311.761 622 309C622 306.238 624.238 304 627 304C629.761 304 632 306.238 632 309Z" fill="#D9D9D9"/>
<path d="M676 309C676 311.761 673.761 314 671 314C668.238 314 666 311.761 666 309C666 306.238 668.238 304 671 304C673.761 304 676 306.238 676 309Z" fill="#D9D9D9"/>
<path d="M588 275C588 277.761 585.761 280 583 280C580.238 280 578 277.761 578 275C578 272.238 580.238 270 583 270C585.761 270 588 272.238 588 275Z" fill="#D9D9D9"/>
<path d="M632 275C632 277.761 629.761 280 627 280C624.238 280 622 277.761 622 275C622 272.238 624.238 270 627 270C629.761 270 632 272.238 632 275Z" fill="#D9D9D9"/>
<path d="M676 275C676 277.761 673.761 280 671 280C668.238 280 666 277.761 666 275C666 272.238 668.238 270 671 270C673.761 270 676 272.238 676 275Z" fill="#D9D9D9"/>
<path d="M588 343C588 345.761 585.761 348 583 348C580.238 348 578 345.761 578 343C578 340.238 580.238 338 583 338C585.761 338 588 340.238 588 343Z" fill="#D9D9D9"/>
<path d="M632 343C632 345.761 629.761 348 627 348C624.238 348 622 345.761 622 343C622 340.238 624.238 338 627 338C629.761 338 632 340.238 632 343Z" fill="#D9D9D9"/>
<path d="M676 343C676 345.761 673.761 348 671 348C668.238 348 666 345.761 666 343C666 340.238 668.238 338 671 338C673.761 338 676 340.238 676 343Z" fill="#D9D9D9"/>
<path d="M460 416C460 418.761 457.761 421 455 421C452.238 421 450 418.761 450 416C450 413.238 452.238 411 455 411C457.761 411 460 413.238 460 416Z" fill="#D9D9D9"/>
<path d="M504 416C504 418.761 501.761 421 499 421C496.238 421 494 418.761 494 416C494 413.238 496.238 411 499 411C501.761 411 504 413.238 504 416Z" fill="#D9D9D9"/>
<path d="M548 416C548 418.761 545.761 421 543 421C540.238 421 538 418.761 538 416C538 413.238 540.238 411 543 411C545.761 411 548 413.238 548 416Z" fill="#D9D9D9"/>
<path d="M460 382C460 384.761 457.761 387 455 387C452.238 387 450 384.761 450 382C450 379.238 452.238 377 455 377C457.761 377 460 379.238 460 382Z" fill="#D9D9D9"/>
<path d="M504 382C504 384.761 501.761 387 499 387C496.238 387 494 384.761 494 382C494 379.238 496.238 377 499 377C501.761 377 504 379.238 504 382Z" fill="#D9D9D9"/>
<path d="M548 382C548 384.761 545.761 387 543 387C540.238 387 538 384.761 538 382C538 379.238 540.238 377 543 377C545.761 377 548 379.238 548 382Z" fill="#D9D9D9"/>
<path d="M460 450C460 452.761 457.761 455 455 455C452.238 455 450 452.761 450 450C450 447.238 452.238 445 455 445C457.761 445 460 447.238 460 450Z" fill="#D9D9D9"/>
<path d="M504 450C504 452.761 501.761 455 499 455C496.238 455 494 452.761 494 450C494 447.238 496.238 445 499 445C501.761 445 504 447.238 504 450Z" fill="#D9D9D9"/>
<path d="M548 450C548 452.761 545.761 455 543 455C540.238 455 538 452.761 538 450C538 447.238 540.238 445 543 445C545.761 445 548 447.238 548 450Z" fill="#D9D9D9"/>
<path d="M588 416C588 418.761 585.761 421 583 421C580.238 421 578 418.761 578 416C578 413.238 580.238 411 583 411C585.761 411 588 413.238 588 416Z" fill="#D9D9D9"/>
<path d="M632 416C632 418.761 629.761 421 627 421C624.238 421 622 418.761 622 416C622 413.238 624.238 411 627 411C629.761 411 632 413.238 632 416Z" fill="#D9D9D9"/>
<path d="M676 416C676 418.761 673.761 421 671 421C668.238 421 666 418.761 666 416C666 413.238 668.238 411 671 411C673.761 411 676 413.238 676 416Z" fill="#D9D9D9"/>
<path d="M588 382C588 384.761 585.761 387 583 387C580.238 387 578 384.761 578 382C578 379.238 580.238 377 583 377C585.761 377 588 379.238 588 382Z" fill="#D9D9D9"/>
<path d="M632 382C632 384.761 629.761 387 627 387C624.238 387 622 384.761 622 382C622 379.238 624.238 377 627 377C629.761 377 632 379.238 632 382Z" fill="#D9D9D9"/>
<path d="M676 382C676 384.761 673.761 387 671 387C668.238 387 666 384.761 666 382C666 379.238 668.238 377 671 377C673.761 377 676 379.238 676 382Z" fill="#D9D9D9"/>
<path d="M588 450C588 452.761 585.761 455 583 455C580.238 455 578 452.761 578 450C578 447.238 580.238 445 583 445C585.761 445 588 447.238 588 450Z" fill="#D9D9D9"/>
<path d="M632 450C632 452.761 629.761 455 627 455C624.238 455 622 452.761 622 450C622 447.238 624.238 445 627 445C629.761 445 632 447.238 632 450Z" fill="#D9D9D9"/>
<path d="M676 450C676 452.761 673.761 455 671 455C668.238 455 666 452.761 666 450C666 447.238 668.238 445 671 445C673.761 445 676 447.238 676 450Z" fill="#D9D9D9"/>
<path d="M347.003 309.001C347.003 332.197 328.199 351.001 305.003 351.001C281.807 351.001 263.003 332.197 263.003 309.001C273 296 287 286 305.003 267.001C328.199 267.001 347.003 285.805 347.003 309.001Z" fill="#FFE4E4"/>
<path d="M555.003 253.001C555.003 276.197 536.199 295.001 513.003 295.001C489.807 295.001 471.003 276.197 471.003 253.001C471.003 229.805 489.807 211.001 513.003 211.001C536.199 211.001 555.003 229.805 555.003 253.001Z" fill="#DCFFCA"/>
<path d="M660.003 424.001C660.003 447.197 641.199 466.001 618.003 466.001C594.807 466.001 576.003 447.197 576.003 424.001C576.003 400.805 594.807 382.001 618.003 382.001C641.199 382.001 660.003 400.805 660.003 424.001Z" fill="#F7D6FF"/>
<path d="M508.003 390.001C508.003 413.197 489.199 432.001 466.003 432.001C442.807 432.001 424.003 413.197 424.003 390.001C424.003 366.805 442.807 348.001 466.003 348.001C489.199 348.001 508.003 366.805 508.003 390.001Z" fill="#74D762"/>
<path d="M369.003 471.001C369.003 494.197 350.199 513.001 327.003 513.001C303.807 513.001 285.003 494.197 285.003 471.001C285.003 447.805 303.807 429.001 327.003 429.001C350.199 429.001 369.003 447.805 369.003 471.001Z" fill="#FFF86D"/>
<path d="M287.185 500.432C278.842 489.487 275.577 477.264 277.389 463.763C279.201 450.262 285.579 439.341 296.525 430.998C298.573 429.437 300.731 428.067 302.998 426.887C305.263 425.727 307.693 424.724 310.287 423.88L301.313 359.805C294.428 359.338 287.878 357.43 281.663 354.081C275.448 350.732 270.098 346.115 265.611 340.228C257.268 329.282 254.041 317.039 255.929 303.499C257.783 289.983 261.5 292.246 276.97 292.246C287.993 283.844 288.108 263 302.998 258.5C316.578 260.252 336.689 268.749 345.032 279.694C349.792 285.939 352.942 292.8 354.483 300.277C356.024 307.755 355.855 315.111 353.975 322.348L427.816 358.293C433.167 351.525 439.798 346.506 447.71 343.236C455.621 339.966 463.847 338.862 472.389 339.925L487.535 295.1C484.895 293.679 482.365 291.892 479.945 289.738C477.531 287.615 475.3 285.211 473.253 282.525C464.91 271.579 461.683 259.336 463.57 245.795C465.436 232.272 471.875 221.313 482.887 212.919C493.9 204.526 506.205 201.206 519.804 202.961C533.383 204.714 544.348 211.068 552.699 222.024C561.05 232.981 564.354 245.325 562.612 259.056C560.878 272.798 554.493 283.875 543.458 292.285C538.086 296.38 532.256 299.222 525.967 300.814C519.677 302.405 513.41 302.794 507.164 301.981L492.112 346.894C494.803 348.381 497.273 350.09 499.522 352.02C501.772 353.95 503.9 356.221 505.908 358.831C509.473 363.509 512.102 368.467 513.795 373.706C515.51 378.928 516.276 384.192 516.092 389.498L573.046 403.149C574.829 399.684 576.855 396.388 579.125 393.261C581.383 390.142 584.157 387.328 587.448 384.82C598.483 376.41 610.783 373.095 624.348 374.875C637.913 376.656 648.871 383.024 657.222 393.981C665.573 404.937 668.883 417.277 667.152 430.999C665.42 444.722 659.053 455.786 648.049 464.19C637.045 472.595 624.666 475.819 610.914 473.863C597.181 471.909 586.135 465.449 577.776 454.481C574.15 449.724 571.608 444.753 570.15 439.566C568.702 434.37 568.065 429.124 568.238 423.825L511.426 410.571C509.715 414.316 507.637 417.741 505.19 420.844C502.743 423.948 499.914 426.714 496.705 429.142C485.681 437.544 473.314 440.76 459.604 438.789C445.894 436.819 434.855 430.344 426.487 419.365C421.701 413.086 418.665 406.271 417.378 398.918C416.1 391.577 416.402 384.278 418.285 377.022L344.621 341.101C341.961 345.04 338.689 348.268 334.805 350.786C330.913 353.293 326.7 355.38 322.168 357.047L330.879 420.95C337.764 421.418 344.262 423.259 350.375 426.473C356.487 429.688 361.777 434.237 366.244 440.121C374.604 451.089 377.949 463.428 376.279 477.139C374.612 490.83 368.3 501.851 357.344 510.202C346.387 518.553 334.048 521.747 320.327 519.785C306.583 517.84 295.54 511.395 287.197 500.449M282.526 327.601C287.38 333.969 293.724 337.732 301.56 338.889C309.385 340.056 316.543 338.165 323.034 333.218C329.525 328.27 333.323 321.855 334.427 313.972C335.531 306.088 333.576 298.846 328.563 292.246C323.787 285.979 317.495 282.344 309.688 281.34C301.882 280.337 294.688 282.343 288.107 287.359C281.84 292.136 278.128 298.442 276.97 306.278C275.82 314.125 277.672 321.233 282.526 327.601ZM490.172 269.868C495.034 276.247 501.373 280.014 509.189 281.169C517.025 282.327 524.183 280.437 530.663 275.498C537.154 270.55 540.907 264.169 541.922 256.354C542.914 248.556 540.902 241.367 535.886 234.786C531.109 228.519 524.79 224.905 516.927 223.944C509.065 222.983 502 224.892 495.733 229.668C489.465 234.445 485.758 240.747 484.612 248.575C483.465 256.402 485.33 263.491 490.172 269.868ZM303.755 488.015C308.609 494.383 314.905 498.094 322.645 499.149C330.393 500.214 337.512 498.273 344.003 493.326C350.495 488.379 354.263 482.029 355.309 474.279C356.355 466.528 354.404 459.407 349.457 452.916C344.68 446.649 338.328 442.98 330.399 441.91C322.452 440.838 315.344 442.69 309.077 447.467C302.809 452.244 299.145 458.602 298.084 466.541C297.022 474.48 298.913 481.638 303.755 488.015ZM443.325 406.637C448.187 413.016 454.488 416.733 462.228 417.787C469.967 418.842 477.082 416.895 483.573 411.948C490.064 407 493.839 400.647 494.896 392.888C495.95 385.149 494 378.028 489.044 371.525C484.267 365.258 477.909 361.594 469.969 360.532C462.021 359.46 454.914 361.312 448.647 366.089C442.379 370.866 438.715 377.224 437.654 385.163C436.592 393.102 438.483 400.26 443.325 406.637ZM594.678 441.837C599.54 448.216 605.88 451.983 613.696 453.138C621.532 454.296 628.695 452.402 635.186 447.454C641.677 442.507 645.425 436.13 646.428 428.323C647.431 420.517 645.425 413.323 640.409 406.742C635.633 400.475 629.369 396.818 621.618 395.772C613.868 394.726 606.743 396.672 600.243 401.608C593.987 406.376 590.284 412.684 589.135 420.531C587.977 428.367 589.825 435.469 594.678 441.837Z" fill="black"/>
<path d="M22.6916 41.8256L248.878 273.678L270.906 286L274.906 285.5L275.406 282L267.283 255.771L41.6154 23.4055L22.6916 41.8256ZM4.2634 22.9018L22.6835 41.8257L41.6154 23.4055L23.1872 4.48168C20.744 1.97329 17.4047 0.537707 13.9034 0.490482C10.402 0.443256 7.02525 1.78825 4.51525 4.22984C2.00685 6.67307 0.571256 10.0123 0.52403 13.5137C0.476804 17.015 1.82181 20.3918 4.2634 22.9018Z" fill="black"/>
</svg>
