<svg width="123" height="128" viewBox="0 0 123 128" fill="none" xmlns="http://www.w3.org/2000/svg">
<path d="M28.1138 112.6C28.1138 109.362 26.821 106.257 24.5197 103.967C22.2185 101.678 19.0974 100.391 15.843 100.391C12.5886 100.391 9.4675 101.678 7.16628 103.967C4.86507 106.257 3.57227 109.362 3.57227 112.6C3.57227 115.838 4.86507 118.944 7.16628 121.234C9.4675 123.523 12.5886 124.809 15.843 124.809C19.0974 124.809 22.2185 123.523 24.5197 121.234C26.821 118.944 28.1138 115.838 28.1138 112.6ZM89.4675 14.9282C89.4675 11.6901 88.1747 8.5847 85.8735 6.29506C83.5723 4.00542 80.4512 2.71912 77.1968 2.71912C73.9424 2.71912 70.8213 4.00542 68.52 6.29506C66.2188 8.5847 64.926 11.6901 64.926 14.9282C64.926 18.1662 66.2188 21.2716 68.52 23.5612C70.8213 25.8509 73.9424 27.1372 77.1968 27.1372C80.4512 27.1372 83.5723 25.8509 85.8735 23.5612C88.1747 21.2716 89.4675 18.1662 89.4675 14.9282ZM89.4675 112.6C89.4675 109.362 88.1747 106.257 85.8735 103.967C83.5723 101.678 80.4512 100.391 77.1968 100.391C73.9424 100.391 70.8213 101.678 68.52 103.967C66.2188 106.257 64.926 109.362 64.926 112.6C64.926 115.838 66.2188 118.944 68.52 121.234C70.8213 123.523 73.9424 124.809 77.1968 124.809C80.4512 124.809 83.5723 123.523 85.8735 121.234C88.1747 118.944 89.4675 115.838 89.4675 112.6ZM58.7906 63.7643C58.7906 60.5263 57.4978 57.4208 55.1966 55.1312C52.8954 52.8416 49.7743 51.5553 46.5199 51.5553C43.2655 51.5553 40.1444 52.8416 37.8432 55.1312C35.542 57.4208 34.2491 60.5263 34.2491 63.7643C34.2491 67.0023 35.542 70.1077 37.8432 72.3974C40.1444 74.687 43.2655 75.9733 46.5199 75.9733C49.7743 75.9733 52.8954 74.687 55.1966 72.3974C57.4978 70.1077 58.7906 67.0023 58.7906 63.7643ZM120.144 63.7643C120.144 60.5263 118.852 57.4208 116.55 55.1312C114.249 52.8416 111.128 51.5553 107.874 51.5553C104.619 51.5553 101.498 52.8416 99.1969 55.1312C96.8957 57.4208 95.6029 60.5263 95.6029 63.7643C95.6029 67.0023 96.8957 70.1077 99.1969 72.3974C101.498 74.687 104.619 75.9733 107.874 75.9733C111.128 75.9733 114.249 74.687 116.55 72.3974C118.852 70.1077 120.144 67.0023 120.144 63.7643ZM22.3342 102.259L40.0041 74.142ZM53.0295 53.4049L70.681 25.2997ZM53.0541 74.1725L70.6994 102.253ZM83.7187 25.3058L101.395 53.4477Z" fill="white"/>
<path d="M22.3342 102.259L40.0041 74.142M53.0295 53.4049L70.681 25.2997M53.0541 74.1725L70.6994 102.253M83.7187 25.3058L101.395 53.4477M28.1138 112.6C28.1138 109.362 26.821 106.257 24.5197 103.967C22.2185 101.678 19.0974 100.391 15.843 100.391C12.5886 100.391 9.4675 101.678 7.16628 103.967C4.86507 106.257 3.57227 109.362 3.57227 112.6C3.57227 115.838 4.86507 118.944 7.16628 121.234C9.4675 123.523 12.5886 124.809 15.843 124.809C19.0974 124.809 22.2185 123.523 24.5197 121.234C26.821 118.944 28.1138 115.838 28.1138 112.6ZM89.4675 14.9282C89.4675 11.6901 88.1747 8.5847 85.8735 6.29506C83.5723 4.00542 80.4512 2.71912 77.1968 2.71912C73.9424 2.71912 70.8213 4.00542 68.52 6.29506C66.2188 8.5847 64.926 11.6901 64.926 14.9282C64.926 18.1662 66.2188 21.2716 68.52 23.5612C70.8213 25.8509 73.9424 27.1372 77.1968 27.1372C80.4512 27.1372 83.5723 25.8509 85.8735 23.5612C88.1747 21.2716 89.4675 18.1662 89.4675 14.9282ZM89.4675 112.6C89.4675 109.362 88.1747 106.257 85.8735 103.967C83.5723 101.678 80.4512 100.391 77.1968 100.391C73.9424 100.391 70.8213 101.678 68.52 103.967C66.2188 106.257 64.926 109.362 64.926 112.6C64.926 115.838 66.2188 118.944 68.52 121.234C70.8213 123.523 73.9424 124.809 77.1968 124.809C80.4512 124.809 83.5723 123.523 85.8735 121.234C88.1747 118.944 89.4675 115.838 89.4675 112.6ZM58.7906 63.7643C58.7906 60.5263 57.4978 57.4208 55.1966 55.1312C52.8954 52.8416 49.7743 51.5553 46.5199 51.5553C43.2655 51.5553 40.1444 52.8416 37.8432 55.1312C35.542 57.4208 34.2491 60.5263 34.2491 63.7643C34.2491 67.0023 35.542 70.1077 37.8432 72.3974C40.1444 74.687 43.2655 75.9733 46.5199 75.9733C49.7743 75.9733 52.8954 74.687 55.1966 72.3974C57.4978 70.1077 58.7906 67.0023 58.7906 63.7643ZM120.144 63.7643C120.144 60.5263 118.852 57.4208 116.55 55.1312C114.249 52.8416 111.128 51.5553 107.874 51.5553C104.619 51.5553 101.498 52.8416 99.1969 55.1312C96.8957 57.4208 95.6029 60.5263 95.6029 63.7643C95.6029 67.0023 96.8957 70.1077 99.1969 72.3974C101.498 74.687 104.619 75.9733 107.874 75.9733C111.128 75.9733 114.249 74.687 116.55 72.3974C118.852 70.1077 120.144 67.0023 120.144 63.7643Z" stroke="white" stroke-width="5.33333" stroke-linecap="round" stroke-linejoin="round"/>
</svg>
