<svg width="175" height="39" viewBox="0 0 175 39" fill="none" xmlns="http://www.w3.org/2000/svg">
<path d="M12.1656 28H5.9042L15.4447 0.363647H22.9745L32.5015 28H26.2401L19.3175 6.67899H19.1016L12.1656 28ZM11.7742 17.1371H26.564V21.6982H11.7742V17.1371Z" fill="white"/>
<path d="M41.4685 0.363647V28H35.7199V0.363647H41.4685Z" fill="white"/>
<path d="M55.4115 36.2046C53.5493 36.2046 51.9524 35.9482 50.621 35.4354C49.2986 34.9316 48.246 34.2434 47.4633 33.3708C46.6807 32.4981 46.1724 31.5175 45.9385 30.429L51.2552 29.7138C51.4172 30.1276 51.6736 30.5145 52.0244 30.8743C52.3753 31.2342 52.8386 31.522 53.4143 31.7379C53.9991 31.9628 54.7098 32.0753 55.5464 32.0753C56.7969 32.0753 57.827 31.7694 58.6366 31.1577C59.4553 30.5549 59.8646 29.5429 59.8646 28.1215V24.3296H59.6217C59.3698 24.9053 58.992 25.4496 58.4882 25.9624C57.9844 26.4752 57.3367 26.8935 56.545 27.2173C55.7533 27.5412 54.8087 27.7031 53.7112 27.7031C52.1548 27.7031 50.7379 27.3433 49.4605 26.6236C48.192 25.8949 47.1799 24.7839 46.4243 23.2905C45.6776 21.7881 45.3042 19.8899 45.3042 17.5959C45.3042 15.2479 45.6866 13.2867 46.4512 11.7124C47.2159 10.138 48.2325 8.95953 49.501 8.17686C50.7784 7.39419 52.1773 7.00285 53.6977 7.00285C54.8582 7.00285 55.8298 7.20077 56.6125 7.5966C57.3951 7.98344 58.0249 8.46923 58.5017 9.05399C58.9875 9.62975 59.3608 10.1965 59.6217 10.7543H59.8376V7.27274H65.5457V28.2024C65.5457 29.9657 65.1139 31.4411 64.2503 32.6286C63.3866 33.8161 62.1901 34.7067 60.6608 35.3004C59.1404 35.9032 57.3906 36.2046 55.4115 36.2046ZM55.5329 23.385C56.4595 23.385 57.2422 23.1556 57.8809 22.6967C58.5287 22.2289 59.0235 21.5632 59.3653 20.6996C59.7162 19.827 59.8916 18.7834 59.8916 17.5689C59.8916 16.3544 59.7207 15.3019 59.3788 14.4112C59.037 13.5116 58.5422 12.8144 57.8944 12.3196C57.2467 11.8248 56.4595 11.5774 55.5329 11.5774C54.5883 11.5774 53.7922 11.8338 53.1444 12.3466C52.4967 12.8504 52.0064 13.5521 51.6735 14.4517C51.3407 15.3513 51.1743 16.3904 51.1743 17.5689C51.1743 18.7654 51.3407 19.8 51.6735 20.6726C52.0154 21.5362 52.5057 22.2065 53.1444 22.6833C53.7922 23.1511 54.5883 23.385 55.5329 23.385Z" fill="white"/>
<path d="M79.4853 28.4048C77.3892 28.4048 75.5765 27.9595 74.0471 27.0689C72.5268 26.1693 71.3528 24.9188 70.5251 23.3175C69.6975 21.7072 69.2836 19.8404 69.2836 17.7173C69.2836 15.5762 69.6975 13.705 70.5251 12.1037C71.3528 10.4934 72.5268 9.24291 74.0471 8.35228C75.5765 7.45266 77.3892 7.00285 79.4853 7.00285C81.5815 7.00285 83.3897 7.45266 84.9101 8.35228C86.4394 9.24291 87.6179 10.4934 88.4456 12.1037C89.2732 13.705 89.687 15.5762 89.687 17.7173C89.687 19.8404 89.2732 21.7072 88.4456 23.3175C87.6179 24.9188 86.4394 26.1693 84.9101 27.0689C83.3897 27.9595 81.5815 28.4048 79.4853 28.4048ZM79.5123 23.9517C80.4659 23.9517 81.2621 23.6818 81.9008 23.1421C82.5396 22.5933 83.0208 21.8466 83.3447 20.902C83.6776 19.9574 83.844 18.8824 83.844 17.6769C83.844 16.4714 83.6776 15.3963 83.3447 14.4517C83.0208 13.5071 82.5396 12.7604 81.9008 12.2117C81.2621 11.6629 80.4659 11.3885 79.5123 11.3885C78.5497 11.3885 77.7401 11.6629 77.0834 12.2117C76.4356 12.7604 75.9453 13.5071 75.6125 14.4517C75.2886 15.3963 75.1267 16.4714 75.1267 17.6769C75.1267 18.8824 75.2886 19.9574 75.6125 20.902C75.9453 21.8466 76.4356 22.5933 77.0834 23.1421C77.7401 23.6818 78.5497 23.9517 79.5123 23.9517Z" fill="white"/>
<path d="M93.5329 28V0.363647H104.436C106.532 0.363647 108.318 0.763979 109.794 1.56464C111.269 2.35631 112.393 3.45834 113.167 4.87075C113.95 6.27416 114.341 7.89348 114.341 9.7287C114.341 11.5639 113.945 13.1833 113.154 14.5867C112.362 15.9901 111.215 17.0831 109.713 17.8658C108.219 18.6484 106.411 19.0398 104.288 19.0398H97.3383V14.3573H103.343C104.468 14.3573 105.394 14.1638 106.123 13.777C106.861 13.3812 107.41 12.8369 107.769 12.1442C108.138 11.4425 108.323 10.6373 108.323 9.7287C108.323 8.81109 108.138 8.01043 107.769 7.32672C107.41 6.63401 106.861 6.09873 106.123 5.72089C105.385 5.33406 104.45 5.14064 103.316 5.14064H99.376V28H93.5329Z" fill="white"/>
<path d="M127.141 28.4048C125.008 28.4048 123.173 27.973 121.635 27.1094C120.105 26.2368 118.927 25.0043 118.099 23.4119C117.272 21.8106 116.858 19.9169 116.858 17.7308C116.858 15.5987 117.272 13.7275 118.099 12.1172C118.927 10.5069 120.092 9.25191 121.594 8.35228C123.106 7.45266 124.878 7.00285 126.911 7.00285C128.279 7.00285 129.552 7.22326 130.73 7.66407C131.918 8.09589 132.952 8.74812 133.834 9.62075C134.724 10.4934 135.417 11.5909 135.912 12.9134C136.407 14.2268 136.654 15.7652 136.654 17.5284V19.1073H119.152V15.5448H131.243C131.243 14.7171 131.063 13.9839 130.703 13.3452C130.343 12.7065 129.844 12.2072 129.205 11.8473C128.575 11.4785 127.842 11.294 127.006 11.294C126.133 11.294 125.359 11.4965 124.685 11.9013C124.019 12.2971 123.497 12.8324 123.119 13.5071C122.741 14.1728 122.548 14.915 122.539 15.7337V19.1208C122.539 20.1463 122.728 21.0324 123.106 21.7791C123.493 22.5258 124.037 23.1016 124.739 23.5064C125.44 23.9112 126.272 24.1136 127.235 24.1136C127.874 24.1136 128.458 24.0237 128.989 23.8438C129.52 23.6638 129.974 23.394 130.352 23.0341C130.73 22.6743 131.018 22.2334 131.216 21.7117L136.533 22.0625C136.263 23.34 135.709 24.4555 134.873 25.4091C134.045 26.3537 132.975 27.0914 131.661 27.6222C130.357 28.144 128.85 28.4048 127.141 28.4048Z" fill="white"/>
<path d="M146.154 16.0171V28H140.405V7.27274H145.884V10.9297H146.127C146.586 9.72421 147.355 8.77061 148.435 8.0689C149.514 7.3582 150.823 7.00285 152.361 7.00285C153.801 7.00285 155.056 7.31772 156.126 7.94745C157.197 8.57719 158.029 9.47681 158.623 10.6463C159.217 11.8068 159.513 13.1922 159.513 14.8026V28H153.765V15.8281C153.774 14.5597 153.45 13.5701 152.793 12.8594C152.137 12.1397 151.232 11.7798 150.081 11.7798C149.307 11.7798 148.623 11.9463 148.03 12.2791C147.445 12.612 146.986 13.0978 146.653 13.7365C146.329 14.3663 146.163 15.1264 146.154 16.0171Z" fill="white"/>
<path d="M68.5093 38.5476H161.785L174.549 34.3017L161.785 31.1848L68.5093 31.1848V38.5476ZM4.98355 38.5476L42.9999 38.5488L42.9999 31.1848L4.98355 31.2569C3.85458 31.2666 2.77564 31.7242 1.98391 32.529C1.19219 33.3339 0.752428 34.4202 0.761364 35.5492C0.771037 36.6782 1.17919 37.208 1.98407 37.9998C2.78896 38.7915 3.85457 38.5565 4.98355 38.5476Z" fill="white"/>
</svg>
