<svg width="136" height="143" viewBox="0 0 136 143" fill="none" xmlns="http://www.w3.org/2000/svg">
<path d="M53.9848 0.93103V13.0743H0.961426V52.6189H10.2749V84.6745H0.989997V143H51.6998V139.03H106.173V125.064H135.444V75.9362H127.563V17.7068H106.796V0.931337H53.9851L53.9848 0.93103ZM59.726 6.6669H101.055L101.046 17.7065H80.0595V41.9925H105.03V56.303H110.772V36.2566H85.8004V23.4424H121.821V75.9362H93.8841V56.5814H57.8345V59.449L57.8253 80.9913V83.8593H81.0097V78.1234H63.5754V62.3166H88.1432L88.1426 101.229L31.0204 101.22V72.3114H43.8176V88.7892H49.5686V48.1691H70.1135V42.4335H43.8275V66.5746H25.2795V84.6745H16.0149V52.6195H33.6612V46.884H6.70324V18.8093H53.9848V28.3056H23.0522V34.0409H59.7257L59.726 6.6669ZM93.8841 81.6727H129.703V119.328H81.5864V125.064H100.422V133.294H51.7007V118.312H22.6107V124.048H45.9589V137.265H6.7315V90.4202H25.2798V106.956H28.1501L63.4126 106.965V126.915H69.1535V106.965H93.8841V97.2877H114.391V107.675H120.132V91.5515H93.8841V81.6727Z" fill="white"/>
<path d="M106.734 0.99353V17.7689H127.5V75.9984H135.381V125.002H106.11V138.967H51.6372V142.938H1.05225V84.7367H10.3374V52.556H1.02393V13.1371H54.0474V0.99353H106.734ZM59.6636 33.9779H23.1147V28.3685H54.0474V18.7465H6.64111V46.9467H33.5991V52.557H15.9526V84.7367H25.3423V66.6371H43.8901V42.4965H70.0513V48.1068H49.5063V88.7269H43.8804V72.2494H30.9575V101.283H31.02L88.1431 101.291H88.2056V62.2543H63.5132V78.1859H80.9468V83.7972H57.8882V80.9916L57.897 59.4486V56.6439H93.8218V75.9984H121.883V23.3802H85.7378V36.3187H110.709V56.2406H105.092V41.9301H80.1216V17.7689H101.109V17.7064L101.118 6.66736V6.60486H59.6636V33.9779ZM63.4751 106.903H63.4126L28.1499 106.893H25.3423V90.3578H6.66943V137.328H46.021V123.985H22.6733V118.374H51.6382V133.356H100.484V125.002H81.6489V119.391H129.766V81.6097H93.8218V91.6136H120.069V107.613H114.453V97.225H93.8218V106.903H69.0913V126.853H63.4751V106.903Z" stroke="white" stroke-opacity="0.24" stroke-width="0.125"/>
</svg>
