<svg width="622" height="645" viewBox="0 0 622 645" fill="none" xmlns="http://www.w3.org/2000/svg">
<path d="M602 378.737C602 448.049 467.238 504.237 301 504.237C134.762 504.237 0 448.049 0 378.737C0 309.425 134.762 253.237 301 253.237C467.238 253.237 602 309.425 602 378.737Z" fill="#74D762"/>
<path d="M455.82 636.868C396.38 672.519 278.879 585.85 193.374 443.288C107.869 300.726 86.7395 156.257 146.18 120.606C205.62 84.9552 323.121 171.624 408.626 314.186C494.131 456.748 515.26 601.218 455.82 636.868Z" fill="#74D762"/>
<path d="M348.141 614.931C278.964 610.607 231.293 472.602 241.663 306.688C252.034 140.775 316.52 9.78005 385.697 14.104C454.873 18.428 502.545 156.433 492.174 322.347C481.804 488.261 417.318 619.255 348.141 614.931Z" fill="#74D762"/>
<path d="M455.82 636.868C396.38 672.519 278.879 585.85 193.374 443.288C107.869 300.726 86.7395 156.257 146.18 120.606C205.62 84.9552 323.121 171.624 408.626 314.186C494.131 456.748 515.26 601.218 455.82 636.868Z" fill="#74D762"/>
<path d="M622 364.737C622 434.049 487.238 490.237 321 490.237C154.762 490.237 20 434.049 20 364.737C20 295.425 154.762 239.237 321 239.237C487.238 239.237 622 295.425 622 364.737Z" fill="black"/>
<path d="M475.82 622.868C416.38 658.519 298.879 571.85 213.374 429.288C127.869 286.726 106.74 142.257 166.18 106.606C225.62 70.9552 343.121 157.624 428.626 300.186C514.131 442.748 535.26 587.218 475.82 622.868Z" fill="black"/>
<path d="M368.141 600.931C298.964 596.607 251.293 458.602 261.663 292.688C272.034 126.775 336.52 -4.21995 405.697 0.10404C474.873 4.42803 522.545 142.433 512.174 308.347C501.804 474.261 437.318 605.255 368.141 600.931Z" fill="black"/>
<path d="M475.82 622.868C416.38 658.519 298.879 571.85 213.374 429.288C127.869 286.726 106.74 142.257 166.18 106.606C225.62 70.9552 343.121 157.624 428.626 300.186C514.131 442.748 535.26 587.218 475.82 622.868Z" fill="black"/>
</svg>
