<svg width="1039" height="748" viewBox="0 0 1039 748" fill="none" xmlns="http://www.w3.org/2000/svg">
<path d="M808 249C808 386.519 627.123 498 404 498C180.877 498 0 386.519 0 249C0 111.481 180.877 0 404 0C627.123 0 808 111.481 808 249Z" fill="#F7D6FF"/>
<path d="M642 526.5C642 404.169 507.685 305 342 305C176.315 305 42 404.169 42 526.5C42 648.831 176.315 748 342 748C507.685 748 642 648.831 642 526.5Z" fill="#DCFFCA"/>
<path d="M962.952 661.663C856.88 749.185 678.686 708.388 564.946 570.541C451.205 432.694 444.988 249.995 551.061 162.473C657.133 74.9508 835.326 115.747 949.067 253.595C1062.81 391.442 1069.02 574.14 962.952 661.663Z" fill="#FFE4E4"/>
<path d="M129.271 186.926H106L141.458 84.2117H169.444L204.852 186.926H181.581L155.852 107.683H155.05L129.271 186.926ZM127.817 146.552H182.785V163.504H127.817V146.552Z" fill="#FF0000"/>
<path d="M238.179 84.2117V186.926H216.814V84.2117H238.179Z" fill="#FF0000"/>
<path d="M290 217.419C283.079 217.419 277.144 216.466 272.196 214.56C267.281 212.688 263.369 210.13 260.46 206.887C257.551 203.644 255.662 199.999 254.793 195.953L274.553 193.295C275.155 194.833 276.108 196.271 277.412 197.609C278.716 198.946 280.438 200.016 282.578 200.818C284.751 201.654 287.392 202.072 290.502 202.072C295.149 202.072 298.978 200.935 301.987 198.662C305.03 196.422 306.551 192.66 306.551 187.377V173.284H305.648C304.712 175.424 303.308 177.447 301.435 179.353C299.563 181.258 297.155 182.813 294.213 184.017C291.271 185.221 287.76 185.822 283.681 185.822C277.897 185.822 272.63 184.485 267.883 181.81C263.168 179.102 259.407 174.973 256.598 169.422C253.823 163.839 252.435 156.784 252.435 148.258C252.435 139.531 253.856 132.242 256.698 126.391C259.54 120.539 263.319 116.159 268.033 113.251C272.781 110.342 277.98 108.887 283.631 108.887C287.944 108.887 291.555 109.623 294.464 111.094C297.373 112.532 299.713 114.337 301.485 116.51C303.291 118.65 304.678 120.757 305.648 122.83H306.451V109.89H327.665V187.678C327.665 194.232 326.061 199.715 322.851 204.128C319.641 208.542 315.194 211.852 309.51 214.059C303.859 216.299 297.356 217.419 290 217.419ZM290.452 169.773C293.895 169.773 296.804 168.921 299.178 167.216C301.586 165.477 303.425 163.003 304.695 159.793C305.999 156.55 306.651 152.671 306.651 148.157C306.651 143.643 306.016 139.731 304.745 136.421C303.475 133.078 301.636 130.487 299.228 128.648C296.821 126.809 293.895 125.889 290.452 125.889C286.941 125.889 283.982 126.842 281.574 128.748C279.167 130.62 277.345 133.228 276.108 136.572C274.871 139.915 274.252 143.777 274.252 148.157C274.252 152.604 274.871 156.449 276.108 159.693C277.378 162.902 279.201 165.393 281.574 167.165C283.982 168.904 286.941 169.773 290.452 169.773Z" fill="#FF0000"/>
<path d="M379.474 188.43C371.683 188.43 364.946 186.775 359.262 183.465C353.611 180.122 349.248 175.474 346.172 169.523C343.096 163.538 341.558 156.6 341.558 148.709C341.558 140.751 343.096 133.797 346.172 127.845C349.248 121.86 353.611 117.213 359.262 113.902C364.946 110.559 371.683 108.887 379.474 108.887C387.264 108.887 393.985 110.559 399.636 113.902C405.32 117.213 409.7 121.86 412.776 127.845C415.852 133.797 417.39 140.751 417.39 148.709C417.39 156.6 415.852 163.538 412.776 169.523C409.7 175.474 405.32 180.122 399.636 183.465C393.985 186.775 387.264 188.43 379.474 188.43ZM379.574 171.88C383.118 171.88 386.077 170.877 388.451 168.871C390.825 166.831 392.614 164.056 393.818 160.545C395.055 157.034 395.673 153.039 395.673 148.558C395.673 144.078 395.055 140.083 393.818 136.572C392.614 133.061 390.825 130.286 388.451 128.246C386.077 126.207 383.118 125.187 379.574 125.187C375.997 125.187 372.987 126.207 370.547 128.246C368.139 130.286 366.317 133.061 365.08 136.572C363.876 140.083 363.274 144.078 363.274 148.558C363.274 153.039 363.876 157.034 365.08 160.545C366.317 164.056 368.139 166.831 370.547 168.871C372.987 170.877 375.997 171.88 379.574 171.88Z" fill="#FF0000"/>
<path d="M355.653 305.131V202.417H396.177C403.967 202.417 410.604 203.905 416.087 206.88C421.571 209.823 425.75 213.919 428.626 219.168C431.535 224.384 432.989 230.402 432.989 237.223C432.989 244.044 431.518 250.062 428.576 255.278C425.633 260.494 421.37 264.557 415.787 267.466C410.236 270.375 403.516 271.829 395.625 271.829H369.796V254.426H392.114C396.294 254.426 399.737 253.707 402.446 252.269C405.188 250.798 407.227 248.775 408.564 246.201C409.935 243.593 410.621 240.6 410.621 237.223C410.621 233.813 409.935 230.837 408.564 228.296C407.227 225.721 405.188 223.732 402.446 222.328C399.704 220.89 396.227 220.171 392.014 220.171H377.369V305.131H355.653Z" fill="#FF0000"/>
<path d="M480.56 306.635C472.635 306.635 465.815 305.03 460.097 301.821C454.413 298.577 450.033 293.997 446.957 288.079C443.881 282.127 442.343 275.089 442.343 266.964C442.343 259.04 443.881 252.085 446.957 246.1C450.033 240.115 454.363 235.451 459.947 232.107C465.564 228.764 472.151 227.092 479.707 227.092C484.789 227.092 489.52 227.911 493.9 229.55C498.314 231.155 502.159 233.579 505.436 236.822C508.746 240.065 511.32 244.144 513.159 249.059C514.998 253.941 515.918 259.658 515.918 266.212V272.08H450.869V258.839H495.806C495.806 255.763 495.138 253.038 493.8 250.664C492.463 248.29 490.607 246.435 488.233 245.097C485.893 243.726 483.168 243.041 480.058 243.041C476.815 243.041 473.939 243.793 471.432 245.298C468.958 246.769 467.018 248.758 465.614 251.266C464.21 253.74 463.491 256.499 463.457 259.541V272.13C463.457 275.942 464.16 279.235 465.564 282.01C467.002 284.785 469.024 286.925 471.632 288.43C474.24 289.934 477.333 290.687 480.911 290.687C483.285 290.687 485.458 290.352 487.431 289.684C489.403 289.015 491.092 288.012 492.496 286.674C493.9 285.337 494.97 283.699 495.706 281.759L515.466 283.063C514.463 287.811 512.407 291.957 509.298 295.501C506.221 299.012 502.243 301.754 497.361 303.727C492.513 305.666 486.912 306.635 480.56 306.635Z" fill="#FF0000"/>
<path d="M551.226 260.595V305.131H529.86V228.095H550.223V241.687H551.125C552.831 237.206 555.689 233.662 559.702 231.054C563.714 228.413 568.579 227.092 574.296 227.092C579.646 227.092 584.31 228.262 588.289 230.603C592.268 232.943 595.361 236.287 597.568 240.634C599.774 244.947 600.878 250.096 600.878 256.081V305.131H579.512V259.892C579.546 255.178 578.342 251.5 575.901 248.859C573.46 246.184 570.1 244.846 565.82 244.846C562.945 244.846 560.404 245.465 558.197 246.702C556.024 247.939 554.319 249.745 553.081 252.119C551.878 254.459 551.259 257.284 551.226 260.595Z" fill="#FF0000"/>
<path d="M136.947 180.785H113.676L149.134 78.0712H177.12L212.528 180.785H189.257L163.528 101.543H162.726L136.947 180.785ZM135.492 140.412H190.46V157.364H135.492V140.412Z" fill="#FFF86D"/>
<path d="M245.855 78.0712V180.785H224.49V78.0712H245.855Z" fill="#FFF86D"/>
<path d="M297.676 211.279C290.755 211.279 284.82 210.326 279.871 208.42C274.956 206.547 271.044 203.99 268.136 200.746C265.227 197.503 263.338 193.859 262.468 189.813L282.229 187.155C282.83 188.693 283.783 190.131 285.087 191.468C286.391 192.805 288.113 193.875 290.253 194.678C292.426 195.514 295.068 195.932 298.177 195.932C302.825 195.932 306.653 194.795 309.663 192.521C312.705 190.281 314.227 186.52 314.227 181.237V167.144H313.324C312.388 169.283 310.983 171.306 309.111 173.212C307.238 175.118 304.831 176.673 301.889 177.876C298.946 179.08 295.436 179.682 291.357 179.682C285.572 179.682 280.306 178.345 275.558 175.67C270.844 172.961 267.082 168.832 264.274 163.282C261.499 157.698 260.111 150.643 260.111 142.117C260.111 133.39 261.532 126.101 264.374 120.25C267.216 114.399 270.994 110.019 275.709 107.11C280.457 104.201 285.656 102.747 291.306 102.747C295.62 102.747 299.231 103.482 302.14 104.953C305.048 106.391 307.389 108.197 309.161 110.37C310.967 112.51 312.354 114.616 313.324 116.689H314.126V103.75H335.341V181.538C335.341 188.091 333.736 193.574 330.526 197.988C327.317 202.401 322.87 205.712 317.186 207.918C311.535 210.158 305.032 211.279 297.676 211.279ZM298.127 163.633C301.571 163.633 304.48 162.78 306.854 161.075C309.261 159.336 311.1 156.862 312.371 153.652C313.675 150.409 314.327 146.531 314.327 142.017C314.327 137.503 313.692 133.591 312.421 130.281C311.15 126.937 309.311 124.346 306.904 122.507C304.497 120.668 301.571 119.749 298.127 119.749C294.617 119.749 291.657 120.702 289.25 122.607C286.843 124.48 285.02 127.088 283.783 130.431C282.546 133.775 281.928 137.637 281.928 142.017C281.928 146.464 282.546 150.309 283.783 153.552C285.054 156.762 286.876 159.253 289.25 161.025C291.657 162.764 294.617 163.633 298.127 163.633Z" fill="#FFF86D"/>
<path d="M387.15 182.29C379.359 182.29 372.622 180.635 366.938 177.325C361.287 173.981 356.924 169.334 353.848 163.382C350.772 157.397 349.234 150.459 349.234 142.568C349.234 134.611 350.772 127.656 353.848 121.705C356.924 115.72 361.287 111.072 366.938 107.762C372.622 104.418 379.359 102.747 387.15 102.747C394.94 102.747 401.661 104.418 407.311 107.762C412.995 111.072 417.375 115.72 420.451 121.705C423.527 127.656 425.065 134.611 425.065 142.568C425.065 150.459 423.527 157.397 420.451 163.382C417.375 169.334 412.995 173.981 407.311 177.325C401.661 180.635 394.94 182.29 387.15 182.29ZM387.25 165.739C390.794 165.739 393.753 164.736 396.127 162.73C398.501 160.691 400.29 157.915 401.493 154.405C402.731 150.894 403.349 146.898 403.349 142.418C403.349 137.938 402.731 133.942 401.493 130.431C400.29 126.921 398.501 124.145 396.127 122.106C393.753 120.066 390.794 119.046 387.25 119.046C383.672 119.046 380.663 120.066 378.222 122.106C375.815 124.145 373.993 126.921 372.756 130.431C371.552 133.942 370.95 137.938 370.95 142.418C370.95 146.898 371.552 150.894 372.756 154.405C373.993 157.915 375.815 160.691 378.222 162.73C380.663 164.736 383.672 165.739 387.25 165.739Z" fill="#FFF86D"/>
<path d="M363.328 298.99V196.276H403.852C411.643 196.276 418.28 197.764 423.763 200.74C429.247 203.682 433.426 207.778 436.301 213.027C439.21 218.243 440.665 224.262 440.665 231.083C440.665 237.903 439.194 243.922 436.251 249.138C433.309 254.354 429.046 258.416 423.462 261.325C417.912 264.234 411.191 265.688 403.301 265.688H377.472V248.285H399.79C403.969 248.285 407.413 247.566 410.121 246.129C412.863 244.657 414.903 242.635 416.24 240.06C417.611 237.452 418.296 234.46 418.296 231.083C418.296 227.672 417.611 224.696 416.24 222.155C414.903 219.581 412.863 217.591 410.121 216.187C407.38 214.749 403.902 214.03 399.69 214.03H385.045V298.99H363.328Z" fill="#FFF86D"/>
<path d="M488.235 300.495C480.311 300.495 473.49 298.89 467.773 295.68C462.089 292.437 457.709 287.856 454.633 281.938C451.556 275.987 450.018 268.948 450.018 260.824C450.018 252.899 451.556 245.945 454.633 239.96C457.709 233.975 462.039 229.311 467.622 225.967C473.239 222.623 479.826 220.952 487.383 220.952C492.465 220.952 497.196 221.771 501.576 223.409C505.99 225.014 509.835 227.438 513.111 230.681C516.422 233.925 518.996 238.004 520.835 242.919C522.674 247.8 523.594 253.518 523.594 260.071V265.939H458.545V252.699H503.482C503.482 249.623 502.813 246.898 501.476 244.524C500.138 242.15 498.283 240.294 495.909 238.957C493.568 237.586 490.843 236.9 487.734 236.9C484.491 236.9 481.615 237.653 479.107 239.157C476.633 240.628 474.694 242.618 473.29 245.126C471.885 247.6 471.166 250.358 471.133 253.401V265.989C471.133 269.801 471.835 273.094 473.239 275.87C474.677 278.645 476.7 280.785 479.308 282.289C481.916 283.794 485.009 284.546 488.586 284.546C490.96 284.546 493.134 284.212 495.106 283.543C497.079 282.874 498.768 281.871 500.172 280.534C501.576 279.196 502.646 277.558 503.382 275.619L523.142 276.923C522.139 281.671 520.083 285.817 516.973 289.361C513.897 292.872 509.918 295.613 505.037 297.586C500.189 299.525 494.588 300.495 488.235 300.495Z" fill="#FFF86D"/>
<path d="M558.901 254.454V298.99H537.536V221.955H557.898V235.546H558.801C560.506 231.066 563.365 227.522 567.377 224.914C571.39 222.272 576.255 220.952 581.972 220.952C587.322 220.952 591.986 222.122 595.965 224.462C599.944 226.803 603.036 230.146 605.243 234.493C607.45 238.806 608.553 243.955 608.553 249.94V298.99H587.188V253.752C587.221 249.038 586.018 245.36 583.577 242.718C581.136 240.043 577.776 238.706 573.496 238.706C570.621 238.706 568.08 239.324 565.873 240.562C563.699 241.799 561.994 243.604 560.757 245.978C559.553 248.319 558.935 251.144 558.901 254.454Z" fill="#FFF86D"/>
<path d="M144.622 174.645H121.351L156.81 71.9306H184.795L220.204 174.645H196.932L171.204 95.4024H170.401L144.622 174.645ZM143.168 134.271H198.136V151.223H143.168V134.271Z" fill="#74D762"/>
<path d="M253.531 71.9306V174.645H232.165V71.9306H253.531Z" fill="#74D762"/>
<path d="M305.352 205.138C298.43 205.138 292.496 204.185 287.547 202.279C282.632 200.407 278.72 197.849 275.811 194.606C272.902 191.363 271.013 187.718 270.144 183.672L289.904 181.014C290.506 182.552 291.459 183.99 292.763 185.327C294.067 186.665 295.789 187.735 297.929 188.537C300.102 189.373 302.744 189.791 305.853 189.791C310.501 189.791 314.329 188.654 317.338 186.381C320.381 184.14 321.902 180.379 321.902 175.096V161.003H320.999C320.063 163.143 318.659 165.166 316.786 167.072C314.914 168.977 312.507 170.532 309.564 171.736C306.622 172.94 303.111 173.541 299.032 173.541C293.248 173.541 287.982 172.204 283.234 169.529C278.519 166.821 274.758 162.692 271.949 157.141C269.174 151.558 267.787 144.503 267.787 135.977C267.787 127.25 269.208 119.961 272.05 114.11C274.892 108.258 278.67 103.878 283.384 100.969C288.132 98.0606 293.331 96.6061 298.982 96.6061C303.295 96.6061 306.906 97.3417 309.815 98.8129C312.724 100.251 315.065 102.056 316.837 104.229C318.642 106.369 320.03 108.476 320.999 110.549H321.802V97.6092H343.017V175.397C343.017 181.95 341.412 187.434 338.202 191.847C334.992 196.261 330.545 199.571 324.861 201.778C319.211 204.018 312.707 205.138 305.352 205.138ZM305.803 157.492C309.247 157.492 312.156 156.64 314.53 154.935C316.937 153.196 318.776 150.722 320.047 147.512C321.35 144.269 322.002 140.39 322.002 135.876C322.002 131.362 321.367 127.45 320.097 124.14C318.826 120.797 316.987 118.206 314.58 116.367C312.172 114.528 309.247 113.608 305.803 113.608C302.292 113.608 299.333 114.561 296.926 116.467C294.518 118.339 292.696 120.947 291.459 124.291C290.222 127.634 289.603 131.496 289.603 135.876C289.603 140.323 290.222 144.168 291.459 147.411C292.73 150.621 294.552 153.112 296.926 154.884C299.333 156.623 302.292 157.492 305.803 157.492Z" fill="#74D762"/>
<path d="M394.825 176.149C387.035 176.149 380.297 174.494 374.613 171.184C368.963 167.841 364.599 163.193 361.523 157.242C358.447 151.257 356.909 144.319 356.909 136.428C356.909 128.47 358.447 121.516 361.523 115.564C364.599 109.579 368.963 104.932 374.613 101.621C380.297 98.2779 387.035 96.6061 394.825 96.6061C402.616 96.6061 409.336 98.2779 414.987 101.621C420.671 104.932 425.051 109.579 428.127 115.564C431.203 121.516 432.741 128.47 432.741 136.428C432.741 144.319 431.203 151.257 428.127 157.242C425.051 163.193 420.671 167.841 414.987 171.184C409.336 174.494 402.616 176.149 394.825 176.149ZM394.925 159.599C398.47 159.599 401.429 158.596 403.803 156.59C406.177 154.55 407.965 151.775 409.169 148.264C410.406 144.753 411.025 140.758 411.025 136.277C411.025 131.797 410.406 127.802 409.169 124.291C407.965 120.78 406.177 118.005 403.803 115.965C401.429 113.926 398.47 112.906 394.925 112.906C391.348 112.906 388.339 113.926 385.898 115.965C383.491 118.005 381.668 120.78 380.431 124.291C379.227 127.802 378.626 131.797 378.626 136.277C378.626 140.758 379.227 144.753 380.431 148.264C381.668 151.775 383.491 154.55 385.898 156.59C388.339 158.596 391.348 159.599 394.925 159.599Z" fill="#74D762"/>
<path d="M371.004 292.85V190.136H411.528C419.318 190.136 425.955 191.624 431.439 194.599C436.922 197.542 441.102 201.637 443.977 206.887C446.886 212.103 448.34 218.121 448.34 224.942C448.34 231.763 446.869 237.781 443.927 242.997C440.985 248.213 436.722 252.276 431.138 255.185C425.588 258.093 418.867 259.548 410.976 259.548H385.147V242.145H407.465C411.645 242.145 415.089 241.426 417.797 239.988C420.539 238.517 422.578 236.494 423.916 233.92C425.287 231.312 425.972 228.319 425.972 224.942C425.972 221.532 425.287 218.556 423.916 216.015C422.578 213.44 420.539 211.451 417.797 210.047C415.055 208.609 411.578 207.89 407.365 207.89H392.72V292.85H371.004Z" fill="#74D762"/>
<path d="M495.911 294.354C487.987 294.354 481.166 292.749 475.448 289.54C469.764 286.296 465.384 281.716 462.308 275.798C459.232 269.846 457.694 262.808 457.694 254.683C457.694 246.759 459.232 239.804 462.308 233.819C465.384 227.834 469.714 223.17 475.298 219.826C480.915 216.483 487.502 214.811 495.058 214.811C500.141 214.811 504.872 215.63 509.252 217.269C513.665 218.874 517.51 221.298 520.787 224.541C524.097 227.784 526.672 231.863 528.511 236.778C530.35 241.66 531.269 247.377 531.269 253.931V259.799H466.22V246.558H511.158C511.158 243.482 510.489 240.757 509.151 238.383C507.814 236.009 505.958 234.154 503.584 232.816C501.244 231.445 498.519 230.76 495.409 230.76C492.166 230.76 489.291 231.512 486.783 233.017C484.309 234.488 482.37 236.477 480.965 238.985C479.561 241.459 478.842 244.218 478.809 247.26V259.849C478.809 263.661 479.511 266.954 480.915 269.729C482.353 272.504 484.376 274.644 486.984 276.149C489.592 277.653 492.684 278.406 496.262 278.406C498.636 278.406 500.809 278.071 502.782 277.403C504.755 276.734 506.443 275.731 507.847 274.393C509.252 273.056 510.322 271.418 511.057 269.478L530.818 270.782C529.815 275.53 527.758 279.676 524.649 283.22C521.573 286.731 517.594 289.473 512.712 291.445C507.864 293.385 502.264 294.354 495.911 294.354Z" fill="#74D762"/>
<path d="M566.577 248.314V292.85H545.212V215.814H565.574V229.406H566.477C568.182 224.925 571.041 221.381 575.053 218.773C579.065 216.132 583.93 214.811 589.648 214.811C594.997 214.811 599.662 215.981 603.64 218.322C607.619 220.662 610.712 224.006 612.919 228.353C615.126 232.666 616.229 237.815 616.229 243.8V292.85H594.864V247.611C594.897 242.897 593.693 239.219 591.253 236.578C588.812 233.903 585.452 232.565 581.172 232.565C578.296 232.565 575.755 233.184 573.548 234.421C571.375 235.658 569.67 237.464 568.433 239.838C567.229 242.178 566.611 245.003 566.577 248.314Z" fill="#74D762"/>
<path d="M152.588 171.714H129.317L164.775 69H192.761L228.169 171.714H204.898L179.169 92.4718H178.367L152.588 171.714ZM151.134 131.341H206.102V148.293H151.134V131.341Z" fill="#303030"/>
<path d="M261.496 69V171.714H240.131V69H261.496Z" fill="#303030"/>
<path d="M313.317 202.207C306.396 202.207 300.461 201.254 295.513 199.349C290.598 197.476 286.686 194.918 283.777 191.675C280.868 188.432 278.979 184.787 278.11 180.742L297.87 178.084C298.472 179.622 299.425 181.059 300.729 182.397C302.033 183.734 303.755 184.804 305.895 185.607C308.068 186.443 310.709 186.86 313.819 186.86C318.466 186.86 322.295 185.724 325.304 183.45C328.347 181.21 329.868 177.448 329.868 172.166V158.072H328.965C328.029 160.212 326.625 162.235 324.752 164.141C322.88 166.047 320.472 167.602 317.53 168.805C314.588 170.009 311.077 170.611 306.998 170.611C301.214 170.611 295.947 169.273 291.2 166.598C286.485 163.89 282.724 159.761 279.915 154.211C277.14 148.627 275.752 141.572 275.752 133.046C275.752 124.319 277.173 117.03 280.015 111.179C282.857 105.328 286.636 100.948 291.35 98.0388C296.098 95.1299 301.297 93.6755 306.948 93.6755C311.261 93.6755 314.872 94.4111 317.781 95.8822C320.69 97.3199 323.03 99.1255 324.802 101.299C326.608 103.439 327.996 105.545 328.965 107.618H329.768V94.6785H350.982V172.466C350.982 179.02 349.378 184.503 346.168 188.917C342.958 193.33 338.511 196.64 332.827 198.847C327.176 201.087 320.673 202.207 313.317 202.207ZM313.769 154.562C317.213 154.562 320.121 153.709 322.495 152.004C324.903 150.265 326.742 147.791 328.012 144.581C329.316 141.338 329.968 137.459 329.968 132.946C329.968 128.432 329.333 124.52 328.062 121.21C326.792 117.866 324.953 115.275 322.546 113.436C320.138 111.597 317.213 110.677 313.769 110.677C310.258 110.677 307.299 111.63 304.892 113.536C302.484 115.409 300.662 118.017 299.425 121.36C298.188 124.704 297.569 128.566 297.569 132.946C297.569 137.393 298.188 141.238 299.425 144.481C300.695 147.691 302.518 150.182 304.892 151.954C307.299 153.692 310.258 154.562 313.769 154.562Z" fill="#303030"/>
<path d="M402.791 173.219C395 173.219 388.263 171.564 382.579 168.254C376.928 164.91 372.565 160.262 369.489 154.311C366.413 148.326 364.875 141.388 364.875 133.497C364.875 125.54 366.413 118.585 369.489 112.633C372.565 106.648 376.928 102.001 382.579 98.6908C388.263 95.3472 395 93.6755 402.791 93.6755C410.581 93.6755 417.302 95.3472 422.953 98.6908C428.637 102.001 433.017 106.648 436.093 112.633C439.169 118.585 440.707 125.54 440.707 133.497C440.707 141.388 439.169 148.326 436.093 154.311C433.017 160.262 428.637 164.91 422.953 168.254C417.302 171.564 410.581 173.219 402.791 173.219ZM402.891 156.668C406.435 156.668 409.394 155.665 411.768 153.659C414.142 151.619 415.931 148.844 417.135 145.333C418.372 141.823 418.99 137.827 418.99 133.347C418.99 128.866 418.372 124.871 417.135 121.36C415.931 117.849 414.142 115.074 411.768 113.035C409.394 110.995 406.435 109.975 402.891 109.975C399.314 109.975 396.304 110.995 393.864 113.035C391.456 115.074 389.634 117.849 388.397 121.36C387.193 124.871 386.591 128.866 386.591 133.347C386.591 137.827 387.193 141.823 388.397 145.333C389.634 148.844 391.456 151.619 393.864 153.659C396.304 155.665 399.314 156.668 402.891 156.668Z" fill="#303030"/>
<path d="M378.97 289.919V187.205H419.494C427.284 187.205 433.921 188.693 439.405 191.669C444.888 194.611 449.067 198.707 451.943 203.956C454.852 209.172 456.306 215.191 456.306 222.011C456.306 228.832 454.835 234.851 451.893 240.067C448.95 245.283 444.687 249.345 439.104 252.254C433.553 255.163 426.833 256.617 418.942 256.617H393.113V239.214H415.431C419.611 239.214 423.055 238.495 425.763 237.057C428.505 235.586 430.544 233.563 431.882 230.989C433.252 228.381 433.938 225.388 433.938 222.011C433.938 218.601 433.252 215.625 431.882 213.084C430.544 210.51 428.505 208.52 425.763 207.116C423.021 205.678 419.544 204.959 415.331 204.959H400.686V289.919H378.97Z" fill="#303030"/>
<path d="M503.877 291.424C495.952 291.424 489.132 289.819 483.414 286.609C477.73 283.366 473.35 278.785 470.274 272.867C467.198 266.915 465.66 259.877 465.66 251.752C465.66 243.828 467.198 236.874 470.274 230.889C473.35 224.904 477.68 220.239 483.264 216.896C488.881 213.552 495.468 211.88 503.024 211.88C508.106 211.88 512.837 212.7 517.218 214.338C521.631 215.943 525.476 218.367 528.753 221.61C532.063 224.853 534.637 228.933 536.476 233.848C538.315 238.729 539.235 244.447 539.235 251V256.868H474.186V243.628H519.123C519.123 240.551 518.455 237.826 517.117 235.453C515.78 233.079 513.924 231.223 511.55 229.886C509.21 228.515 506.485 227.829 503.375 227.829C500.132 227.829 497.256 228.582 494.749 230.086C492.275 231.557 490.335 233.547 488.931 236.054C487.527 238.529 486.808 241.287 486.774 244.33V256.918C486.774 260.73 487.477 264.023 488.881 266.798C490.319 269.574 492.341 271.713 494.949 273.218C497.557 274.723 500.65 275.475 504.228 275.475C506.602 275.475 508.775 275.141 510.748 274.472C512.72 273.803 514.409 272.8 515.813 271.463C517.218 270.125 518.287 268.487 519.023 266.548L538.784 267.852C537.78 272.599 535.724 276.745 532.615 280.29C529.539 283.8 525.56 286.542 520.678 288.515C515.83 290.454 510.229 291.424 503.877 291.424Z" fill="#303030"/>
<path d="M574.543 245.383V289.919H553.177V212.884H573.54V226.475H574.443C576.148 221.995 579.006 218.451 583.019 215.843C587.031 213.201 591.896 211.88 597.613 211.88C602.963 211.88 607.627 213.051 611.606 215.391C615.585 217.732 618.678 221.075 620.885 225.422C623.091 229.735 624.195 234.884 624.195 240.869V289.919H602.829V244.681C602.863 239.966 601.659 236.288 599.218 233.647C596.778 230.972 593.417 229.635 589.137 229.635C586.262 229.635 583.721 230.253 581.514 231.49C579.341 232.728 577.636 234.533 576.398 236.907C575.195 239.247 574.576 242.073 574.543 245.383Z" fill="#303030"/>
</svg>
