<svg width="519" height="238" viewBox="0 0 519 238" fill="none" xmlns="http://www.w3.org/2000/svg">
<path d="M23.2712 117.926H0L35.4584 15.2117H63.444L98.8523 117.926H75.5812L49.8525 38.6835H49.05L23.2712 117.926ZM21.8167 77.5524H76.7848V94.5042H21.8167V77.5524Z" fill="#FF0000"/>
<path d="M132.179 15.2117V117.926H110.814V15.2117H132.179Z" fill="#FF0000"/>
<path d="M184 148.419C177.079 148.419 171.144 147.466 166.196 145.56C161.281 143.688 157.369 141.13 154.46 137.887C151.551 134.644 149.662 130.999 148.793 126.953L168.553 124.295C169.155 125.833 170.108 127.271 171.412 128.609C172.716 129.946 174.438 131.016 176.578 131.818C178.751 132.654 181.392 133.072 184.502 133.072C189.149 133.072 192.978 131.935 195.987 129.662C199.03 127.422 200.551 123.66 200.551 118.377V104.284H199.648C198.712 106.424 197.308 108.447 195.435 110.353C193.563 112.258 191.155 113.813 188.213 115.017C185.271 116.221 181.76 116.822 177.681 116.822C171.897 116.822 166.63 115.485 161.883 112.81C157.168 110.102 153.407 105.973 150.598 100.422C147.823 94.8386 146.435 87.7836 146.435 79.2576C146.435 70.5309 147.856 63.2419 150.698 57.3907C153.54 51.5395 157.319 47.1594 162.033 44.2505C166.781 41.3416 171.98 39.8872 177.631 39.8872C181.944 39.8872 185.555 40.6227 188.464 42.0939C191.373 43.5316 193.713 45.3372 195.485 47.5105C197.291 49.6504 198.678 51.7568 199.648 53.8298H200.451V40.8902H221.665V118.678C221.665 125.232 220.061 130.715 216.851 135.128C213.641 139.542 209.194 142.852 203.51 145.059C197.859 147.299 191.356 148.419 184 148.419ZM184.452 100.773C187.895 100.773 190.804 99.9208 193.178 98.2155C195.586 96.4769 197.425 94.0027 198.695 90.7928C199.999 87.5496 200.651 83.6711 200.651 79.1573C200.651 74.6435 200.016 70.7315 198.745 67.4214C197.475 64.0778 195.636 61.4865 193.228 59.6476C190.821 57.8086 187.895 56.8892 184.452 56.8892C180.941 56.8892 177.982 57.8421 175.574 59.7479C173.167 61.6203 171.345 64.2283 170.108 67.5718C168.871 70.9154 168.252 74.7772 168.252 79.1573C168.252 83.6042 168.871 87.4493 170.108 90.6925C171.378 93.9024 173.201 96.3933 175.574 98.1654C177.982 99.904 180.941 100.773 184.452 100.773Z" fill="#FF0000"/>
<path d="M273.474 119.43C265.683 119.43 258.946 117.775 253.262 114.465C247.611 111.122 243.248 106.474 240.172 100.523C237.096 94.5376 235.558 87.5998 235.558 79.709C235.558 71.7513 237.096 64.7967 240.172 58.8451C243.248 52.8602 247.611 48.2126 253.262 44.9025C258.946 41.5589 265.683 39.8872 273.474 39.8872C281.264 39.8872 287.985 41.5589 293.636 44.9025C299.32 48.2126 303.7 52.8602 306.776 58.8451C309.852 64.7967 311.39 71.7513 311.39 79.709C311.39 87.5998 309.852 94.5376 306.776 100.523C303.7 106.474 299.32 111.122 293.636 114.465C287.985 117.775 281.264 119.43 273.474 119.43ZM273.574 102.88C277.118 102.88 280.077 101.877 282.451 99.8706C284.825 97.831 286.614 95.0559 287.818 91.5452C289.055 88.0344 289.673 84.0389 289.673 79.5585C289.673 75.0781 289.055 71.0826 287.818 67.5718C286.614 64.0611 284.825 61.2859 282.451 59.2464C280.077 57.2068 277.118 56.187 273.574 56.187C269.997 56.187 266.987 57.2068 264.547 59.2464C262.139 61.2859 260.317 64.0611 259.08 67.5718C257.876 71.0826 257.274 75.0781 257.274 79.5585C257.274 84.0389 257.876 88.0344 259.08 91.5452C260.317 95.0559 262.139 97.831 264.547 99.8706C266.987 101.877 269.997 102.88 273.574 102.88Z" fill="#FF0000"/>
<path d="M249.653 236.131V133.417H290.177C297.967 133.417 304.604 134.905 310.087 137.88C315.571 140.823 319.75 144.919 322.626 150.168C325.535 155.384 326.989 161.402 326.989 168.223C326.989 175.044 325.518 181.062 322.576 186.278C319.633 191.494 315.37 195.557 309.787 198.466C304.236 201.375 297.516 202.829 289.625 202.829H263.796V185.426H286.114C290.294 185.426 293.737 184.707 296.446 183.269C299.188 181.798 301.227 179.775 302.564 177.201C303.935 174.593 304.621 171.6 304.621 168.223C304.621 164.813 303.935 161.837 302.564 159.296C301.227 156.721 299.188 154.732 296.446 153.328C293.704 151.89 290.227 151.171 286.014 151.171H271.369V236.131H249.653Z" fill="#FF0000"/>
<path d="M374.56 237.635C366.635 237.635 359.815 236.031 354.097 232.821C348.413 229.577 344.033 224.997 340.957 219.079C337.881 213.127 336.343 206.089 336.343 197.964C336.343 190.04 337.881 183.085 340.957 177.1C344.033 171.115 348.363 166.451 353.947 163.107C359.564 159.764 366.151 158.092 373.707 158.092C378.789 158.092 383.52 158.911 387.9 160.55C392.314 162.155 396.159 164.579 399.436 167.822C402.746 171.065 405.32 175.144 407.159 180.059C408.998 184.941 409.918 190.658 409.918 197.212V203.08H344.869V189.839H389.806C389.806 186.763 389.138 184.038 387.8 181.664C386.463 179.29 384.607 177.435 382.233 176.097C379.893 174.726 377.168 174.041 374.058 174.041C370.815 174.041 367.939 174.793 365.432 176.298C362.958 177.769 361.018 179.758 359.614 182.266C358.21 184.74 357.491 187.499 357.457 190.541V203.13C357.457 206.942 358.16 210.235 359.564 213.01C361.002 215.785 363.024 217.925 365.632 219.43C368.24 220.934 371.333 221.687 374.911 221.687C377.285 221.687 379.458 221.352 381.431 220.684C383.403 220.015 385.092 219.012 386.496 217.674C387.9 216.337 388.97 214.699 389.706 212.759L409.466 214.063C408.463 218.811 406.407 222.957 403.298 226.501C400.221 230.012 396.243 232.754 391.361 234.727C386.513 236.666 380.912 237.635 374.56 237.635Z" fill="#FF0000"/>
<path d="M445.226 191.595V236.131H423.86V159.095H444.223V172.687H445.125C446.831 168.206 449.689 164.662 453.702 162.054C457.714 159.413 462.579 158.092 468.296 158.092C473.646 158.092 478.31 159.262 482.289 161.603C486.268 163.943 489.361 167.287 491.568 171.634C493.774 175.947 494.878 181.096 494.878 187.081V236.131H473.512V190.892C473.546 186.178 472.342 182.5 469.901 179.859C467.46 177.184 464.1 175.846 459.82 175.846C456.945 175.846 454.404 176.465 452.197 177.702C450.024 178.939 448.319 180.745 447.081 183.119C445.878 185.459 445.259 188.284 445.226 191.595Z" fill="#FF0000"/>
<path d="M30.9468 111.785H7.67565L43.1341 9.07117H71.1197L106.528 111.785H83.2568L57.5281 32.543H56.7257L30.9468 111.785ZM29.4924 71.4118H84.4605V88.3637H29.4924V71.4118Z" fill="#FFF86D"/>
<path d="M139.855 9.07117V111.785H118.49V9.07117H139.855Z" fill="#FFF86D"/>
<path d="M191.676 142.279C184.755 142.279 178.82 141.326 173.871 139.42C168.956 137.547 165.044 134.99 162.136 131.746C159.227 128.503 157.338 124.859 156.468 120.813L176.229 118.155C176.83 119.693 177.783 121.131 179.087 122.468C180.391 123.805 182.113 124.875 184.253 125.678C186.426 126.514 189.068 126.932 192.177 126.932C196.825 126.932 200.653 125.795 203.663 123.521C206.705 121.281 208.227 117.52 208.227 112.237V98.1436H207.324C206.388 100.283 204.983 102.306 203.111 104.212C201.238 106.118 198.831 107.673 195.889 108.876C192.946 110.08 189.436 110.682 185.357 110.682C179.572 110.682 174.306 109.345 169.558 106.67C164.844 103.961 161.082 99.8321 158.274 94.2818C155.499 88.698 154.111 81.6431 154.111 73.1171C154.111 64.3904 155.532 57.1014 158.374 51.2502C161.216 45.3989 164.994 41.0189 169.709 38.11C174.457 35.2011 179.656 33.7466 185.306 33.7466C189.62 33.7466 193.231 34.4822 196.14 35.9534C199.048 37.3911 201.389 39.1966 203.161 41.37C204.967 43.5098 206.354 45.6163 207.324 47.6893H208.126V34.7497H229.341V112.538C229.341 119.091 227.736 124.574 224.526 128.988C221.317 133.401 216.87 136.712 211.186 138.918C205.535 141.158 199.032 142.279 191.676 142.279ZM192.127 94.6329C195.571 94.6329 198.48 93.7802 200.854 92.075C203.261 90.3364 205.1 87.8621 206.371 84.6523C207.675 81.4091 208.327 77.5305 208.327 73.0167C208.327 68.5029 207.692 64.591 206.421 61.2808C205.15 57.9373 203.311 55.346 200.904 53.5071C198.497 51.6681 195.571 50.7486 192.127 50.7486C188.617 50.7486 185.657 51.7016 183.25 53.6074C180.843 55.4798 179.021 58.0877 177.783 61.4313C176.546 64.7749 175.928 68.6367 175.928 73.0167C175.928 77.4637 176.546 81.3088 177.783 84.552C179.054 87.7618 180.876 90.2528 183.25 92.0249C185.657 93.7635 188.617 94.6329 192.127 94.6329Z" fill="#FFF86D"/>
<path d="M281.15 113.29C273.359 113.29 266.622 111.635 260.938 108.325C255.287 104.981 250.924 100.334 247.848 94.3821C244.772 88.3971 243.234 81.4592 243.234 73.5684C243.234 65.6108 244.772 58.6562 247.848 52.7046C250.924 46.7196 255.287 42.0721 260.938 38.762C266.622 35.4184 273.359 33.7466 281.15 33.7466C288.94 33.7466 295.661 35.4184 301.311 38.762C306.995 42.0721 311.375 46.7196 314.451 52.7046C317.527 58.6562 319.065 65.6108 319.065 73.5684C319.065 81.4592 317.527 88.3971 314.451 94.3821C311.375 100.334 306.995 104.981 301.311 108.325C295.661 111.635 288.94 113.29 281.15 113.29ZM281.25 96.7393C284.794 96.7393 287.753 95.7362 290.127 93.7301C292.501 91.6905 294.29 88.9154 295.493 85.4046C296.731 81.8939 297.349 77.8983 297.349 73.418C297.349 68.9376 296.731 64.942 295.493 61.4313C294.29 57.9206 292.501 55.1454 290.127 53.1058C287.753 51.0663 284.794 50.0465 281.25 50.0465C277.672 50.0465 274.663 51.0663 272.222 53.1058C269.815 55.1454 267.993 57.9206 266.756 61.4313C265.552 64.942 264.95 68.9376 264.95 73.418C264.95 77.8983 265.552 81.8939 266.756 85.4046C267.993 88.9154 269.815 91.6905 272.222 93.7301C274.663 95.7362 277.672 96.7393 281.25 96.7393Z" fill="#FFF86D"/>
<path d="M257.328 229.99V127.276H297.852C305.643 127.276 312.28 128.764 317.763 131.74C323.247 134.682 327.426 138.778 330.301 144.027C333.21 149.243 334.665 155.262 334.665 162.083C334.665 168.903 333.194 174.922 330.251 180.138C327.309 185.354 323.046 189.416 317.462 192.325C311.912 195.234 305.191 196.688 297.301 196.688H271.472V179.285H293.79C297.969 179.285 301.413 178.566 304.121 177.129C306.863 175.657 308.903 173.635 310.24 171.06C311.611 168.452 312.296 165.46 312.296 162.083C312.296 158.672 311.611 155.696 310.24 153.155C308.903 150.581 306.863 148.591 304.121 147.187C301.38 145.749 297.902 145.03 293.69 145.03H279.045V229.99H257.328Z" fill="#FFF86D"/>
<path d="M382.235 231.495C374.311 231.495 367.49 229.89 361.773 226.68C356.089 223.437 351.709 218.856 348.633 212.938C345.556 206.987 344.018 199.948 344.018 191.824C344.018 183.899 345.556 176.945 348.633 170.96C351.709 164.975 356.039 160.311 361.622 156.967C367.239 153.623 373.826 151.952 381.383 151.952C386.465 151.952 391.196 152.771 395.576 154.409C399.99 156.014 403.835 158.438 407.111 161.681C410.422 164.925 412.996 169.004 414.835 173.919C416.674 178.8 417.594 184.518 417.594 191.071V196.939H352.545V183.699H397.482C397.482 180.623 396.813 177.898 395.476 175.524C394.138 173.15 392.283 171.294 389.909 169.957C387.568 168.586 384.843 167.9 381.734 167.9C378.491 167.9 375.615 168.653 373.107 170.157C370.633 171.628 368.694 173.618 367.29 176.126C365.885 178.6 365.166 181.358 365.133 184.401V196.989C365.133 200.801 365.835 204.094 367.239 206.87C368.677 209.645 370.7 211.785 373.308 213.289C375.916 214.794 379.009 215.546 382.586 215.546C384.96 215.546 387.134 215.212 389.106 214.543C391.079 213.874 392.768 212.871 394.172 211.534C395.576 210.196 396.646 208.558 397.382 206.619L417.142 207.923C416.139 212.671 414.083 216.817 410.973 220.361C407.897 223.872 403.918 226.613 399.037 228.586C394.189 230.525 388.588 231.495 382.235 231.495Z" fill="#FFF86D"/>
<path d="M452.901 185.454V229.99H431.536V152.955H451.898V166.546H452.801C454.506 162.066 457.365 158.522 461.377 155.914C465.39 153.272 470.255 151.952 475.972 151.952C481.322 151.952 485.986 153.122 489.965 155.462C493.944 157.803 497.036 161.146 499.243 165.493C501.45 169.806 502.553 174.955 502.553 180.94V229.99H481.188V184.752C481.221 180.038 480.018 176.36 477.577 173.718C475.136 171.043 471.776 169.706 467.496 169.706C464.621 169.706 462.079 170.324 459.873 171.562C457.699 172.799 455.994 174.604 454.757 176.978C453.553 179.319 452.935 182.144 452.901 185.454Z" fill="#FFF86D"/>
<path d="M38.6225 105.645H15.3513L50.8097 2.93065H78.7953L114.204 105.645H90.9324L65.2038 26.4024H64.4013L38.6225 105.645ZM37.168 65.2713H92.1361V82.2232H37.168V65.2713Z" fill="#74D762"/>
<path d="M147.531 2.93065V105.645H126.165V2.93065H147.531Z" fill="#74D762"/>
<path d="M199.352 136.138C192.43 136.138 186.496 135.185 181.547 133.279C176.632 131.407 172.72 128.849 169.811 125.606C166.902 122.363 165.013 118.718 164.144 114.672L183.904 112.014C184.506 113.552 185.459 114.99 186.763 116.327C188.067 117.665 189.789 118.735 191.929 119.537C194.102 120.373 196.744 120.791 199.853 120.791C204.501 120.791 208.329 119.654 211.338 117.381C214.381 115.14 215.902 111.379 215.902 106.096V92.0031H214.999C214.063 94.1429 212.659 96.1658 210.787 98.0716C208.914 99.9775 206.507 101.532 203.564 102.736C200.622 103.94 197.111 104.541 193.032 104.541C187.248 104.541 181.982 103.204 177.234 100.529C172.519 97.8209 168.758 93.6916 165.949 88.1413C163.174 82.5575 161.787 75.5026 161.787 66.9765C161.787 58.2498 163.208 50.9609 166.05 45.1096C168.892 39.2584 172.67 34.8784 177.384 31.9695C182.132 29.0606 187.331 27.6061 192.982 27.6061C197.295 27.6061 200.906 28.3417 203.815 29.8129C206.724 31.2506 209.065 33.0561 210.837 35.2294C212.642 37.3693 214.03 39.4758 214.999 41.5488H215.802V28.6092H237.017V106.397C237.017 112.95 235.412 118.434 232.202 122.847C228.992 127.261 224.545 130.571 218.861 132.778C213.211 135.018 206.707 136.138 199.352 136.138ZM199.803 88.4923C203.247 88.4923 206.156 87.6397 208.53 85.9345C210.937 84.1959 212.776 81.7216 214.046 78.5118C215.35 75.2686 216.002 71.39 216.002 66.8762C216.002 62.3624 215.367 58.4505 214.097 55.1403C212.826 51.7968 210.987 49.2055 208.58 47.3666C206.172 45.5276 203.247 44.6081 199.803 44.6081C196.292 44.6081 193.333 45.561 190.926 47.4669C188.518 49.3393 186.696 51.9472 185.459 55.2908C184.222 58.6343 183.603 62.4962 183.603 66.8762C183.603 71.3232 184.222 75.1683 185.459 78.4115C186.73 81.6213 188.552 84.1123 190.926 85.8844C193.333 87.623 196.292 88.4923 199.803 88.4923Z" fill="#74D762"/>
<path d="M288.825 107.149C281.035 107.149 274.297 105.494 268.613 102.184C262.963 98.8406 258.599 94.1931 255.523 88.2416C252.447 82.2566 250.909 75.3187 250.909 67.4279C250.909 59.4702 252.447 52.5156 255.523 46.5641C258.599 40.5791 262.963 35.9316 268.613 32.6215C274.297 29.2779 281.035 27.6061 288.825 27.6061C296.616 27.6061 303.336 29.2779 308.987 32.6215C314.671 35.9316 319.051 40.5791 322.127 46.5641C325.203 52.5156 326.741 59.4702 326.741 67.4279C326.741 75.3187 325.203 82.2566 322.127 88.2416C319.051 94.1931 314.671 98.8406 308.987 102.184C303.336 105.494 296.616 107.149 288.825 107.149ZM288.925 90.5988C292.47 90.5988 295.429 89.5957 297.803 87.5896C300.177 85.55 301.965 82.7748 303.169 79.2641C304.406 75.7534 305.025 71.7578 305.025 67.2775C305.025 62.7971 304.406 58.8015 303.169 55.2908C301.965 51.7801 300.177 49.0049 297.803 46.9653C295.429 44.9258 292.47 43.906 288.925 43.906C285.348 43.906 282.339 44.9258 279.898 46.9653C277.491 49.0049 275.668 51.7801 274.431 55.2908C273.227 58.8015 272.626 62.7971 272.626 67.2775C272.626 71.7578 273.227 75.7534 274.431 79.2641C275.668 82.7748 277.491 85.55 279.898 87.5896C282.339 89.5957 285.348 90.5988 288.925 90.5988Z" fill="#74D762"/>
<path d="M265.004 223.85V121.136H305.528C313.318 121.136 319.955 122.624 325.439 125.599C330.922 128.542 335.102 132.637 337.977 137.887C340.886 143.103 342.34 149.121 342.34 155.942C342.34 162.763 340.869 168.781 337.927 173.997C334.985 179.213 330.722 183.276 325.138 186.185C319.588 189.093 312.867 190.548 304.976 190.548H279.147V173.145H301.465C305.645 173.145 309.089 172.426 311.797 170.988C314.539 169.517 316.578 167.494 317.916 164.92C319.287 162.312 319.972 159.319 319.972 155.942C319.972 152.532 319.287 149.556 317.916 147.015C316.578 144.44 314.539 142.451 311.797 141.047C309.055 139.609 305.578 138.89 301.365 138.89H286.72V223.85H265.004Z" fill="#74D762"/>
<path d="M389.911 225.354C381.987 225.354 375.166 223.749 369.448 220.54C363.764 217.296 359.384 212.716 356.308 206.798C353.232 200.846 351.694 193.808 351.694 185.683C351.694 177.759 353.232 170.804 356.308 164.819C359.384 158.834 363.714 154.17 369.298 150.826C374.915 147.483 381.502 145.811 389.058 145.811C394.141 145.811 398.872 146.63 403.252 148.269C407.665 149.874 411.51 152.298 414.787 155.541C418.097 158.784 420.672 162.863 422.511 167.778C424.35 172.66 425.269 178.377 425.269 184.931V190.799H360.22V177.558H405.158C405.158 174.482 404.489 171.757 403.151 169.383C401.814 167.009 399.958 165.154 397.584 163.816C395.244 162.445 392.519 161.76 389.409 161.76C386.166 161.76 383.291 162.512 380.783 164.017C378.309 165.488 376.37 167.477 374.965 169.985C373.561 172.459 372.842 175.218 372.809 178.26V190.849C372.809 194.661 373.511 197.954 374.915 200.729C376.353 203.504 378.376 205.644 380.984 207.149C383.592 208.653 386.684 209.406 390.262 209.406C392.636 209.406 394.809 209.071 396.782 208.403C398.755 207.734 400.443 206.731 401.847 205.393C403.252 204.056 404.322 202.418 405.057 200.478L424.818 201.782C423.815 206.53 421.758 210.676 418.649 214.22C415.573 217.731 411.594 220.473 406.712 222.445C401.864 224.385 396.264 225.354 389.911 225.354Z" fill="#74D762"/>
<path d="M460.577 179.314V223.85H439.212V146.814H459.574V160.406H460.477C462.182 155.925 465.041 152.381 469.053 149.773C473.065 147.132 477.93 145.811 483.648 145.811C488.997 145.811 493.662 146.981 497.64 149.322C501.619 151.662 504.712 155.006 506.919 159.353C509.126 163.666 510.229 168.815 510.229 174.8V223.85H488.864V178.611C488.897 173.897 487.693 170.219 485.253 167.578C482.812 164.903 479.451 163.565 475.172 163.565C472.296 163.565 469.755 164.184 467.548 165.421C465.375 166.658 463.67 168.464 462.433 170.838C461.229 173.178 460.611 176.003 460.577 179.314Z" fill="#74D762"/>
<path d="M46.5882 102.714H23.317L58.7755 0H86.7611L122.169 102.714H98.8982L73.1695 23.4718H72.367L46.5882 102.714ZM45.1338 62.3407H100.102V79.2925H45.1338V62.3407Z" fill="#303030"/>
<path d="M155.496 0V102.714H134.131V0H155.496Z" fill="#303030"/>
<path d="M207.317 133.207C200.396 133.207 194.461 132.254 189.513 130.349C184.598 128.476 180.686 125.918 177.777 122.675C174.868 119.432 172.979 115.787 172.11 111.742L191.87 109.084C192.472 110.622 193.425 112.059 194.729 113.397C196.033 114.734 197.755 115.804 199.895 116.607C202.068 117.443 204.709 117.86 207.819 117.86C212.466 117.86 216.295 116.724 219.304 114.45C222.347 112.21 223.868 108.448 223.868 103.166V89.0724H222.965C222.029 91.2123 220.625 93.2351 218.752 95.141C216.88 97.0468 214.472 98.6016 211.53 99.8052C208.588 101.009 205.077 101.611 200.998 101.611C195.214 101.611 189.947 100.273 185.2 97.5985C180.485 94.8902 176.724 90.7609 173.915 85.2106C171.14 79.6269 169.752 72.572 169.752 64.0459C169.752 55.3192 171.173 48.0302 174.015 42.179C176.857 36.3278 180.636 31.9477 185.35 29.0388C190.098 26.1299 195.297 24.6755 200.948 24.6755C205.261 24.6755 208.872 25.4111 211.781 26.8822C214.69 28.3199 217.03 30.1255 218.802 32.2988C220.608 34.4387 221.995 36.5451 222.965 38.6181H223.768V25.6785H244.982V103.466C244.982 110.02 243.378 115.503 240.168 119.917C236.958 124.33 232.511 127.64 226.827 129.847C221.176 132.087 214.673 133.207 207.317 133.207ZM207.769 85.5617C211.213 85.5617 214.121 84.7091 216.495 83.0039C218.903 81.2652 220.742 78.791 222.012 75.5812C223.316 72.3379 223.968 68.4594 223.968 63.9456C223.968 59.4318 223.333 55.5198 222.062 52.2097C220.792 48.8661 218.953 46.2749 216.546 44.4359C214.138 42.5969 211.213 41.6775 207.769 41.6775C204.258 41.6775 201.299 42.6304 198.892 44.5362C196.484 46.4086 194.662 49.0166 193.425 52.3601C192.188 55.7037 191.569 59.5655 191.569 63.9456C191.569 68.3925 192.188 72.2376 193.425 75.4809C194.695 78.6907 196.518 81.1816 198.892 82.9537C201.299 84.6924 204.258 85.5617 207.769 85.5617Z" fill="#303030"/>
<path d="M296.791 104.219C289 104.219 282.263 102.564 276.579 99.2536C270.928 95.91 266.565 91.2625 263.489 85.3109C260.413 79.3259 258.875 72.3881 258.875 64.4973C258.875 56.5396 260.413 49.585 263.489 43.6334C266.565 37.6485 270.928 33.0009 276.579 29.6908C282.263 26.3472 289 24.6755 296.791 24.6755C304.581 24.6755 311.302 26.3472 316.953 29.6908C322.637 33.0009 327.017 37.6485 330.093 43.6334C333.169 49.585 334.707 56.5396 334.707 64.4973C334.707 72.3881 333.169 79.3259 330.093 85.3109C327.017 91.2625 322.637 95.91 316.953 99.2536C311.302 102.564 304.581 104.219 296.791 104.219ZM296.891 87.6681C300.435 87.6681 303.394 86.6651 305.768 84.6589C308.142 82.6193 309.931 79.8442 311.135 76.3335C312.372 72.8227 312.99 68.8272 312.99 64.3468C312.99 59.8664 312.372 55.8709 311.135 52.3601C309.931 48.8494 308.142 46.0742 305.768 44.0347C303.394 41.9951 300.435 40.9753 296.891 40.9753C293.314 40.9753 290.304 41.9951 287.864 44.0347C285.456 46.0742 283.634 48.8494 282.397 52.3601C281.193 55.8709 280.591 59.8664 280.591 64.3468C280.591 68.8272 281.193 72.8227 282.397 76.3335C283.634 79.8442 285.456 82.6193 287.864 84.6589C290.304 86.6651 293.314 87.6681 296.891 87.6681Z" fill="#303030"/>
<path d="M272.97 220.919V118.205H313.494C321.284 118.205 327.921 119.693 333.405 122.669C338.888 125.611 343.067 129.707 345.943 134.956C348.852 140.172 350.306 146.191 350.306 153.011C350.306 159.832 348.835 165.851 345.893 171.067C342.95 176.283 338.687 180.345 333.104 183.254C327.553 186.163 320.833 187.617 312.942 187.617H287.113V170.214H309.431C313.611 170.214 317.055 169.495 319.763 168.057C322.505 166.586 324.544 164.563 325.882 161.989C327.252 159.381 327.938 156.388 327.938 153.011C327.938 149.601 327.252 146.625 325.882 144.084C324.544 141.51 322.505 139.52 319.763 138.116C317.021 136.678 313.544 135.959 309.331 135.959H294.686V220.919H272.97Z" fill="#303030"/>
<path d="M397.877 222.424C389.952 222.424 383.132 220.819 377.414 217.609C371.73 214.366 367.35 209.785 364.274 203.867C361.198 197.915 359.66 190.877 359.66 182.752C359.66 174.828 361.198 167.874 364.274 161.889C367.35 155.904 371.68 151.239 377.264 147.896C382.881 144.552 389.468 142.88 397.024 142.88C402.106 142.88 406.837 143.7 411.218 145.338C415.631 146.943 419.476 149.367 422.753 152.61C426.063 155.853 428.637 159.933 430.476 164.848C432.315 169.729 433.235 175.447 433.235 182V187.868H368.186V174.628H413.123C413.123 171.551 412.455 168.826 411.117 166.453C409.78 164.079 407.924 162.223 405.55 160.886C403.21 159.515 400.485 158.829 397.375 158.829C394.132 158.829 391.256 159.582 388.749 161.086C386.275 162.557 384.335 164.547 382.931 167.054C381.527 169.529 380.808 172.287 380.774 175.33V187.918C380.774 191.73 381.477 195.023 382.881 197.798C384.319 200.574 386.341 202.713 388.949 204.218C391.557 205.723 394.65 206.475 398.228 206.475C400.602 206.475 402.775 206.141 404.748 205.472C406.72 204.803 408.409 203.8 409.813 202.463C411.218 201.125 412.287 199.487 413.023 197.548L432.784 198.852C431.78 203.599 429.724 207.746 426.615 211.29C423.539 214.8 419.56 217.542 414.678 219.515C409.83 221.454 404.229 222.424 397.877 222.424Z" fill="#303030"/>
<path d="M468.543 176.383V220.919H447.177V143.884H467.54V157.475H468.443C470.148 152.995 473.006 149.451 477.019 146.843C481.031 144.201 485.896 142.88 491.613 142.88C496.963 142.88 501.627 144.051 505.606 146.391C509.585 148.732 512.678 152.075 514.885 156.422C517.091 160.735 518.195 165.884 518.195 171.869V220.919H496.829V175.681C496.863 170.966 495.659 167.288 493.218 164.647C490.778 161.972 487.417 160.635 483.137 160.635C480.262 160.635 477.721 161.253 475.514 162.49C473.341 163.728 471.636 165.533 470.398 167.907C469.195 170.247 468.576 173.073 468.543 176.383Z" fill="#303030"/>
</svg>
