<svg width="739" height="368" viewBox="0 0 739 368" fill="none" xmlns="http://www.w3.org/2000/svg">
<path d="M11.1904 8.99094C18.0515 1.20603 28.1003 -0.667237 40.9678 1.98019C53.8454 4.62977 69.4385 11.791 87.2207 21.9245C104.995 32.0535 124.916 45.1277 146.445 59.573C189.493 88.456 238.955 122.811 290.409 149.939C341.86 177.066 395.362 197 446.5 197C548.796 197 622.058 117.242 669.662 59.4763C681.577 45.0178 691.873 31.951 700.637 21.8171C705.016 16.7529 709.003 12.4344 712.604 9.05246C716.212 5.66554 719.408 3.24253 722.205 1.94308C724.996 0.646652 727.318 0.498868 729.26 1.52707C731.227 2.5688 732.937 4.88433 734.33 8.82687C737.115 16.7104 738.5 30.7157 738.5 52.4997C738.5 226.398 573.37 367.5 369.5 367.5C165.63 367.5 0.5 226.398 0.5 52.4997C0.500034 30.7477 4.28918 16.8218 11.1904 8.99094Z" fill="black" stroke="black"/>
</svg>
